G04 #@! TF.GenerationSoftware,KiCad,Pcbnew,7.0.10*
G04 #@! TF.CreationDate,2025-04-04T14:55:01-04:00*
G04 #@! TF.ProjectId,nerve_cuff_single_polarity-rounded,6e657276-655f-4637-9566-665f73696e67,rev?*
G04 #@! TF.SameCoordinates,Original*
G04 #@! TF.FileFunction,Copper,L1,Top*
G04 #@! TF.FilePolarity,Positive*
%FSLAX46Y46*%
G04 Gerber Fmt 4.6, Leading zero omitted, Abs format (unit mm)*
G04 Created by KiCad (PCBNEW 7.0.10) date 2025-04-04 14:55:01*
%MOMM*%
%LPD*%
G01*
G04 APERTURE LIST*
G04 Aperture macros list*
%AMRoundRect*
0 Rectangle with rounded corners*
0 $1 Rounding radius*
0 $2 $3 $4 $5 $6 $7 $8 $9 X,Y pos of 4 corners*
0 Add a 4 corners polygon primitive as box body*
4,1,4,$2,$3,$4,$5,$6,$7,$8,$9,$2,$3,0*
0 Add four circle primitives for the rounded corners*
1,1,$1+$1,$2,$3*
1,1,$1+$1,$4,$5*
1,1,$1+$1,$6,$7*
1,1,$1+$1,$8,$9*
0 Add four rect primitives between the rounded corners*
20,1,$1+$1,$2,$3,$4,$5,0*
20,1,$1+$1,$4,$5,$6,$7,0*
20,1,$1+$1,$6,$7,$8,$9,0*
20,1,$1+$1,$8,$9,$2,$3,0*%
G04 Aperture macros list end*
G04 #@! TA.AperFunction,SMDPad,CuDef*
%ADD10RoundRect,0.075000X-0.075000X-0.075000X0.075000X-0.075000X0.075000X0.075000X-0.075000X0.075000X0*%
G04 #@! TD*
G04 #@! TA.AperFunction,ViaPad*
%ADD11C,0.400000*%
G04 #@! TD*
G04 #@! TA.AperFunction,Conductor*
%ADD12C,0.100000*%
G04 #@! TD*
G04 APERTURE END LIST*
D10*
X93890000Y-29960000D03*
X93680000Y-29250000D03*
D11*
X92900000Y-29220000D03*
X92740000Y-26840000D03*
D12*
X92836464Y-29293535D02*
X92725000Y-29405000D01*
X93130000Y-27877500D02*
X93130000Y-27955000D01*
X92610000Y-29682634D02*
X92610000Y-30103933D01*
X93739289Y-30360000D02*
X92866066Y-30360000D01*
X93470000Y-28690416D02*
X93470000Y-28806654D01*
X93910000Y-29967781D02*
X93910000Y-30189289D01*
X92740000Y-26840000D02*
X92730000Y-26840000D01*
X93655043Y-29225043D02*
X93635000Y-29205000D01*
X92853535Y-29286464D02*
X92899999Y-29239999D01*
X92740000Y-26840000D02*
X92730000Y-27120000D01*
X93239601Y-28219601D02*
X93300000Y-28280000D01*
X92927989Y-27597989D02*
X93075199Y-27745199D01*
X92609986Y-30103933D02*
G75*
G03*
X92685000Y-30285000I256114J33D01*
G01*
X92730006Y-27120000D02*
G75*
G03*
X92927989Y-27597989I675994J0D01*
G01*
X93860003Y-30310003D02*
G75*
G03*
X93910000Y-30189289I-120703J120703D01*
G01*
X93130000Y-27877500D02*
G75*
G03*
X93075199Y-27745199I-187100J0D01*
G01*
X93739289Y-30359995D02*
G75*
G03*
X93860000Y-30310000I11J170695D01*
G01*
X93130000Y-27955000D02*
G75*
G03*
X93239602Y-28219600I374200J0D01*
G01*
X92724990Y-29404990D02*
G75*
G03*
X92610000Y-29682634I277610J-277610D01*
G01*
X93469993Y-28690416D02*
G75*
G03*
X93300000Y-28280000I-580393J16D01*
G01*
X92845000Y-29290008D02*
G75*
G03*
X92836464Y-29293535I0J-12092D01*
G01*
X92845000Y-29289990D02*
G75*
G03*
X92853534Y-29286463I0J12090D01*
G01*
X92685010Y-30284990D02*
G75*
G03*
X92866066Y-30360000I181090J181090D01*
G01*
X93470019Y-28806654D02*
G75*
G03*
X93635000Y-29205000I563281J-46D01*
G01*
G04 #@! TA.AperFunction,NonConductor*
G36*
X95300927Y-25480507D02*
G01*
X95816307Y-25488955D01*
X95850711Y-25503871D01*
X95864500Y-25537947D01*
X95864500Y-30570870D01*
X95850148Y-30605518D01*
X95815500Y-30619870D01*
X95815402Y-30619870D01*
X90959473Y-30610119D01*
X90924853Y-30595698D01*
X90910571Y-30561072D01*
X90911115Y-30000000D01*
X91224344Y-30000000D01*
X91244710Y-30089231D01*
X91244712Y-30089235D01*
X91301774Y-30160786D01*
X91301776Y-30160788D01*
X91384234Y-30200499D01*
X91384235Y-30200499D01*
X91384237Y-30200500D01*
X91384239Y-30200500D01*
X91475761Y-30200500D01*
X91475763Y-30200500D01*
X91558224Y-30160788D01*
X91606054Y-30100812D01*
X91615287Y-30089235D01*
X91615287Y-30089234D01*
X91615290Y-30089231D01*
X91616560Y-30083668D01*
X92509484Y-30083668D01*
X92509490Y-30150886D01*
X92509490Y-30150888D01*
X92533796Y-30241564D01*
X92533799Y-30241571D01*
X92580739Y-30322867D01*
X92580746Y-30322876D01*
X92594892Y-30337021D01*
X92594894Y-30337024D01*
X92613935Y-30356063D01*
X92637735Y-30379863D01*
X92637812Y-30379921D01*
X92647136Y-30389246D01*
X92728436Y-30436189D01*
X92728438Y-30436189D01*
X92728439Y-30436190D01*
X92819113Y-30460495D01*
X92819122Y-30460495D01*
X92846193Y-30460497D01*
X92846217Y-30460500D01*
X92866053Y-30460500D01*
X92892981Y-30460503D01*
X92892981Y-30460502D01*
X92899623Y-30460503D01*
X92899652Y-30460500D01*
X93760040Y-30460500D01*
X93760080Y-30460495D01*
X93774989Y-30460497D01*
X93843969Y-30442017D01*
X93905815Y-30406312D01*
X93905821Y-30406305D01*
X93905826Y-30406302D01*
X93912022Y-30400106D01*
X93912023Y-30400106D01*
X93916709Y-30395419D01*
X93916718Y-30395415D01*
X93931066Y-30381066D01*
X93931067Y-30381067D01*
X93956316Y-30355818D01*
X93992021Y-30293971D01*
X94010502Y-30224990D01*
X94010500Y-30189283D01*
X94010500Y-30181727D01*
X94024852Y-30147079D01*
X94032273Y-30140987D01*
X94055481Y-30125481D01*
X94083219Y-30083968D01*
X94090500Y-30047363D01*
X94090500Y-30000000D01*
X95114344Y-30000000D01*
X95134710Y-30089231D01*
X95134712Y-30089235D01*
X95191774Y-30160786D01*
X95191776Y-30160788D01*
X95274234Y-30200499D01*
X95274235Y-30200499D01*
X95274237Y-30200500D01*
X95274239Y-30200500D01*
X95365761Y-30200500D01*
X95365763Y-30200500D01*
X95448224Y-30160788D01*
X95496054Y-30100812D01*
X95505287Y-30089235D01*
X95505287Y-30089234D01*
X95505290Y-30089231D01*
X95525656Y-30000000D01*
X95505290Y-29910769D01*
X95505288Y-29910767D01*
X95505287Y-29910764D01*
X95448225Y-29839213D01*
X95448223Y-29839211D01*
X95365765Y-29799500D01*
X95365763Y-29799500D01*
X95274237Y-29799500D01*
X95274234Y-29799500D01*
X95191776Y-29839211D01*
X95191774Y-29839213D01*
X95134712Y-29910764D01*
X95134710Y-29910768D01*
X95114344Y-30000000D01*
X94090500Y-30000000D01*
X94090499Y-29872638D01*
X94083219Y-29836032D01*
X94058809Y-29799500D01*
X94055480Y-29794517D01*
X94013969Y-29766781D01*
X94004816Y-29764960D01*
X93977363Y-29759500D01*
X93977360Y-29759500D01*
X93802641Y-29759500D01*
X93802640Y-29759500D01*
X93802638Y-29759501D01*
X93778234Y-29764354D01*
X93766031Y-29766781D01*
X93766027Y-29766783D01*
X93724517Y-29794519D01*
X93696781Y-29836030D01*
X93689500Y-29872639D01*
X93689500Y-30047358D01*
X93689501Y-30047362D01*
X93695399Y-30077017D01*
X93696781Y-30083968D01*
X93696783Y-30083972D01*
X93724519Y-30125482D01*
X93766032Y-30153219D01*
X93770492Y-30155067D01*
X93770071Y-30156082D01*
X93796864Y-30173979D01*
X93804186Y-30210761D01*
X93795003Y-30231034D01*
X93792881Y-30233800D01*
X93783831Y-30242850D01*
X93779509Y-30246166D01*
X93768434Y-30252560D01*
X93763427Y-30254634D01*
X93751067Y-30257945D01*
X93742440Y-30259080D01*
X93736048Y-30259499D01*
X93706667Y-30259499D01*
X93706659Y-30259500D01*
X92869294Y-30259500D01*
X92862892Y-30259080D01*
X92832207Y-30255036D01*
X92819856Y-30251725D01*
X92794254Y-30241119D01*
X92783176Y-30234723D01*
X92781973Y-30233800D01*
X92777044Y-30230017D01*
X92761147Y-30217818D01*
X92752105Y-30208775D01*
X92735265Y-30186830D01*
X92728869Y-30175754D01*
X92718260Y-30150145D01*
X92714949Y-30137792D01*
X92710920Y-30107213D01*
X92710500Y-30100812D01*
X92710500Y-29716816D01*
X92710502Y-29716797D01*
X92710500Y-29685835D01*
X92710919Y-29679437D01*
X92716889Y-29634071D01*
X92719607Y-29613408D01*
X92722917Y-29601055D01*
X92740641Y-29558260D01*
X92767158Y-29531740D01*
X92802668Y-29530964D01*
X92842606Y-29545500D01*
X92842607Y-29545500D01*
X92957393Y-29545500D01*
X92957394Y-29545500D01*
X93065261Y-29506240D01*
X93153194Y-29432455D01*
X93210588Y-29333045D01*
X93230521Y-29220000D01*
X93210588Y-29106955D01*
X93210587Y-29106953D01*
X93210587Y-29106952D01*
X93153195Y-29007547D01*
X93153194Y-29007545D01*
X93131207Y-28989096D01*
X93065261Y-28933760D01*
X92957394Y-28894500D01*
X92842606Y-28894500D01*
X92734737Y-28933760D01*
X92646808Y-29007541D01*
X92646804Y-29007546D01*
X92589412Y-29106952D01*
X92572917Y-29200500D01*
X92569479Y-29220000D01*
X92589412Y-29333045D01*
X92591905Y-29337363D01*
X92599072Y-29349778D01*
X92603966Y-29386961D01*
X92597379Y-29401498D01*
X92565611Y-29449045D01*
X92528441Y-29538794D01*
X92528440Y-29538798D01*
X92509496Y-29634068D01*
X92509500Y-29682625D01*
X92509500Y-30071299D01*
X92509496Y-30071333D01*
X92509497Y-30083635D01*
X92509484Y-30083668D01*
X91616560Y-30083668D01*
X91635656Y-30000000D01*
X91615290Y-29910769D01*
X91615288Y-29910767D01*
X91615287Y-29910764D01*
X91558225Y-29839213D01*
X91558223Y-29839211D01*
X91475765Y-29799500D01*
X91475763Y-29799500D01*
X91384237Y-29799500D01*
X91384234Y-29799500D01*
X91301776Y-29839211D01*
X91301774Y-29839213D01*
X91244712Y-29910764D01*
X91244710Y-29910768D01*
X91224344Y-30000000D01*
X90911115Y-30000000D01*
X90912085Y-29000000D01*
X91224344Y-29000000D01*
X91244710Y-29089231D01*
X91244712Y-29089235D01*
X91301774Y-29160786D01*
X91301776Y-29160788D01*
X91384234Y-29200499D01*
X91384235Y-29200499D01*
X91384237Y-29200500D01*
X91384239Y-29200500D01*
X91475761Y-29200500D01*
X91475763Y-29200500D01*
X91558224Y-29160788D01*
X91601477Y-29106550D01*
X91615287Y-29089235D01*
X91615287Y-29089234D01*
X91615290Y-29089231D01*
X91635656Y-29000000D01*
X91615290Y-28910769D01*
X91615288Y-28910767D01*
X91615287Y-28910764D01*
X91558225Y-28839213D01*
X91558223Y-28839211D01*
X91475765Y-28799500D01*
X91475763Y-28799500D01*
X91384237Y-28799500D01*
X91384234Y-28799500D01*
X91301776Y-28839211D01*
X91301774Y-28839213D01*
X91244712Y-28910764D01*
X91244710Y-28910768D01*
X91224344Y-29000000D01*
X90912085Y-29000000D01*
X90913055Y-28000000D01*
X91224344Y-28000000D01*
X91244710Y-28089231D01*
X91244712Y-28089235D01*
X91301774Y-28160786D01*
X91301776Y-28160788D01*
X91384234Y-28200499D01*
X91384235Y-28200499D01*
X91384237Y-28200500D01*
X91384239Y-28200500D01*
X91475761Y-28200500D01*
X91475763Y-28200500D01*
X91558224Y-28160788D01*
X91609120Y-28096968D01*
X91615287Y-28089235D01*
X91615287Y-28089234D01*
X91615290Y-28089231D01*
X91635656Y-28000000D01*
X91615290Y-27910769D01*
X91615288Y-27910767D01*
X91615287Y-27910764D01*
X91558225Y-27839213D01*
X91558223Y-27839211D01*
X91475765Y-27799500D01*
X91475763Y-27799500D01*
X91384237Y-27799500D01*
X91384234Y-27799500D01*
X91301776Y-27839211D01*
X91301774Y-27839213D01*
X91244712Y-27910764D01*
X91244710Y-27910768D01*
X91224344Y-28000000D01*
X90913055Y-28000000D01*
X90913841Y-27190132D01*
X90914026Y-27000000D01*
X91224344Y-27000000D01*
X91244710Y-27089231D01*
X91244712Y-27089235D01*
X91301774Y-27160786D01*
X91301776Y-27160788D01*
X91384234Y-27200499D01*
X91384235Y-27200499D01*
X91384237Y-27200500D01*
X91384239Y-27200500D01*
X91475761Y-27200500D01*
X91475763Y-27200500D01*
X91558224Y-27160788D01*
X91601477Y-27106550D01*
X91615287Y-27089235D01*
X91615287Y-27089234D01*
X91615290Y-27089231D01*
X91635656Y-27000000D01*
X91615290Y-26910769D01*
X91615288Y-26910767D01*
X91615287Y-26910764D01*
X91558853Y-26840000D01*
X92409479Y-26840000D01*
X92429412Y-26953047D01*
X92486804Y-27052452D01*
X92486806Y-27052455D01*
X92574738Y-27126240D01*
X92589272Y-27131529D01*
X92597264Y-27134438D01*
X92624914Y-27159773D01*
X92629506Y-27180483D01*
X92629506Y-27196476D01*
X92636626Y-27232270D01*
X92659344Y-27346488D01*
X92659344Y-27346489D01*
X92717876Y-27487801D01*
X92802844Y-27614969D01*
X92802848Y-27614974D01*
X92856921Y-27669051D01*
X92856922Y-27669051D01*
X92856923Y-27669052D01*
X92875964Y-27688093D01*
X92875965Y-27688093D01*
X92882856Y-27694984D01*
X92882855Y-27694984D01*
X92882857Y-27694985D01*
X92985094Y-27797222D01*
X93001867Y-27813996D01*
X93006080Y-27818799D01*
X93013972Y-27829083D01*
X93020368Y-27840163D01*
X93024080Y-27849126D01*
X93027389Y-27861476D01*
X93029080Y-27874314D01*
X93029500Y-27880713D01*
X93029500Y-28001759D01*
X93047740Y-28093457D01*
X93047742Y-28093464D01*
X93083527Y-28179856D01*
X93083527Y-28179857D01*
X93135472Y-28257600D01*
X93135476Y-28257604D01*
X93135477Y-28257605D01*
X93154491Y-28276618D01*
X93154495Y-28276623D01*
X93161643Y-28283771D01*
X93161644Y-28283773D01*
X93168537Y-28290665D01*
X93168537Y-28290666D01*
X93187578Y-28309706D01*
X93187579Y-28309707D01*
X93207095Y-28329223D01*
X93207100Y-28329229D01*
X93209893Y-28332022D01*
X93209894Y-28332023D01*
X93227239Y-28349367D01*
X93230460Y-28352921D01*
X93285558Y-28420059D01*
X93290889Y-28428037D01*
X93330691Y-28502502D01*
X93334366Y-28511377D01*
X93358872Y-28592167D01*
X93360746Y-28601588D01*
X93369264Y-28688088D01*
X93369500Y-28692890D01*
X93369500Y-28826205D01*
X93369516Y-28826425D01*
X93369514Y-28872031D01*
X93369514Y-28872032D01*
X93395016Y-29000280D01*
X93395017Y-29000283D01*
X93445052Y-29121095D01*
X93445054Y-29121098D01*
X93445055Y-29121100D01*
X93471243Y-29160295D01*
X93479500Y-29187516D01*
X93479500Y-29337358D01*
X93479501Y-29337362D01*
X93486781Y-29373968D01*
X93486783Y-29373972D01*
X93514519Y-29415482D01*
X93556030Y-29443218D01*
X93556032Y-29443219D01*
X93592637Y-29450500D01*
X93767362Y-29450499D01*
X93803968Y-29443219D01*
X93845481Y-29415481D01*
X93873219Y-29373968D01*
X93880500Y-29337363D01*
X93880499Y-29162638D01*
X93873219Y-29126032D01*
X93869920Y-29121095D01*
X93845480Y-29084517D01*
X93803969Y-29056781D01*
X93794816Y-29054960D01*
X93767363Y-29049500D01*
X93767360Y-29049500D01*
X93670235Y-29049500D01*
X93635587Y-29035148D01*
X93627021Y-29023598D01*
X93614408Y-29000000D01*
X95114344Y-29000000D01*
X95134710Y-29089231D01*
X95134712Y-29089235D01*
X95191774Y-29160786D01*
X95191776Y-29160788D01*
X95274234Y-29200499D01*
X95274235Y-29200499D01*
X95274237Y-29200500D01*
X95274239Y-29200500D01*
X95365761Y-29200500D01*
X95365763Y-29200500D01*
X95448224Y-29160788D01*
X95491477Y-29106550D01*
X95505287Y-29089235D01*
X95505287Y-29089234D01*
X95505290Y-29089231D01*
X95525656Y-29000000D01*
X95505290Y-28910769D01*
X95505288Y-28910767D01*
X95505287Y-28910764D01*
X95448225Y-28839213D01*
X95448223Y-28839211D01*
X95365765Y-28799500D01*
X95365763Y-28799500D01*
X95274237Y-28799500D01*
X95274234Y-28799500D01*
X95191776Y-28839211D01*
X95191774Y-28839213D01*
X95134712Y-28910764D01*
X95134710Y-28910768D01*
X95114344Y-29000000D01*
X93614408Y-29000000D01*
X93608014Y-28988038D01*
X93604340Y-28979168D01*
X93580806Y-28901572D01*
X93578933Y-28892150D01*
X93570736Y-28808863D01*
X93570500Y-28804061D01*
X93570502Y-28779733D01*
X93570500Y-28779730D01*
X93570501Y-28774039D01*
X93570500Y-28774021D01*
X93570500Y-28670590D01*
X93570493Y-28670504D01*
X93570495Y-28623354D01*
X93544331Y-28491802D01*
X93517923Y-28428046D01*
X93493003Y-28367881D01*
X93418486Y-28256358D01*
X93371064Y-28208936D01*
X93352023Y-28189894D01*
X93352022Y-28189893D01*
X93349229Y-28187100D01*
X93349223Y-28187095D01*
X93322917Y-28160789D01*
X93322916Y-28160787D01*
X93312935Y-28150805D01*
X93308715Y-28145994D01*
X93271093Y-28096965D01*
X93264699Y-28085889D01*
X93242295Y-28031800D01*
X93238984Y-28019444D01*
X93236424Y-28000000D01*
X95114344Y-28000000D01*
X95134710Y-28089231D01*
X95134712Y-28089235D01*
X95191774Y-28160786D01*
X95191776Y-28160788D01*
X95274234Y-28200499D01*
X95274235Y-28200499D01*
X95274237Y-28200500D01*
X95274239Y-28200500D01*
X95365761Y-28200500D01*
X95365763Y-28200500D01*
X95448224Y-28160788D01*
X95499120Y-28096968D01*
X95505287Y-28089235D01*
X95505287Y-28089234D01*
X95505290Y-28089231D01*
X95525656Y-28000000D01*
X95505290Y-27910769D01*
X95505288Y-27910767D01*
X95505287Y-27910764D01*
X95448225Y-27839213D01*
X95448223Y-27839211D01*
X95365765Y-27799500D01*
X95365763Y-27799500D01*
X95274237Y-27799500D01*
X95274234Y-27799500D01*
X95191776Y-27839211D01*
X95191774Y-27839213D01*
X95134712Y-27910764D01*
X95134710Y-27910768D01*
X95114344Y-28000000D01*
X93236424Y-28000000D01*
X93230919Y-27958181D01*
X93230500Y-27951786D01*
X93230500Y-27839634D01*
X93210900Y-27766490D01*
X93210899Y-27766486D01*
X93173039Y-27700913D01*
X93173038Y-27700912D01*
X93173036Y-27700908D01*
X93169413Y-27697285D01*
X93169411Y-27697281D01*
X93127221Y-27655093D01*
X93008573Y-27536445D01*
X93000760Y-27528631D01*
X92997532Y-27525070D01*
X92930548Y-27443447D01*
X92925214Y-27435464D01*
X92876583Y-27344479D01*
X92872909Y-27335608D01*
X92842964Y-27236887D01*
X92841090Y-27227467D01*
X92837413Y-27190132D01*
X92848300Y-27154244D01*
X92869415Y-27139286D01*
X92905261Y-27126240D01*
X92993194Y-27052455D01*
X93023479Y-27000000D01*
X95114344Y-27000000D01*
X95134710Y-27089231D01*
X95134712Y-27089235D01*
X95191774Y-27160786D01*
X95191776Y-27160788D01*
X95274234Y-27200499D01*
X95274235Y-27200499D01*
X95274237Y-27200500D01*
X95274239Y-27200500D01*
X95365761Y-27200500D01*
X95365763Y-27200500D01*
X95448224Y-27160788D01*
X95491477Y-27106550D01*
X95505287Y-27089235D01*
X95505287Y-27089234D01*
X95505290Y-27089231D01*
X95525656Y-27000000D01*
X95505290Y-26910769D01*
X95505288Y-26910767D01*
X95505287Y-26910764D01*
X95448225Y-26839213D01*
X95448223Y-26839211D01*
X95365765Y-26799500D01*
X95365763Y-26799500D01*
X95274237Y-26799500D01*
X95274234Y-26799500D01*
X95191776Y-26839211D01*
X95191774Y-26839213D01*
X95134712Y-26910764D01*
X95134710Y-26910768D01*
X95114344Y-27000000D01*
X93023479Y-27000000D01*
X93050588Y-26953045D01*
X93070521Y-26840000D01*
X93050588Y-26726955D01*
X93050587Y-26726953D01*
X93050587Y-26726952D01*
X92993195Y-26627547D01*
X92993194Y-26627545D01*
X92905261Y-26553760D01*
X92797394Y-26514500D01*
X92682606Y-26514500D01*
X92574737Y-26553760D01*
X92486808Y-26627541D01*
X92486804Y-26627546D01*
X92429412Y-26726952D01*
X92409479Y-26840000D01*
X91558853Y-26840000D01*
X91558225Y-26839213D01*
X91558223Y-26839211D01*
X91475765Y-26799500D01*
X91475763Y-26799500D01*
X91384237Y-26799500D01*
X91384234Y-26799500D01*
X91301776Y-26839211D01*
X91301774Y-26839213D01*
X91244712Y-26910764D01*
X91244710Y-26910768D01*
X91224344Y-27000000D01*
X90914026Y-27000000D01*
X90914996Y-26000000D01*
X91224344Y-26000000D01*
X91244710Y-26089231D01*
X91244712Y-26089235D01*
X91301774Y-26160786D01*
X91301776Y-26160788D01*
X91384234Y-26200499D01*
X91384235Y-26200499D01*
X91384237Y-26200500D01*
X91384239Y-26200500D01*
X91475761Y-26200500D01*
X91475763Y-26200500D01*
X91558224Y-26160788D01*
X91601477Y-26106550D01*
X91615287Y-26089235D01*
X91615287Y-26089234D01*
X91615290Y-26089231D01*
X91635656Y-26000000D01*
X95114344Y-26000000D01*
X95134710Y-26089231D01*
X95134712Y-26089235D01*
X95191774Y-26160786D01*
X95191776Y-26160788D01*
X95274234Y-26200499D01*
X95274235Y-26200499D01*
X95274237Y-26200500D01*
X95274239Y-26200500D01*
X95365761Y-26200500D01*
X95365763Y-26200500D01*
X95448224Y-26160788D01*
X95491477Y-26106550D01*
X95505287Y-26089235D01*
X95505287Y-26089234D01*
X95505290Y-26089231D01*
X95525656Y-26000000D01*
X95505290Y-25910769D01*
X95505288Y-25910767D01*
X95505287Y-25910764D01*
X95448225Y-25839213D01*
X95448223Y-25839211D01*
X95365765Y-25799500D01*
X95365763Y-25799500D01*
X95274237Y-25799500D01*
X95274234Y-25799500D01*
X95191776Y-25839211D01*
X95191774Y-25839213D01*
X95134712Y-25910764D01*
X95134710Y-25910768D01*
X95114344Y-26000000D01*
X91635656Y-26000000D01*
X91615290Y-25910769D01*
X91615288Y-25910767D01*
X91615287Y-25910764D01*
X91558225Y-25839213D01*
X91558223Y-25839211D01*
X91475765Y-25799500D01*
X91475763Y-25799500D01*
X91384237Y-25799500D01*
X91384234Y-25799500D01*
X91301776Y-25839211D01*
X91301774Y-25839213D01*
X91244712Y-25910764D01*
X91244710Y-25910768D01*
X91224344Y-26000000D01*
X90914996Y-26000000D01*
X90915452Y-25529452D01*
X90929837Y-25494818D01*
X90964452Y-25480500D01*
X95300124Y-25480500D01*
X95300927Y-25480507D01*
G37*
G04 #@! TD.AperFunction*
G04 #@! TA.AperFunction,NonConductor*
G36*
X95374466Y-25810353D02*
G01*
X95434313Y-25839174D01*
X95451358Y-25852767D01*
X95492770Y-25904697D01*
X95502231Y-25924344D01*
X95517011Y-25989096D01*
X95517011Y-26010904D01*
X95502231Y-26075655D01*
X95492770Y-26095302D01*
X95451358Y-26147232D01*
X95434309Y-26160827D01*
X95374469Y-26189645D01*
X95353210Y-26194498D01*
X95286790Y-26194498D01*
X95265530Y-26189645D01*
X95205691Y-26160828D01*
X95188642Y-26147233D01*
X95147229Y-26095302D01*
X95137768Y-26075655D01*
X95137302Y-26073616D01*
X95122988Y-26010900D01*
X95122988Y-25989099D01*
X95137768Y-25924343D01*
X95147229Y-25904697D01*
X95188644Y-25852763D01*
X95205684Y-25839175D01*
X95265533Y-25810353D01*
X95286790Y-25805502D01*
X95353210Y-25805502D01*
X95374466Y-25810353D01*
G37*
G04 #@! TD.AperFunction*
G04 #@! TA.AperFunction,NonConductor*
G36*
X91484466Y-25810353D02*
G01*
X91544313Y-25839174D01*
X91561358Y-25852767D01*
X91602770Y-25904697D01*
X91612231Y-25924344D01*
X91627011Y-25989096D01*
X91627011Y-26010904D01*
X91612231Y-26075655D01*
X91602770Y-26095302D01*
X91561358Y-26147232D01*
X91544309Y-26160827D01*
X91484469Y-26189645D01*
X91463210Y-26194498D01*
X91396790Y-26194498D01*
X91375530Y-26189645D01*
X91315691Y-26160828D01*
X91298642Y-26147233D01*
X91257229Y-26095302D01*
X91247768Y-26075655D01*
X91247302Y-26073616D01*
X91232988Y-26010900D01*
X91232988Y-25989099D01*
X91247768Y-25924343D01*
X91257229Y-25904697D01*
X91298644Y-25852763D01*
X91315684Y-25839175D01*
X91375533Y-25810353D01*
X91396790Y-25805502D01*
X91463210Y-25805502D01*
X91484466Y-25810353D01*
G37*
G04 #@! TD.AperFunction*
G04 #@! TA.AperFunction,NonConductor*
G36*
X95374466Y-26810353D02*
G01*
X95434313Y-26839174D01*
X95451358Y-26852767D01*
X95492770Y-26904697D01*
X95502231Y-26924344D01*
X95517011Y-26989096D01*
X95517011Y-27010904D01*
X95502231Y-27075655D01*
X95492770Y-27095302D01*
X95451358Y-27147232D01*
X95434309Y-27160827D01*
X95374469Y-27189645D01*
X95353210Y-27194498D01*
X95286790Y-27194498D01*
X95265530Y-27189645D01*
X95205691Y-27160828D01*
X95188642Y-27147233D01*
X95147229Y-27095302D01*
X95137768Y-27075655D01*
X95137302Y-27073616D01*
X95122988Y-27010900D01*
X95122988Y-26989099D01*
X95137768Y-26924343D01*
X95147229Y-26904697D01*
X95188644Y-26852763D01*
X95205684Y-26839175D01*
X95265533Y-26810353D01*
X95286790Y-26805502D01*
X95353210Y-26805502D01*
X95374466Y-26810353D01*
G37*
G04 #@! TD.AperFunction*
G04 #@! TA.AperFunction,NonConductor*
G36*
X91484466Y-26810353D02*
G01*
X91544313Y-26839174D01*
X91561358Y-26852767D01*
X91602770Y-26904697D01*
X91612231Y-26924344D01*
X91627011Y-26989096D01*
X91627011Y-27010904D01*
X91612231Y-27075655D01*
X91602770Y-27095302D01*
X91561358Y-27147232D01*
X91544309Y-27160827D01*
X91484469Y-27189645D01*
X91463210Y-27194498D01*
X91396790Y-27194498D01*
X91375530Y-27189645D01*
X91315691Y-27160828D01*
X91298642Y-27147233D01*
X91257229Y-27095302D01*
X91247768Y-27075655D01*
X91247302Y-27073616D01*
X91232988Y-27010900D01*
X91232988Y-26989099D01*
X91247768Y-26924343D01*
X91257229Y-26904697D01*
X91298644Y-26852763D01*
X91315684Y-26839175D01*
X91375533Y-26810353D01*
X91396790Y-26805502D01*
X91463210Y-26805502D01*
X91484466Y-26810353D01*
G37*
G04 #@! TD.AperFunction*
G04 #@! TA.AperFunction,NonConductor*
G36*
X95374466Y-27810353D02*
G01*
X95434313Y-27839174D01*
X95451358Y-27852767D01*
X95492770Y-27904697D01*
X95502231Y-27924344D01*
X95517011Y-27989096D01*
X95517011Y-28010904D01*
X95502231Y-28075655D01*
X95492770Y-28095302D01*
X95451358Y-28147232D01*
X95434309Y-28160827D01*
X95374469Y-28189645D01*
X95353210Y-28194498D01*
X95286790Y-28194498D01*
X95265530Y-28189645D01*
X95205691Y-28160828D01*
X95188642Y-28147233D01*
X95164055Y-28116402D01*
X95147229Y-28095302D01*
X95137768Y-28075655D01*
X95127758Y-28031800D01*
X95122988Y-28010900D01*
X95122988Y-27989099D01*
X95137768Y-27924343D01*
X95147229Y-27904697D01*
X95188644Y-27852763D01*
X95205684Y-27839175D01*
X95265533Y-27810353D01*
X95286790Y-27805502D01*
X95353210Y-27805502D01*
X95374466Y-27810353D01*
G37*
G04 #@! TD.AperFunction*
G04 #@! TA.AperFunction,NonConductor*
G36*
X91484466Y-27810353D02*
G01*
X91544313Y-27839174D01*
X91561358Y-27852767D01*
X91602770Y-27904697D01*
X91612231Y-27924344D01*
X91627011Y-27989096D01*
X91627011Y-28010904D01*
X91612231Y-28075655D01*
X91602770Y-28095302D01*
X91561358Y-28147232D01*
X91544309Y-28160827D01*
X91484469Y-28189645D01*
X91463210Y-28194498D01*
X91396790Y-28194498D01*
X91375530Y-28189645D01*
X91315691Y-28160828D01*
X91298642Y-28147233D01*
X91274055Y-28116402D01*
X91257229Y-28095302D01*
X91247768Y-28075655D01*
X91237758Y-28031800D01*
X91232988Y-28010900D01*
X91232988Y-27989099D01*
X91247768Y-27924343D01*
X91257229Y-27904697D01*
X91298644Y-27852763D01*
X91315684Y-27839175D01*
X91375533Y-27810353D01*
X91396790Y-27805502D01*
X91463210Y-27805502D01*
X91484466Y-27810353D01*
G37*
G04 #@! TD.AperFunction*
G04 #@! TA.AperFunction,NonConductor*
G36*
X95374466Y-28810353D02*
G01*
X95434313Y-28839174D01*
X95451358Y-28852767D01*
X95492770Y-28904697D01*
X95502231Y-28924344D01*
X95517011Y-28989096D01*
X95517011Y-29010904D01*
X95502231Y-29075655D01*
X95492770Y-29095302D01*
X95451358Y-29147232D01*
X95434309Y-29160827D01*
X95374469Y-29189645D01*
X95353210Y-29194498D01*
X95286790Y-29194498D01*
X95265530Y-29189645D01*
X95209454Y-29162640D01*
X95205690Y-29160827D01*
X95188642Y-29147233D01*
X95147229Y-29095302D01*
X95137768Y-29075655D01*
X95125886Y-29023598D01*
X95122988Y-29010900D01*
X95122988Y-28989099D01*
X95137768Y-28924343D01*
X95147229Y-28904697D01*
X95149721Y-28901572D01*
X95188644Y-28852763D01*
X95205684Y-28839175D01*
X95265533Y-28810353D01*
X95286790Y-28805502D01*
X95353210Y-28805502D01*
X95374466Y-28810353D01*
G37*
G04 #@! TD.AperFunction*
G04 #@! TA.AperFunction,NonConductor*
G36*
X91484466Y-28810353D02*
G01*
X91544313Y-28839174D01*
X91561358Y-28852767D01*
X91602770Y-28904697D01*
X91612231Y-28924344D01*
X91627011Y-28989096D01*
X91627011Y-29010904D01*
X91612231Y-29075655D01*
X91602770Y-29095302D01*
X91561358Y-29147232D01*
X91544309Y-29160827D01*
X91484469Y-29189645D01*
X91463210Y-29194498D01*
X91396790Y-29194498D01*
X91375530Y-29189645D01*
X91319454Y-29162640D01*
X91315690Y-29160827D01*
X91298642Y-29147233D01*
X91257229Y-29095302D01*
X91247768Y-29075655D01*
X91235886Y-29023598D01*
X91232988Y-29010900D01*
X91232988Y-28989099D01*
X91247768Y-28924343D01*
X91257229Y-28904697D01*
X91259721Y-28901572D01*
X91298644Y-28852763D01*
X91315684Y-28839175D01*
X91375533Y-28810353D01*
X91396790Y-28805502D01*
X91463210Y-28805502D01*
X91484466Y-28810353D01*
G37*
G04 #@! TD.AperFunction*
G04 #@! TA.AperFunction,NonConductor*
G36*
X95374466Y-29810353D02*
G01*
X95434313Y-29839174D01*
X95451358Y-29852767D01*
X95492770Y-29904697D01*
X95502231Y-29924344D01*
X95517011Y-29989096D01*
X95517011Y-30010904D01*
X95502231Y-30075655D01*
X95492770Y-30095302D01*
X95451358Y-30147232D01*
X95434309Y-30160827D01*
X95374469Y-30189645D01*
X95353210Y-30194498D01*
X95286790Y-30194498D01*
X95265530Y-30189645D01*
X95205691Y-30160828D01*
X95188642Y-30147233D01*
X95164055Y-30116402D01*
X95147229Y-30095302D01*
X95137768Y-30075655D01*
X95131310Y-30047362D01*
X95122988Y-30010900D01*
X95122988Y-29989099D01*
X95137768Y-29924343D01*
X95147229Y-29904697D01*
X95188644Y-29852763D01*
X95205684Y-29839175D01*
X95265533Y-29810353D01*
X95286790Y-29805502D01*
X95353210Y-29805502D01*
X95374466Y-29810353D01*
G37*
G04 #@! TD.AperFunction*
G04 #@! TA.AperFunction,NonConductor*
G36*
X91484466Y-29810353D02*
G01*
X91544313Y-29839174D01*
X91561358Y-29852767D01*
X91602770Y-29904697D01*
X91612231Y-29924344D01*
X91627011Y-29989096D01*
X91627011Y-30010904D01*
X91612231Y-30075655D01*
X91602770Y-30095302D01*
X91561358Y-30147232D01*
X91544309Y-30160827D01*
X91484469Y-30189645D01*
X91463210Y-30194498D01*
X91396790Y-30194498D01*
X91375530Y-30189645D01*
X91315691Y-30160828D01*
X91298642Y-30147233D01*
X91274055Y-30116402D01*
X91257229Y-30095302D01*
X91247768Y-30075655D01*
X91241310Y-30047362D01*
X91232988Y-30010900D01*
X91232988Y-29989099D01*
X91247768Y-29924343D01*
X91257229Y-29904697D01*
X91298644Y-29852763D01*
X91315684Y-29839175D01*
X91375533Y-29810353D01*
X91396790Y-29805502D01*
X91463210Y-29805502D01*
X91484466Y-29810353D01*
G37*
G04 #@! TD.AperFunction*
M02*
