G04 #@! TF.GenerationSoftware,KiCad,Pcbnew,7.0.10*
G04 #@! TF.CreationDate,2025-04-07T09:30:28-04:00*
G04 #@! TF.ProjectId,nerve_cuff_single_polarity-rounded,6e657276-655f-4637-9566-665f73696e67,rev?*
G04 #@! TF.SameCoordinates,Original*
G04 #@! TF.FileFunction,Copper,L1,Top*
G04 #@! TF.FilePolarity,Positive*
%FSLAX46Y46*%
G04 Gerber Fmt 4.6, Leading zero omitted, Abs format (unit mm)*
G04 Created by KiCad (PCBNEW 7.0.10) date 2025-04-07 09:30:28*
%MOMM*%
%LPD*%
G01*
G04 APERTURE LIST*
G04 Aperture macros list*
%AMRoundRect*
0 Rectangle with rounded corners*
0 $1 Rounding radius*
0 $2 $3 $4 $5 $6 $7 $8 $9 X,Y pos of 4 corners*
0 Add a 4 corners polygon primitive as box body*
4,1,4,$2,$3,$4,$5,$6,$7,$8,$9,$2,$3,0*
0 Add four circle primitives for the rounded corners*
1,1,$1+$1,$2,$3*
1,1,$1+$1,$4,$5*
1,1,$1+$1,$6,$7*
1,1,$1+$1,$8,$9*
0 Add four rect primitives between the rounded corners*
20,1,$1+$1,$2,$3,$4,$5,0*
20,1,$1+$1,$4,$5,$6,$7,0*
20,1,$1+$1,$6,$7,$8,$9,0*
20,1,$1+$1,$8,$9,$2,$3,0*%
G04 Aperture macros list end*
G04 #@! TA.AperFunction,SMDPad,CuDef*
%ADD10RoundRect,0.075000X-0.075000X-0.075000X0.075000X-0.075000X0.075000X0.075000X-0.075000X0.075000X0*%
G04 #@! TD*
G04 #@! TA.AperFunction,ViaPad*
%ADD11C,0.400000*%
G04 #@! TD*
G04 #@! TA.AperFunction,Conductor*
%ADD12C,0.100000*%
G04 #@! TD*
G04 APERTURE END LIST*
D10*
X93890000Y-29960000D03*
X93675200Y-29260800D03*
D11*
X92900000Y-29220000D03*
X92740000Y-26840000D03*
D12*
X92836464Y-29293535D02*
X92725000Y-29405000D01*
X93130000Y-27877500D02*
X93130000Y-27955000D01*
X92610000Y-29682634D02*
X92610000Y-30103933D01*
X93739289Y-30360000D02*
X92866066Y-30360000D01*
X93470000Y-28690416D02*
X93470000Y-28806654D01*
X93910000Y-29967781D02*
X93910000Y-30189289D01*
X92740000Y-26840000D02*
X92730000Y-26840000D01*
X92853535Y-29286464D02*
X92899999Y-29239999D01*
X92740000Y-26840000D02*
X92730000Y-27120000D01*
X93239601Y-28219601D02*
X93300000Y-28280000D01*
X92927989Y-27597989D02*
X93075199Y-27745199D01*
X92609986Y-30103933D02*
G75*
G03*
X92685000Y-30285000I256114J33D01*
G01*
X92730006Y-27120000D02*
G75*
G03*
X92927989Y-27597989I675994J0D01*
G01*
X93860003Y-30310003D02*
G75*
G03*
X93910000Y-30189289I-120703J120703D01*
G01*
X93130000Y-27877500D02*
G75*
G03*
X93075199Y-27745199I-187100J0D01*
G01*
X93739289Y-30359995D02*
G75*
G03*
X93860000Y-30310000I11J170695D01*
G01*
X93130000Y-27955000D02*
G75*
G03*
X93239602Y-28219600I374200J0D01*
G01*
X92724990Y-29404990D02*
G75*
G03*
X92610000Y-29682634I277610J-277610D01*
G01*
X93469993Y-28690416D02*
G75*
G03*
X93300000Y-28280000I-580393J16D01*
G01*
X92845000Y-29290008D02*
G75*
G03*
X92836464Y-29293535I0J-12092D01*
G01*
X92845000Y-29289990D02*
G75*
G03*
X92853534Y-29286463I0J12090D01*
G01*
X92685010Y-30284990D02*
G75*
G03*
X92866066Y-30360000I181090J181090D01*
G01*
X93470019Y-28806654D02*
G75*
G03*
X93635000Y-29205000I563281J-46D01*
G01*
G04 #@! TA.AperFunction,NonConductor*
G36*
X95300932Y-25480507D02*
G01*
X95573710Y-25484978D01*
X95581677Y-25485762D01*
X95604330Y-25489882D01*
X95648437Y-25497907D01*
X95661180Y-25502094D01*
X95688177Y-25515296D01*
X95693199Y-25518130D01*
X95744767Y-25551378D01*
X95752284Y-25557342D01*
X95776067Y-25580358D01*
X95782277Y-25587678D01*
X95817197Y-25638129D01*
X95820196Y-25643059D01*
X95834268Y-25669594D01*
X95838874Y-25682205D01*
X95857135Y-25766738D01*
X95857504Y-25768625D01*
X95858764Y-25775814D01*
X95859500Y-25784273D01*
X95859500Y-30546142D01*
X95858896Y-30553812D01*
X95857694Y-30561396D01*
X95857356Y-30563285D01*
X95840830Y-30646367D01*
X95836431Y-30659053D01*
X95823054Y-30685307D01*
X95820137Y-30690285D01*
X95786735Y-30740275D01*
X95780641Y-30747700D01*
X95757702Y-30770639D01*
X95750279Y-30776732D01*
X95743367Y-30781351D01*
X95716044Y-30789610D01*
X91032059Y-30780204D01*
X90997509Y-30765852D01*
X90979357Y-30747700D01*
X90973263Y-30740275D01*
X90939863Y-30690289D01*
X90936954Y-30685327D01*
X90934192Y-30679907D01*
X90928856Y-30658135D01*
X90922682Y-29999999D01*
X91224344Y-29999999D01*
X91231279Y-30030384D01*
X91232507Y-30041287D01*
X91232507Y-30045076D01*
X91232507Y-30045077D01*
X91232508Y-30045079D01*
X91234150Y-30048488D01*
X91237775Y-30058845D01*
X91244710Y-30089231D01*
X91264140Y-30113595D01*
X91269978Y-30122886D01*
X91271622Y-30126300D01*
X91274586Y-30128664D01*
X91282343Y-30136421D01*
X91301776Y-30160788D01*
X91301777Y-30160789D01*
X91329851Y-30174309D01*
X91339139Y-30180144D01*
X91342105Y-30182509D01*
X91342108Y-30182511D01*
X91345805Y-30183354D01*
X91356153Y-30186975D01*
X91384237Y-30200500D01*
X91415402Y-30200500D01*
X91426306Y-30201728D01*
X91430000Y-30202572D01*
X91433693Y-30201728D01*
X91444598Y-30200500D01*
X91475763Y-30200500D01*
X91503847Y-30186975D01*
X91514194Y-30183354D01*
X91517892Y-30182511D01*
X91520861Y-30180142D01*
X91530143Y-30174311D01*
X91558224Y-30160788D01*
X91577658Y-30136418D01*
X91585414Y-30128663D01*
X91588377Y-30126301D01*
X91590023Y-30122882D01*
X91595854Y-30113602D01*
X91615290Y-30089231D01*
X91616560Y-30083668D01*
X92509484Y-30083668D01*
X92509490Y-30150886D01*
X92509490Y-30150888D01*
X92533796Y-30241564D01*
X92533799Y-30241571D01*
X92580739Y-30322867D01*
X92580746Y-30322876D01*
X92594892Y-30337021D01*
X92594894Y-30337024D01*
X92613935Y-30356063D01*
X92637735Y-30379863D01*
X92637812Y-30379921D01*
X92647136Y-30389246D01*
X92728436Y-30436189D01*
X92728438Y-30436189D01*
X92728439Y-30436190D01*
X92819113Y-30460495D01*
X92819122Y-30460495D01*
X92846193Y-30460497D01*
X92846217Y-30460500D01*
X92866053Y-30460500D01*
X92892981Y-30460503D01*
X92892981Y-30460502D01*
X92899623Y-30460503D01*
X92899652Y-30460500D01*
X93760040Y-30460500D01*
X93760080Y-30460495D01*
X93774989Y-30460497D01*
X93843969Y-30442017D01*
X93905815Y-30406312D01*
X93905821Y-30406305D01*
X93905826Y-30406302D01*
X93912022Y-30400106D01*
X93912023Y-30400106D01*
X93916709Y-30395419D01*
X93916718Y-30395415D01*
X93931066Y-30381066D01*
X93931067Y-30381067D01*
X93956316Y-30355818D01*
X93992021Y-30293971D01*
X94010502Y-30224990D01*
X94010500Y-30189283D01*
X94010500Y-30181727D01*
X94024852Y-30147079D01*
X94032273Y-30140987D01*
X94055481Y-30125481D01*
X94083219Y-30083968D01*
X94090500Y-30047363D01*
X94090500Y-29999999D01*
X95114344Y-29999999D01*
X95121279Y-30030384D01*
X95122507Y-30041287D01*
X95122507Y-30045076D01*
X95122507Y-30045077D01*
X95122508Y-30045079D01*
X95124150Y-30048488D01*
X95127775Y-30058845D01*
X95134710Y-30089231D01*
X95154140Y-30113595D01*
X95159978Y-30122886D01*
X95161622Y-30126300D01*
X95164586Y-30128664D01*
X95172343Y-30136421D01*
X95191776Y-30160788D01*
X95191777Y-30160789D01*
X95219851Y-30174309D01*
X95229139Y-30180144D01*
X95232105Y-30182509D01*
X95232108Y-30182511D01*
X95235805Y-30183354D01*
X95246153Y-30186975D01*
X95274237Y-30200500D01*
X95305402Y-30200500D01*
X95316306Y-30201728D01*
X95320000Y-30202572D01*
X95323693Y-30201728D01*
X95334598Y-30200500D01*
X95365763Y-30200500D01*
X95393847Y-30186975D01*
X95404194Y-30183354D01*
X95407892Y-30182511D01*
X95410861Y-30180142D01*
X95420143Y-30174311D01*
X95448224Y-30160788D01*
X95467658Y-30136418D01*
X95475414Y-30128663D01*
X95478377Y-30126301D01*
X95480023Y-30122882D01*
X95485854Y-30113602D01*
X95505290Y-30089231D01*
X95512227Y-30058837D01*
X95515847Y-30048493D01*
X95517493Y-30045076D01*
X95517948Y-30036886D01*
X95519096Y-30028739D01*
X95525656Y-30000000D01*
X95519097Y-29971265D01*
X95517948Y-29963111D01*
X95517493Y-29954924D01*
X95515850Y-29951512D01*
X95512225Y-29941155D01*
X95505290Y-29910769D01*
X95505289Y-29910767D01*
X95485858Y-29886403D01*
X95480022Y-29877115D01*
X95478377Y-29873699D01*
X95478374Y-29873697D01*
X95475410Y-29871333D01*
X95467655Y-29863577D01*
X95448223Y-29839211D01*
X95420144Y-29825688D01*
X95410856Y-29819852D01*
X95407895Y-29817491D01*
X95407893Y-29817490D01*
X95407892Y-29817489D01*
X95407890Y-29817488D01*
X95407889Y-29817488D01*
X95404195Y-29816645D01*
X95393841Y-29813021D01*
X95365767Y-29799501D01*
X95365764Y-29799500D01*
X95365763Y-29799500D01*
X95334596Y-29799500D01*
X95323694Y-29798272D01*
X95320000Y-29797429D01*
X95316306Y-29798272D01*
X95305404Y-29799500D01*
X95274235Y-29799500D01*
X95246161Y-29813021D01*
X95235805Y-29816645D01*
X95232110Y-29817488D01*
X95232104Y-29817491D01*
X95229142Y-29819853D01*
X95219859Y-29825686D01*
X95191774Y-29839212D01*
X95172341Y-29863579D01*
X95164594Y-29871328D01*
X95161623Y-29873697D01*
X95161621Y-29873701D01*
X95159975Y-29877118D01*
X95154143Y-29886399D01*
X95134709Y-29910769D01*
X95127773Y-29941155D01*
X95124153Y-29951502D01*
X95122507Y-29954919D01*
X95122507Y-29958711D01*
X95121279Y-29969613D01*
X95114344Y-29999999D01*
X94090500Y-29999999D01*
X94090499Y-29872638D01*
X94083219Y-29836032D01*
X94076307Y-29825688D01*
X94055480Y-29794517D01*
X94013969Y-29766781D01*
X94004816Y-29764960D01*
X93977363Y-29759500D01*
X93977360Y-29759500D01*
X93802641Y-29759500D01*
X93802640Y-29759500D01*
X93802638Y-29759501D01*
X93778234Y-29764354D01*
X93766031Y-29766781D01*
X93766027Y-29766783D01*
X93724517Y-29794519D01*
X93696781Y-29836030D01*
X93696148Y-29839212D01*
X93689760Y-29871333D01*
X93689500Y-29872639D01*
X93689500Y-30047358D01*
X93689501Y-30047362D01*
X93695399Y-30077017D01*
X93696781Y-30083968D01*
X93696783Y-30083972D01*
X93724519Y-30125482D01*
X93766032Y-30153219D01*
X93770492Y-30155067D01*
X93770071Y-30156082D01*
X93796864Y-30173979D01*
X93804186Y-30210761D01*
X93795003Y-30231034D01*
X93792881Y-30233800D01*
X93783831Y-30242850D01*
X93779509Y-30246166D01*
X93768434Y-30252560D01*
X93763427Y-30254634D01*
X93751067Y-30257945D01*
X93742440Y-30259080D01*
X93736048Y-30259499D01*
X93706667Y-30259499D01*
X93706659Y-30259500D01*
X92869294Y-30259500D01*
X92862892Y-30259080D01*
X92832207Y-30255036D01*
X92819856Y-30251725D01*
X92794254Y-30241119D01*
X92783176Y-30234723D01*
X92781973Y-30233800D01*
X92777044Y-30230017D01*
X92761147Y-30217818D01*
X92752105Y-30208775D01*
X92735265Y-30186830D01*
X92728869Y-30175754D01*
X92728270Y-30174309D01*
X92722549Y-30160499D01*
X92718260Y-30150145D01*
X92714949Y-30137792D01*
X92714768Y-30136422D01*
X92710920Y-30107213D01*
X92710500Y-30100812D01*
X92710500Y-29716816D01*
X92710502Y-29716797D01*
X92710500Y-29685835D01*
X92710919Y-29679437D01*
X92716889Y-29634071D01*
X92719607Y-29613408D01*
X92722917Y-29601055D01*
X92740641Y-29558260D01*
X92767158Y-29531740D01*
X92802668Y-29530964D01*
X92842606Y-29545500D01*
X92842607Y-29545500D01*
X92957393Y-29545500D01*
X92957394Y-29545500D01*
X93065261Y-29506240D01*
X93153194Y-29432455D01*
X93210588Y-29333045D01*
X93230521Y-29220000D01*
X93210588Y-29106955D01*
X93210587Y-29106953D01*
X93210587Y-29106952D01*
X93153195Y-29007547D01*
X93153194Y-29007545D01*
X93119367Y-28979161D01*
X93065261Y-28933760D01*
X92957394Y-28894500D01*
X92842606Y-28894500D01*
X92734737Y-28933760D01*
X92646808Y-29007541D01*
X92646804Y-29007546D01*
X92589412Y-29106952D01*
X92572917Y-29200500D01*
X92569479Y-29220000D01*
X92589412Y-29333045D01*
X92593815Y-29340671D01*
X92599072Y-29349778D01*
X92603966Y-29386961D01*
X92597379Y-29401498D01*
X92565611Y-29449045D01*
X92528441Y-29538794D01*
X92528440Y-29538798D01*
X92509496Y-29634068D01*
X92509500Y-29682625D01*
X92509500Y-30071299D01*
X92509496Y-30071333D01*
X92509497Y-30083635D01*
X92509484Y-30083668D01*
X91616560Y-30083668D01*
X91622227Y-30058837D01*
X91625847Y-30048493D01*
X91627493Y-30045076D01*
X91627948Y-30036886D01*
X91629096Y-30028739D01*
X91635656Y-30000000D01*
X91629097Y-29971265D01*
X91627948Y-29963111D01*
X91627493Y-29954924D01*
X91625850Y-29951512D01*
X91622225Y-29941155D01*
X91615290Y-29910769D01*
X91615289Y-29910767D01*
X91595858Y-29886403D01*
X91590022Y-29877115D01*
X91588377Y-29873699D01*
X91588374Y-29873697D01*
X91585410Y-29871333D01*
X91577655Y-29863577D01*
X91558223Y-29839211D01*
X91530144Y-29825688D01*
X91520856Y-29819852D01*
X91517895Y-29817491D01*
X91517893Y-29817490D01*
X91517892Y-29817489D01*
X91517890Y-29817488D01*
X91517889Y-29817488D01*
X91514195Y-29816645D01*
X91503841Y-29813021D01*
X91475767Y-29799501D01*
X91475764Y-29799500D01*
X91475763Y-29799500D01*
X91444596Y-29799500D01*
X91433694Y-29798272D01*
X91430000Y-29797429D01*
X91426306Y-29798272D01*
X91415404Y-29799500D01*
X91384235Y-29799500D01*
X91356161Y-29813021D01*
X91345805Y-29816645D01*
X91342110Y-29817488D01*
X91342104Y-29817491D01*
X91339142Y-29819853D01*
X91329859Y-29825686D01*
X91301774Y-29839212D01*
X91282341Y-29863579D01*
X91274594Y-29871328D01*
X91271623Y-29873697D01*
X91271621Y-29873701D01*
X91269975Y-29877118D01*
X91264143Y-29886399D01*
X91244709Y-29910769D01*
X91237773Y-29941155D01*
X91234153Y-29951502D01*
X91232507Y-29954919D01*
X91232507Y-29958711D01*
X91231279Y-29969613D01*
X91224344Y-29999999D01*
X90922682Y-29999999D01*
X90913301Y-29000000D01*
X91224344Y-29000000D01*
X91226067Y-29007547D01*
X91231279Y-29030384D01*
X91232507Y-29041287D01*
X91232507Y-29045076D01*
X91232507Y-29045077D01*
X91232508Y-29045079D01*
X91234150Y-29048488D01*
X91237775Y-29058845D01*
X91244710Y-29089231D01*
X91264140Y-29113595D01*
X91269978Y-29122886D01*
X91271622Y-29126300D01*
X91274586Y-29128664D01*
X91282343Y-29136421D01*
X91301776Y-29160788D01*
X91301777Y-29160789D01*
X91329851Y-29174309D01*
X91339139Y-29180144D01*
X91342105Y-29182509D01*
X91342108Y-29182511D01*
X91345805Y-29183354D01*
X91356153Y-29186975D01*
X91384237Y-29200500D01*
X91415402Y-29200500D01*
X91426306Y-29201728D01*
X91430000Y-29202572D01*
X91433693Y-29201728D01*
X91444598Y-29200500D01*
X91475763Y-29200500D01*
X91503847Y-29186975D01*
X91514194Y-29183354D01*
X91517892Y-29182511D01*
X91520861Y-29180142D01*
X91530143Y-29174311D01*
X91558224Y-29160788D01*
X91577658Y-29136418D01*
X91585414Y-29128663D01*
X91588377Y-29126301D01*
X91590023Y-29122882D01*
X91595854Y-29113602D01*
X91615290Y-29089231D01*
X91622227Y-29058837D01*
X91625847Y-29048493D01*
X91627493Y-29045076D01*
X91627948Y-29036886D01*
X91629096Y-29028739D01*
X91635656Y-29000000D01*
X91629097Y-28971265D01*
X91627948Y-28963111D01*
X91627493Y-28954924D01*
X91625850Y-28951512D01*
X91622225Y-28941155D01*
X91615290Y-28910769D01*
X91615289Y-28910767D01*
X91602316Y-28894500D01*
X91595855Y-28886399D01*
X91590022Y-28877115D01*
X91588377Y-28873699D01*
X91588374Y-28873697D01*
X91585410Y-28871333D01*
X91577655Y-28863577D01*
X91558223Y-28839211D01*
X91530144Y-28825688D01*
X91520856Y-28819852D01*
X91517895Y-28817491D01*
X91517893Y-28817490D01*
X91517892Y-28817489D01*
X91517890Y-28817488D01*
X91517889Y-28817488D01*
X91514195Y-28816645D01*
X91503841Y-28813021D01*
X91475767Y-28799501D01*
X91475764Y-28799500D01*
X91475763Y-28799500D01*
X91444596Y-28799500D01*
X91433694Y-28798272D01*
X91430000Y-28797429D01*
X91426306Y-28798272D01*
X91415404Y-28799500D01*
X91384235Y-28799500D01*
X91356161Y-28813021D01*
X91345805Y-28816645D01*
X91342110Y-28817488D01*
X91342104Y-28817491D01*
X91339142Y-28819853D01*
X91329859Y-28825686D01*
X91301774Y-28839212D01*
X91282341Y-28863579D01*
X91274594Y-28871328D01*
X91271623Y-28873697D01*
X91271621Y-28873701D01*
X91269975Y-28877118D01*
X91264143Y-28886399D01*
X91244709Y-28910769D01*
X91237773Y-28941155D01*
X91234153Y-28951502D01*
X91232507Y-28954919D01*
X91232507Y-28958711D01*
X91231279Y-28969613D01*
X91227074Y-28988038D01*
X91224344Y-29000000D01*
X90913301Y-29000000D01*
X90903920Y-28000000D01*
X91224344Y-28000000D01*
X91230898Y-28028715D01*
X91231279Y-28030384D01*
X91232507Y-28041287D01*
X91232507Y-28045076D01*
X91232507Y-28045077D01*
X91232508Y-28045079D01*
X91234150Y-28048488D01*
X91237775Y-28058845D01*
X91244710Y-28089231D01*
X91264140Y-28113595D01*
X91269978Y-28122886D01*
X91271622Y-28126300D01*
X91274586Y-28128664D01*
X91282343Y-28136421D01*
X91301776Y-28160788D01*
X91301777Y-28160789D01*
X91329851Y-28174309D01*
X91339139Y-28180144D01*
X91342105Y-28182509D01*
X91342108Y-28182511D01*
X91345805Y-28183354D01*
X91356153Y-28186975D01*
X91384237Y-28200500D01*
X91415402Y-28200500D01*
X91426306Y-28201728D01*
X91430000Y-28202572D01*
X91433693Y-28201728D01*
X91444598Y-28200500D01*
X91475763Y-28200500D01*
X91503847Y-28186975D01*
X91514194Y-28183354D01*
X91517892Y-28182511D01*
X91520861Y-28180142D01*
X91530143Y-28174311D01*
X91558224Y-28160788D01*
X91577658Y-28136418D01*
X91585414Y-28128663D01*
X91588377Y-28126301D01*
X91590023Y-28122882D01*
X91595854Y-28113602D01*
X91615290Y-28089231D01*
X91622227Y-28058837D01*
X91625847Y-28048493D01*
X91627493Y-28045076D01*
X91627948Y-28036886D01*
X91629096Y-28028739D01*
X91635656Y-28000000D01*
X91629097Y-27971265D01*
X91627948Y-27963111D01*
X91627493Y-27954924D01*
X91625850Y-27951512D01*
X91622225Y-27941155D01*
X91615290Y-27910769D01*
X91615289Y-27910767D01*
X91595858Y-27886403D01*
X91590022Y-27877115D01*
X91588377Y-27873699D01*
X91588374Y-27873697D01*
X91585410Y-27871333D01*
X91577655Y-27863577D01*
X91558562Y-27839636D01*
X91558224Y-27839212D01*
X91558223Y-27839211D01*
X91530144Y-27825688D01*
X91520856Y-27819852D01*
X91517895Y-27817491D01*
X91517893Y-27817490D01*
X91517892Y-27817489D01*
X91517890Y-27817488D01*
X91517889Y-27817488D01*
X91514195Y-27816645D01*
X91503841Y-27813021D01*
X91475767Y-27799501D01*
X91475764Y-27799500D01*
X91475763Y-27799500D01*
X91444596Y-27799500D01*
X91433694Y-27798272D01*
X91430000Y-27797429D01*
X91426306Y-27798272D01*
X91415404Y-27799500D01*
X91384235Y-27799500D01*
X91356161Y-27813021D01*
X91345805Y-27816645D01*
X91342110Y-27817488D01*
X91342104Y-27817491D01*
X91339142Y-27819853D01*
X91329859Y-27825686D01*
X91301774Y-27839212D01*
X91282341Y-27863579D01*
X91274594Y-27871328D01*
X91271623Y-27873697D01*
X91271621Y-27873701D01*
X91269975Y-27877118D01*
X91264143Y-27886399D01*
X91244709Y-27910769D01*
X91237773Y-27941155D01*
X91234153Y-27951502D01*
X91232507Y-27954919D01*
X91232507Y-27958711D01*
X91231279Y-27969613D01*
X91224344Y-27999999D01*
X91224344Y-28000000D01*
X90903920Y-28000000D01*
X90900501Y-27635512D01*
X90900500Y-27635054D01*
X90900500Y-26999999D01*
X91224344Y-26999999D01*
X91231279Y-27030384D01*
X91232507Y-27041287D01*
X91232507Y-27045076D01*
X91232507Y-27045077D01*
X91232508Y-27045079D01*
X91234150Y-27048488D01*
X91237775Y-27058845D01*
X91244710Y-27089231D01*
X91264140Y-27113595D01*
X91269978Y-27122886D01*
X91271622Y-27126300D01*
X91274586Y-27128664D01*
X91282343Y-27136421D01*
X91301776Y-27160788D01*
X91301777Y-27160789D01*
X91329851Y-27174309D01*
X91339139Y-27180144D01*
X91342105Y-27182509D01*
X91342108Y-27182511D01*
X91345805Y-27183354D01*
X91356153Y-27186975D01*
X91384237Y-27200500D01*
X91415402Y-27200500D01*
X91426306Y-27201728D01*
X91430000Y-27202572D01*
X91433693Y-27201728D01*
X91444598Y-27200500D01*
X91475763Y-27200500D01*
X91503847Y-27186975D01*
X91514194Y-27183354D01*
X91517892Y-27182511D01*
X91520861Y-27180142D01*
X91530143Y-27174311D01*
X91558224Y-27160788D01*
X91577658Y-27136418D01*
X91585414Y-27128663D01*
X91588377Y-27126301D01*
X91590023Y-27122882D01*
X91595854Y-27113602D01*
X91615290Y-27089231D01*
X91622227Y-27058837D01*
X91625847Y-27048493D01*
X91627493Y-27045076D01*
X91627948Y-27036886D01*
X91629096Y-27028739D01*
X91635656Y-27000000D01*
X91629097Y-26971265D01*
X91627948Y-26963111D01*
X91627493Y-26954924D01*
X91625850Y-26951512D01*
X91622225Y-26941155D01*
X91615290Y-26910769D01*
X91615289Y-26910767D01*
X91595858Y-26886403D01*
X91590022Y-26877115D01*
X91588377Y-26873699D01*
X91588374Y-26873697D01*
X91585410Y-26871333D01*
X91577655Y-26863577D01*
X91558852Y-26840000D01*
X92409479Y-26840000D01*
X92429412Y-26953047D01*
X92486804Y-27052452D01*
X92486806Y-27052455D01*
X92574738Y-27126240D01*
X92581396Y-27128663D01*
X92597264Y-27134438D01*
X92624914Y-27159773D01*
X92629506Y-27180483D01*
X92629506Y-27196476D01*
X92636626Y-27232270D01*
X92659344Y-27346488D01*
X92659344Y-27346489D01*
X92717876Y-27487801D01*
X92802844Y-27614969D01*
X92802848Y-27614974D01*
X92856921Y-27669051D01*
X92856922Y-27669051D01*
X92856923Y-27669052D01*
X92875964Y-27688093D01*
X92875965Y-27688093D01*
X92882856Y-27694984D01*
X92882855Y-27694984D01*
X92882857Y-27694985D01*
X92985094Y-27797222D01*
X93001867Y-27813996D01*
X93006080Y-27818799D01*
X93013972Y-27829083D01*
X93020368Y-27840163D01*
X93024080Y-27849126D01*
X93027389Y-27861476D01*
X93029080Y-27874314D01*
X93029500Y-27880713D01*
X93029500Y-28001759D01*
X93047740Y-28093457D01*
X93047742Y-28093464D01*
X93083527Y-28179856D01*
X93083527Y-28179857D01*
X93135472Y-28257600D01*
X93135476Y-28257604D01*
X93135477Y-28257605D01*
X93154491Y-28276618D01*
X93154495Y-28276623D01*
X93161643Y-28283771D01*
X93161644Y-28283773D01*
X93168537Y-28290665D01*
X93168537Y-28290666D01*
X93187578Y-28309706D01*
X93187579Y-28309707D01*
X93207095Y-28329223D01*
X93207100Y-28329229D01*
X93209893Y-28332022D01*
X93209894Y-28332023D01*
X93227239Y-28349367D01*
X93230460Y-28352921D01*
X93285558Y-28420059D01*
X93290889Y-28428037D01*
X93330691Y-28502502D01*
X93334366Y-28511377D01*
X93358872Y-28592167D01*
X93360746Y-28601588D01*
X93369264Y-28688088D01*
X93369500Y-28692890D01*
X93369500Y-28826205D01*
X93369516Y-28826425D01*
X93369514Y-28872031D01*
X93369514Y-28872032D01*
X93395016Y-29000280D01*
X93395017Y-29000283D01*
X93445053Y-29121098D01*
X93466443Y-29153112D01*
X93474700Y-29180333D01*
X93474700Y-29348158D01*
X93474701Y-29348162D01*
X93480270Y-29376164D01*
X93481981Y-29384768D01*
X93481983Y-29384772D01*
X93509719Y-29426282D01*
X93551230Y-29454018D01*
X93551232Y-29454019D01*
X93587837Y-29461300D01*
X93762562Y-29461299D01*
X93799168Y-29454019D01*
X93840681Y-29426281D01*
X93868419Y-29384768D01*
X93875700Y-29348163D01*
X93875699Y-29173438D01*
X93868419Y-29136832D01*
X93868144Y-29136421D01*
X93840680Y-29095317D01*
X93799169Y-29067581D01*
X93790016Y-29065760D01*
X93762563Y-29060300D01*
X93762560Y-29060300D01*
X93676007Y-29060300D01*
X93641359Y-29045948D01*
X93632792Y-29034398D01*
X93630647Y-29030384D01*
X93614407Y-29000000D01*
X95114344Y-29000000D01*
X95116067Y-29007547D01*
X95121279Y-29030384D01*
X95122507Y-29041287D01*
X95122507Y-29045076D01*
X95122507Y-29045077D01*
X95122508Y-29045079D01*
X95124150Y-29048488D01*
X95127775Y-29058845D01*
X95134710Y-29089231D01*
X95154140Y-29113595D01*
X95159978Y-29122886D01*
X95161622Y-29126300D01*
X95164586Y-29128664D01*
X95172343Y-29136421D01*
X95191776Y-29160788D01*
X95191777Y-29160789D01*
X95219851Y-29174309D01*
X95229139Y-29180144D01*
X95232105Y-29182509D01*
X95232108Y-29182511D01*
X95235805Y-29183354D01*
X95246153Y-29186975D01*
X95274237Y-29200500D01*
X95305402Y-29200500D01*
X95316306Y-29201728D01*
X95320000Y-29202572D01*
X95323693Y-29201728D01*
X95334598Y-29200500D01*
X95365763Y-29200500D01*
X95393847Y-29186975D01*
X95404194Y-29183354D01*
X95407892Y-29182511D01*
X95410861Y-29180142D01*
X95420143Y-29174311D01*
X95448224Y-29160788D01*
X95467658Y-29136418D01*
X95475414Y-29128663D01*
X95478377Y-29126301D01*
X95480023Y-29122882D01*
X95485854Y-29113602D01*
X95505290Y-29089231D01*
X95512227Y-29058837D01*
X95515847Y-29048493D01*
X95517493Y-29045076D01*
X95517948Y-29036886D01*
X95519096Y-29028739D01*
X95525656Y-29000000D01*
X95519097Y-28971265D01*
X95517948Y-28963111D01*
X95517493Y-28954924D01*
X95515850Y-28951512D01*
X95512225Y-28941155D01*
X95505290Y-28910769D01*
X95505289Y-28910767D01*
X95492316Y-28894500D01*
X95485855Y-28886399D01*
X95480022Y-28877115D01*
X95478377Y-28873699D01*
X95478374Y-28873697D01*
X95475410Y-28871333D01*
X95467655Y-28863577D01*
X95448223Y-28839211D01*
X95420144Y-28825688D01*
X95410856Y-28819852D01*
X95407895Y-28817491D01*
X95407893Y-28817490D01*
X95407892Y-28817489D01*
X95407890Y-28817488D01*
X95407889Y-28817488D01*
X95404195Y-28816645D01*
X95393841Y-28813021D01*
X95365767Y-28799501D01*
X95365764Y-28799500D01*
X95365763Y-28799500D01*
X95334596Y-28799500D01*
X95323694Y-28798272D01*
X95320000Y-28797429D01*
X95316306Y-28798272D01*
X95305404Y-28799500D01*
X95274235Y-28799500D01*
X95246161Y-28813021D01*
X95235805Y-28816645D01*
X95232110Y-28817488D01*
X95232104Y-28817491D01*
X95229142Y-28819853D01*
X95219859Y-28825686D01*
X95191774Y-28839212D01*
X95172341Y-28863579D01*
X95164594Y-28871328D01*
X95161623Y-28873697D01*
X95161621Y-28873701D01*
X95159975Y-28877118D01*
X95154143Y-28886399D01*
X95134709Y-28910769D01*
X95127773Y-28941155D01*
X95124153Y-28951502D01*
X95122507Y-28954919D01*
X95122507Y-28958711D01*
X95121279Y-28969613D01*
X95117074Y-28988038D01*
X95114344Y-29000000D01*
X93614407Y-29000000D01*
X93608008Y-28988027D01*
X93604340Y-28979168D01*
X93580806Y-28901572D01*
X93578933Y-28892150D01*
X93570736Y-28808863D01*
X93570500Y-28804061D01*
X93570502Y-28779733D01*
X93570500Y-28779730D01*
X93570501Y-28774039D01*
X93570500Y-28774021D01*
X93570500Y-28670590D01*
X93570493Y-28670504D01*
X93570495Y-28623354D01*
X93544331Y-28491802D01*
X93517923Y-28428046D01*
X93493003Y-28367881D01*
X93418486Y-28256358D01*
X93371064Y-28208936D01*
X93352023Y-28189894D01*
X93352022Y-28189893D01*
X93349229Y-28187100D01*
X93349223Y-28187095D01*
X93322917Y-28160789D01*
X93322916Y-28160787D01*
X93312935Y-28150805D01*
X93308715Y-28145994D01*
X93271093Y-28096965D01*
X93264699Y-28085889D01*
X93249209Y-28048493D01*
X93242294Y-28031799D01*
X93238984Y-28019444D01*
X93236424Y-28000000D01*
X95114344Y-28000000D01*
X95120898Y-28028715D01*
X95121279Y-28030384D01*
X95122507Y-28041287D01*
X95122507Y-28045076D01*
X95122507Y-28045077D01*
X95122508Y-28045079D01*
X95124150Y-28048488D01*
X95127775Y-28058845D01*
X95134710Y-28089231D01*
X95154140Y-28113595D01*
X95159978Y-28122886D01*
X95161622Y-28126300D01*
X95164586Y-28128664D01*
X95172343Y-28136421D01*
X95191776Y-28160788D01*
X95191777Y-28160789D01*
X95219851Y-28174309D01*
X95229139Y-28180144D01*
X95232105Y-28182509D01*
X95232108Y-28182511D01*
X95235805Y-28183354D01*
X95246153Y-28186975D01*
X95274237Y-28200500D01*
X95305402Y-28200500D01*
X95316306Y-28201728D01*
X95320000Y-28202572D01*
X95323693Y-28201728D01*
X95334598Y-28200500D01*
X95365763Y-28200500D01*
X95393847Y-28186975D01*
X95404194Y-28183354D01*
X95407892Y-28182511D01*
X95410861Y-28180142D01*
X95420143Y-28174311D01*
X95448224Y-28160788D01*
X95467658Y-28136418D01*
X95475414Y-28128663D01*
X95478377Y-28126301D01*
X95480023Y-28122882D01*
X95485854Y-28113602D01*
X95505290Y-28089231D01*
X95512227Y-28058837D01*
X95515847Y-28048493D01*
X95517493Y-28045076D01*
X95517948Y-28036886D01*
X95519096Y-28028739D01*
X95525656Y-28000000D01*
X95519097Y-27971265D01*
X95517948Y-27963111D01*
X95517493Y-27954924D01*
X95515850Y-27951512D01*
X95512225Y-27941155D01*
X95505290Y-27910769D01*
X95505289Y-27910767D01*
X95485858Y-27886403D01*
X95480022Y-27877115D01*
X95478377Y-27873699D01*
X95478374Y-27873697D01*
X95475410Y-27871333D01*
X95467655Y-27863577D01*
X95448562Y-27839636D01*
X95448224Y-27839212D01*
X95448223Y-27839211D01*
X95420144Y-27825688D01*
X95410856Y-27819852D01*
X95407895Y-27817491D01*
X95407893Y-27817490D01*
X95407892Y-27817489D01*
X95407890Y-27817488D01*
X95407889Y-27817488D01*
X95404195Y-27816645D01*
X95393841Y-27813021D01*
X95365767Y-27799501D01*
X95365764Y-27799500D01*
X95365763Y-27799500D01*
X95334596Y-27799500D01*
X95323694Y-27798272D01*
X95320000Y-27797429D01*
X95316306Y-27798272D01*
X95305404Y-27799500D01*
X95274235Y-27799500D01*
X95246161Y-27813021D01*
X95235805Y-27816645D01*
X95232110Y-27817488D01*
X95232104Y-27817491D01*
X95229142Y-27819853D01*
X95219859Y-27825686D01*
X95191774Y-27839212D01*
X95172341Y-27863579D01*
X95164594Y-27871328D01*
X95161623Y-27873697D01*
X95161621Y-27873701D01*
X95159975Y-27877118D01*
X95154143Y-27886399D01*
X95134709Y-27910769D01*
X95127773Y-27941155D01*
X95124153Y-27951502D01*
X95122507Y-27954919D01*
X95122507Y-27958711D01*
X95121279Y-27969613D01*
X95114344Y-27999999D01*
X95114344Y-28000000D01*
X93236424Y-28000000D01*
X93230919Y-27958181D01*
X93230500Y-27951786D01*
X93230500Y-27839634D01*
X93210900Y-27766490D01*
X93210899Y-27766486D01*
X93173039Y-27700913D01*
X93173038Y-27700912D01*
X93173036Y-27700908D01*
X93169413Y-27697285D01*
X93169411Y-27697281D01*
X93127221Y-27655093D01*
X93008573Y-27536445D01*
X93000760Y-27528631D01*
X92997532Y-27525070D01*
X92930548Y-27443447D01*
X92925214Y-27435464D01*
X92876583Y-27344479D01*
X92872909Y-27335608D01*
X92842964Y-27236887D01*
X92841090Y-27227467D01*
X92837413Y-27190132D01*
X92848300Y-27154244D01*
X92869415Y-27139286D01*
X92905261Y-27126240D01*
X92993194Y-27052455D01*
X93023479Y-26999999D01*
X95114344Y-26999999D01*
X95121279Y-27030384D01*
X95122507Y-27041287D01*
X95122507Y-27045076D01*
X95122507Y-27045077D01*
X95122508Y-27045079D01*
X95124150Y-27048488D01*
X95127775Y-27058845D01*
X95134710Y-27089231D01*
X95154140Y-27113595D01*
X95159978Y-27122886D01*
X95161622Y-27126300D01*
X95164586Y-27128664D01*
X95172343Y-27136421D01*
X95191776Y-27160788D01*
X95191777Y-27160789D01*
X95219851Y-27174309D01*
X95229139Y-27180144D01*
X95232105Y-27182509D01*
X95232108Y-27182511D01*
X95235805Y-27183354D01*
X95246153Y-27186975D01*
X95274237Y-27200500D01*
X95305402Y-27200500D01*
X95316306Y-27201728D01*
X95320000Y-27202572D01*
X95323693Y-27201728D01*
X95334598Y-27200500D01*
X95365763Y-27200500D01*
X95393847Y-27186975D01*
X95404194Y-27183354D01*
X95407892Y-27182511D01*
X95410861Y-27180142D01*
X95420143Y-27174311D01*
X95448224Y-27160788D01*
X95467658Y-27136418D01*
X95475414Y-27128663D01*
X95478377Y-27126301D01*
X95480023Y-27122882D01*
X95485854Y-27113602D01*
X95505290Y-27089231D01*
X95512227Y-27058837D01*
X95515847Y-27048493D01*
X95517493Y-27045076D01*
X95517948Y-27036886D01*
X95519096Y-27028739D01*
X95525656Y-27000000D01*
X95519097Y-26971265D01*
X95517948Y-26963111D01*
X95517493Y-26954924D01*
X95515850Y-26951512D01*
X95512225Y-26941155D01*
X95505290Y-26910769D01*
X95505289Y-26910767D01*
X95485858Y-26886403D01*
X95480022Y-26877115D01*
X95478377Y-26873699D01*
X95478374Y-26873697D01*
X95475410Y-26871333D01*
X95467655Y-26863577D01*
X95448223Y-26839211D01*
X95420144Y-26825688D01*
X95410856Y-26819852D01*
X95407895Y-26817491D01*
X95407893Y-26817490D01*
X95407892Y-26817489D01*
X95407890Y-26817488D01*
X95407889Y-26817488D01*
X95404195Y-26816645D01*
X95393841Y-26813021D01*
X95365767Y-26799501D01*
X95365764Y-26799500D01*
X95365763Y-26799500D01*
X95334596Y-26799500D01*
X95323694Y-26798272D01*
X95320000Y-26797429D01*
X95316306Y-26798272D01*
X95305404Y-26799500D01*
X95274235Y-26799500D01*
X95246161Y-26813021D01*
X95235805Y-26816645D01*
X95232110Y-26817488D01*
X95232104Y-26817491D01*
X95229142Y-26819853D01*
X95219859Y-26825686D01*
X95191774Y-26839212D01*
X95172341Y-26863579D01*
X95164594Y-26871328D01*
X95161623Y-26873697D01*
X95161621Y-26873701D01*
X95159975Y-26877118D01*
X95154143Y-26886399D01*
X95134709Y-26910769D01*
X95127773Y-26941155D01*
X95124153Y-26951502D01*
X95122507Y-26954919D01*
X95122507Y-26958711D01*
X95121279Y-26969613D01*
X95114344Y-26999999D01*
X93023479Y-26999999D01*
X93050588Y-26953045D01*
X93070521Y-26840000D01*
X93050588Y-26726955D01*
X93050587Y-26726953D01*
X93050587Y-26726952D01*
X92993195Y-26627547D01*
X92993194Y-26627545D01*
X92905261Y-26553760D01*
X92797394Y-26514500D01*
X92682606Y-26514500D01*
X92574737Y-26553760D01*
X92486808Y-26627541D01*
X92486804Y-26627546D01*
X92429412Y-26726952D01*
X92409479Y-26840000D01*
X91558852Y-26840000D01*
X91558223Y-26839211D01*
X91530144Y-26825688D01*
X91520856Y-26819852D01*
X91517895Y-26817491D01*
X91517893Y-26817490D01*
X91517892Y-26817489D01*
X91517890Y-26817488D01*
X91517889Y-26817488D01*
X91514195Y-26816645D01*
X91503841Y-26813021D01*
X91475767Y-26799501D01*
X91475764Y-26799500D01*
X91475763Y-26799500D01*
X91444596Y-26799500D01*
X91433694Y-26798272D01*
X91430000Y-26797429D01*
X91426306Y-26798272D01*
X91415404Y-26799500D01*
X91384235Y-26799500D01*
X91356161Y-26813021D01*
X91345805Y-26816645D01*
X91342110Y-26817488D01*
X91342104Y-26817491D01*
X91339142Y-26819853D01*
X91329859Y-26825686D01*
X91301774Y-26839212D01*
X91282341Y-26863579D01*
X91274594Y-26871328D01*
X91271623Y-26873697D01*
X91271621Y-26873701D01*
X91269975Y-26877118D01*
X91264143Y-26886399D01*
X91244709Y-26910769D01*
X91237773Y-26941155D01*
X91234153Y-26951502D01*
X91232507Y-26954919D01*
X91232507Y-26958711D01*
X91231279Y-26969613D01*
X91224344Y-26999999D01*
X90900500Y-26999999D01*
X90900500Y-25999999D01*
X91224344Y-25999999D01*
X91231279Y-26030384D01*
X91232507Y-26041287D01*
X91232507Y-26045076D01*
X91232507Y-26045077D01*
X91232508Y-26045079D01*
X91234150Y-26048488D01*
X91237775Y-26058845D01*
X91244710Y-26089231D01*
X91264140Y-26113595D01*
X91269978Y-26122886D01*
X91271622Y-26126300D01*
X91274586Y-26128664D01*
X91282343Y-26136421D01*
X91301776Y-26160788D01*
X91301777Y-26160789D01*
X91329851Y-26174309D01*
X91339139Y-26180144D01*
X91342105Y-26182509D01*
X91342108Y-26182511D01*
X91345805Y-26183354D01*
X91356153Y-26186975D01*
X91384237Y-26200500D01*
X91415402Y-26200500D01*
X91426306Y-26201728D01*
X91430000Y-26202572D01*
X91433693Y-26201728D01*
X91444598Y-26200500D01*
X91475763Y-26200500D01*
X91503847Y-26186975D01*
X91514194Y-26183354D01*
X91517892Y-26182511D01*
X91520861Y-26180142D01*
X91530143Y-26174311D01*
X91558224Y-26160788D01*
X91577658Y-26136418D01*
X91585414Y-26128663D01*
X91588377Y-26126301D01*
X91590023Y-26122882D01*
X91595854Y-26113602D01*
X91615290Y-26089231D01*
X91622227Y-26058837D01*
X91625847Y-26048493D01*
X91627493Y-26045076D01*
X91627948Y-26036886D01*
X91629096Y-26028739D01*
X91635656Y-26000000D01*
X91635656Y-25999999D01*
X95114344Y-25999999D01*
X95121279Y-26030384D01*
X95122507Y-26041287D01*
X95122507Y-26045076D01*
X95122507Y-26045077D01*
X95122508Y-26045079D01*
X95124150Y-26048488D01*
X95127775Y-26058845D01*
X95134710Y-26089231D01*
X95154140Y-26113595D01*
X95159978Y-26122886D01*
X95161622Y-26126300D01*
X95164586Y-26128664D01*
X95172343Y-26136421D01*
X95191776Y-26160788D01*
X95191777Y-26160789D01*
X95219851Y-26174309D01*
X95229139Y-26180144D01*
X95232105Y-26182509D01*
X95232108Y-26182511D01*
X95235805Y-26183354D01*
X95246153Y-26186975D01*
X95274237Y-26200500D01*
X95305402Y-26200500D01*
X95316306Y-26201728D01*
X95320000Y-26202572D01*
X95323693Y-26201728D01*
X95334598Y-26200500D01*
X95365763Y-26200500D01*
X95393847Y-26186975D01*
X95404194Y-26183354D01*
X95407892Y-26182511D01*
X95410861Y-26180142D01*
X95420143Y-26174311D01*
X95448224Y-26160788D01*
X95467658Y-26136418D01*
X95475414Y-26128663D01*
X95478377Y-26126301D01*
X95480023Y-26122882D01*
X95485854Y-26113602D01*
X95505290Y-26089231D01*
X95512227Y-26058837D01*
X95515847Y-26048493D01*
X95517493Y-26045076D01*
X95517948Y-26036886D01*
X95519096Y-26028739D01*
X95525656Y-26000000D01*
X95519097Y-25971265D01*
X95517948Y-25963111D01*
X95517493Y-25954924D01*
X95515850Y-25951512D01*
X95512225Y-25941155D01*
X95505290Y-25910769D01*
X95505289Y-25910767D01*
X95485858Y-25886403D01*
X95480022Y-25877115D01*
X95478377Y-25873699D01*
X95478374Y-25873697D01*
X95475410Y-25871333D01*
X95467655Y-25863577D01*
X95448223Y-25839211D01*
X95420144Y-25825688D01*
X95410856Y-25819852D01*
X95407895Y-25817491D01*
X95407893Y-25817490D01*
X95407892Y-25817489D01*
X95407890Y-25817488D01*
X95407889Y-25817488D01*
X95404195Y-25816645D01*
X95393841Y-25813021D01*
X95365767Y-25799501D01*
X95365764Y-25799500D01*
X95365763Y-25799500D01*
X95334596Y-25799500D01*
X95323694Y-25798272D01*
X95320000Y-25797429D01*
X95316306Y-25798272D01*
X95305404Y-25799500D01*
X95274235Y-25799500D01*
X95246161Y-25813021D01*
X95235805Y-25816645D01*
X95232110Y-25817488D01*
X95232104Y-25817491D01*
X95229142Y-25819853D01*
X95219859Y-25825686D01*
X95191774Y-25839212D01*
X95172341Y-25863579D01*
X95164594Y-25871328D01*
X95161623Y-25873697D01*
X95161621Y-25873701D01*
X95159975Y-25877118D01*
X95154143Y-25886399D01*
X95134709Y-25910769D01*
X95127773Y-25941155D01*
X95124153Y-25951502D01*
X95122507Y-25954919D01*
X95122507Y-25958711D01*
X95121279Y-25969613D01*
X95114344Y-25999999D01*
X91635656Y-25999999D01*
X91629097Y-25971265D01*
X91627948Y-25963111D01*
X91627493Y-25954924D01*
X91625850Y-25951512D01*
X91622225Y-25941155D01*
X91615290Y-25910769D01*
X91615289Y-25910767D01*
X91595858Y-25886403D01*
X91590022Y-25877115D01*
X91588377Y-25873699D01*
X91588374Y-25873697D01*
X91585410Y-25871333D01*
X91577655Y-25863577D01*
X91558223Y-25839211D01*
X91530144Y-25825688D01*
X91520856Y-25819852D01*
X91517895Y-25817491D01*
X91517893Y-25817490D01*
X91517892Y-25817489D01*
X91517890Y-25817488D01*
X91517889Y-25817488D01*
X91514195Y-25816645D01*
X91503841Y-25813021D01*
X91475767Y-25799501D01*
X91475764Y-25799500D01*
X91475763Y-25799500D01*
X91444596Y-25799500D01*
X91433694Y-25798272D01*
X91430000Y-25797429D01*
X91426306Y-25798272D01*
X91415404Y-25799500D01*
X91384235Y-25799500D01*
X91356161Y-25813021D01*
X91345805Y-25816645D01*
X91342110Y-25817488D01*
X91342104Y-25817491D01*
X91339142Y-25819853D01*
X91329859Y-25825686D01*
X91301774Y-25839212D01*
X91282341Y-25863579D01*
X91274594Y-25871328D01*
X91271623Y-25873697D01*
X91271621Y-25873701D01*
X91269975Y-25877118D01*
X91264143Y-25886399D01*
X91244709Y-25910769D01*
X91237773Y-25941155D01*
X91234153Y-25951502D01*
X91232507Y-25954919D01*
X91232507Y-25958711D01*
X91231279Y-25969613D01*
X91224344Y-25999999D01*
X90900500Y-25999999D01*
X90900500Y-25793857D01*
X90901103Y-25786196D01*
X90902006Y-25780492D01*
X90902304Y-25778608D01*
X90902632Y-25776767D01*
X90919865Y-25690127D01*
X90924257Y-25677461D01*
X90938158Y-25650180D01*
X90941043Y-25645257D01*
X90975851Y-25593164D01*
X90981926Y-25585762D01*
X91005762Y-25561926D01*
X91013164Y-25555851D01*
X91065257Y-25521043D01*
X91070180Y-25518158D01*
X91097461Y-25504257D01*
X91110127Y-25499865D01*
X91196768Y-25482631D01*
X91198566Y-25482310D01*
X91206200Y-25481101D01*
X91213858Y-25480500D01*
X95300129Y-25480500D01*
X95300932Y-25480507D01*
G37*
G04 #@! TD.AperFunction*
M02*
