G04 #@! TF.GenerationSoftware,KiCad,Pcbnew,7.0.10*
G04 #@! TF.CreationDate,2025-04-07T09:25:40-04:00*
G04 #@! TF.ProjectId,nerve_cuff_z,6e657276-655f-4637-9566-665f7a2e6b69,rev?*
G04 #@! TF.SameCoordinates,Original*
G04 #@! TF.FileFunction,Copper,L1,Top*
G04 #@! TF.FilePolarity,Positive*
%FSLAX46Y46*%
G04 Gerber Fmt 4.6, Leading zero omitted, Abs format (unit mm)*
G04 Created by KiCad (PCBNEW 7.0.10) date 2025-04-07 09:25:40*
%MOMM*%
%LPD*%
G01*
G04 APERTURE LIST*
G04 Aperture macros list*
%AMRoundRect*
0 Rectangle with rounded corners*
0 $1 Rounding radius*
0 $2 $3 $4 $5 $6 $7 $8 $9 X,Y pos of 4 corners*
0 Add a 4 corners polygon primitive as box body*
4,1,4,$2,$3,$4,$5,$6,$7,$8,$9,$2,$3,0*
0 Add four circle primitives for the rounded corners*
1,1,$1+$1,$2,$3*
1,1,$1+$1,$4,$5*
1,1,$1+$1,$6,$7*
1,1,$1+$1,$8,$9*
0 Add four rect primitives between the rounded corners*
20,1,$1+$1,$2,$3,$4,$5,0*
20,1,$1+$1,$4,$5,$6,$7,0*
20,1,$1+$1,$6,$7,$8,$9,0*
20,1,$1+$1,$8,$9,$2,$3,0*%
G04 Aperture macros list end*
G04 #@! TA.AperFunction,ComponentPad*
%ADD10RoundRect,0.062500X-0.137500X-0.137500X0.137500X-0.137500X0.137500X0.137500X-0.137500X0.137500X0*%
G04 #@! TD*
G04 #@! TA.AperFunction,Conductor*
%ADD11C,0.100000*%
G04 #@! TD*
G04 APERTURE END LIST*
D10*
X103370000Y-70210000D03*
X103440000Y-65320000D03*
X100580000Y-66390000D03*
X100610000Y-69080000D03*
D11*
X100245355Y-70230000D02*
X103510000Y-70230000D01*
X100256529Y-65320000D02*
X100255861Y-65320668D01*
X103780000Y-68882218D02*
X103780000Y-66708293D01*
X103121336Y-65320000D02*
X100256529Y-65320000D01*
X100160000Y-65439497D02*
X100160000Y-70144644D01*
X103592218Y-69070000D02*
X100590000Y-69070000D01*
X103121336Y-65320000D02*
X103440000Y-65320000D01*
X103120668Y-65320668D02*
X103121336Y-65320000D01*
X103461706Y-66390000D02*
X100580000Y-66390000D01*
X103724995Y-69014995D02*
G75*
G03*
X103780000Y-68882218I-132795J132795D01*
G01*
X103686772Y-66483228D02*
G75*
G03*
X103461706Y-66390000I-225072J-225072D01*
G01*
X100195001Y-65355001D02*
G75*
G03*
X100160000Y-65439497I84499J-84499D01*
G01*
X103592218Y-69070007D02*
G75*
G03*
X103725000Y-69015000I-18J187807D01*
G01*
X100159982Y-70144644D02*
G75*
G03*
X100185000Y-70205000I85418J44D01*
G01*
X103780002Y-66708293D02*
G75*
G03*
X103686774Y-66483226I-318302J-7D01*
G01*
X100184984Y-70205016D02*
G75*
G03*
X100245355Y-70230000I60316J60316D01*
G01*
X100255863Y-65320675D02*
G75*
G03*
X100195000Y-65355000I37337J-137325D01*
G01*
G04 #@! TA.AperFunction,NonConductor*
G36*
X103681862Y-64870794D02*
G01*
X103753348Y-64882116D01*
X103760486Y-64884436D01*
X103800428Y-64904788D01*
X103823263Y-64916423D01*
X103829338Y-64920836D01*
X103879163Y-64970661D01*
X103883576Y-64976736D01*
X103915562Y-65039511D01*
X103917883Y-65046653D01*
X103929205Y-65118137D01*
X103929500Y-65121891D01*
X103929500Y-70458108D01*
X103929205Y-70461862D01*
X103917883Y-70533346D01*
X103915562Y-70540488D01*
X103883576Y-70603263D01*
X103879163Y-70609338D01*
X103829338Y-70659163D01*
X103823263Y-70663576D01*
X103760488Y-70695562D01*
X103753346Y-70697883D01*
X103681863Y-70709205D01*
X103678109Y-70709500D01*
X100261891Y-70709500D01*
X100258137Y-70709205D01*
X100186653Y-70697883D01*
X100179511Y-70695562D01*
X100116736Y-70663576D01*
X100110661Y-70659163D01*
X100060836Y-70609338D01*
X100056423Y-70603263D01*
X100024436Y-70540486D01*
X100022116Y-70533346D01*
X100010795Y-70461862D01*
X100010500Y-70458108D01*
X100010500Y-70134774D01*
X100059478Y-70134774D01*
X100059493Y-70169158D01*
X100072170Y-70216404D01*
X100092676Y-70251908D01*
X100094546Y-70256420D01*
X100094895Y-70257024D01*
X100095798Y-70257928D01*
X100095810Y-70257941D01*
X100102203Y-70264332D01*
X100102206Y-70264335D01*
X100106889Y-70269018D01*
X100106913Y-70269075D01*
X100132247Y-70294404D01*
X100132474Y-70294603D01*
X100132976Y-70295105D01*
X100133656Y-70295497D01*
X100138010Y-70297299D01*
X100173640Y-70317861D01*
X100220939Y-70330513D01*
X100220939Y-70330512D01*
X100220940Y-70330513D01*
X100245420Y-70330500D01*
X103095501Y-70330500D01*
X103112472Y-70337529D01*
X103119501Y-70354500D01*
X103119501Y-70358630D01*
X103126055Y-70391588D01*
X103126056Y-70391591D01*
X103150863Y-70428717D01*
X103151031Y-70428969D01*
X103169720Y-70441456D01*
X103188408Y-70453943D01*
X103188410Y-70453944D01*
X103221369Y-70460500D01*
X103518630Y-70460499D01*
X103551590Y-70453944D01*
X103588969Y-70428969D01*
X103613944Y-70391590D01*
X103620500Y-70358631D01*
X103620499Y-70061370D01*
X103613944Y-70028410D01*
X103588969Y-69991031D01*
X103588717Y-69990863D01*
X103551591Y-69966056D01*
X103551589Y-69966055D01*
X103518631Y-69959500D01*
X103221369Y-69959500D01*
X103188411Y-69966055D01*
X103188408Y-69966056D01*
X103151033Y-69991029D01*
X103151029Y-69991033D01*
X103126056Y-70028408D01*
X103126055Y-70028410D01*
X103119500Y-70061364D01*
X103119500Y-70105500D01*
X103112471Y-70122471D01*
X103095500Y-70129500D01*
X100284500Y-70129500D01*
X100267529Y-70122471D01*
X100260500Y-70105500D01*
X100260500Y-66538630D01*
X100329500Y-66538630D01*
X100336055Y-66571588D01*
X100336056Y-66571591D01*
X100354636Y-66599398D01*
X100361031Y-66608969D01*
X100379720Y-66621456D01*
X100398408Y-66633943D01*
X100398410Y-66633944D01*
X100431369Y-66640500D01*
X100728630Y-66640499D01*
X100761590Y-66633944D01*
X100798969Y-66608969D01*
X100823944Y-66571590D01*
X100830500Y-66538631D01*
X100830500Y-66514500D01*
X100837529Y-66497529D01*
X100854500Y-66490500D01*
X103460128Y-66490500D01*
X103463260Y-66490704D01*
X103514947Y-66497510D01*
X103520987Y-66499129D01*
X103567684Y-66518472D01*
X103573104Y-66521600D01*
X103613210Y-66552375D01*
X103617635Y-66556801D01*
X103628982Y-66571589D01*
X103648396Y-66596889D01*
X103651529Y-66602314D01*
X103670870Y-66649005D01*
X103672492Y-66655057D01*
X103679295Y-66706722D01*
X103679500Y-66709855D01*
X103679500Y-68880637D01*
X103679294Y-68883773D01*
X103676936Y-68901667D01*
X103675315Y-68907716D01*
X103669012Y-68922932D01*
X103665879Y-68928358D01*
X103655836Y-68941445D01*
X103651407Y-68945874D01*
X103638362Y-68955885D01*
X103632936Y-68959018D01*
X103617718Y-68965322D01*
X103611668Y-68966943D01*
X103596408Y-68968953D01*
X103593823Y-68969294D01*
X103590691Y-68969500D01*
X100884499Y-68969500D01*
X100867528Y-68962471D01*
X100860499Y-68945500D01*
X100860499Y-68931369D01*
X100855215Y-68904800D01*
X100853944Y-68898410D01*
X100853762Y-68898138D01*
X100828970Y-68861033D01*
X100828969Y-68861031D01*
X100820384Y-68855295D01*
X100791591Y-68836056D01*
X100791589Y-68836055D01*
X100758631Y-68829500D01*
X100461369Y-68829500D01*
X100428411Y-68836055D01*
X100428408Y-68836056D01*
X100391033Y-68861029D01*
X100391029Y-68861033D01*
X100366056Y-68898408D01*
X100366055Y-68898410D01*
X100359500Y-68931364D01*
X100359500Y-69228630D01*
X100366055Y-69261588D01*
X100366056Y-69261591D01*
X100390863Y-69298717D01*
X100391031Y-69298969D01*
X100409720Y-69311456D01*
X100428408Y-69323943D01*
X100428410Y-69323944D01*
X100461369Y-69330500D01*
X100758630Y-69330499D01*
X100791590Y-69323944D01*
X100828969Y-69298969D01*
X100853944Y-69261590D01*
X100860500Y-69228631D01*
X100860500Y-69194500D01*
X100867529Y-69177529D01*
X100884500Y-69170500D01*
X103561740Y-69170500D01*
X103561754Y-69170501D01*
X103565297Y-69170500D01*
X103565299Y-69170502D01*
X103582280Y-69170500D01*
X103582297Y-69170507D01*
X103592228Y-69170506D01*
X103592228Y-69170507D01*
X103630179Y-69170504D01*
X103703495Y-69150854D01*
X103769228Y-69112900D01*
X103773645Y-69108482D01*
X103773648Y-69108480D01*
X103777022Y-69105106D01*
X103777023Y-69105106D01*
X103796064Y-69086064D01*
X103815106Y-69067023D01*
X103815106Y-69067021D01*
X103817601Y-69064527D01*
X103817632Y-69064485D01*
X103822895Y-69059224D01*
X103860848Y-68993493D01*
X103880497Y-68920178D01*
X103880497Y-68901691D01*
X103880500Y-68901681D01*
X103880500Y-68882208D01*
X103880500Y-68880637D01*
X103880502Y-68855299D01*
X103880500Y-68855296D01*
X103880501Y-68852515D01*
X103880500Y-68852497D01*
X103880500Y-66718234D01*
X103880501Y-66718229D01*
X103880501Y-66708291D01*
X103880502Y-66708291D01*
X103880501Y-66667044D01*
X103880501Y-66667043D01*
X103864407Y-66586139D01*
X103864405Y-66586132D01*
X103832837Y-66509921D01*
X103787006Y-66441332D01*
X103787004Y-66441329D01*
X103776880Y-66431204D01*
X103757840Y-66412163D01*
X103757838Y-66412162D01*
X103738797Y-66393120D01*
X103738796Y-66393119D01*
X103736649Y-66390972D01*
X103736624Y-66390952D01*
X103728670Y-66382998D01*
X103728197Y-66382682D01*
X103660077Y-66337164D01*
X103583866Y-66305596D01*
X103583859Y-66305594D01*
X103502954Y-66289500D01*
X103477624Y-66289500D01*
X103477623Y-66289500D01*
X100854499Y-66289500D01*
X100837528Y-66282471D01*
X100830499Y-66265500D01*
X100830499Y-66241369D01*
X100823944Y-66208411D01*
X100823943Y-66208408D01*
X100798970Y-66171033D01*
X100798969Y-66171031D01*
X100798717Y-66170863D01*
X100761591Y-66146056D01*
X100761589Y-66146055D01*
X100728631Y-66139500D01*
X100431369Y-66139500D01*
X100398411Y-66146055D01*
X100398408Y-66146056D01*
X100361033Y-66171029D01*
X100361029Y-66171033D01*
X100336056Y-66208408D01*
X100336055Y-66208410D01*
X100329500Y-66241364D01*
X100329500Y-66538630D01*
X100260500Y-66538630D01*
X100260500Y-65445804D01*
X100267529Y-65428833D01*
X100273607Y-65424419D01*
X100276167Y-65423115D01*
X100287060Y-65420500D01*
X103105419Y-65420500D01*
X103106655Y-65420500D01*
X103110408Y-65420794D01*
X103137199Y-65425038D01*
X103140971Y-65423115D01*
X103151867Y-65420500D01*
X103165501Y-65420500D01*
X103182472Y-65427529D01*
X103189501Y-65444500D01*
X103189501Y-65468630D01*
X103196055Y-65501588D01*
X103196056Y-65501591D01*
X103220863Y-65538717D01*
X103221031Y-65538969D01*
X103239720Y-65551456D01*
X103258408Y-65563943D01*
X103258410Y-65563944D01*
X103291369Y-65570500D01*
X103588630Y-65570499D01*
X103621590Y-65563944D01*
X103658969Y-65538969D01*
X103683944Y-65501590D01*
X103690500Y-65468631D01*
X103690499Y-65171370D01*
X103683944Y-65138410D01*
X103658969Y-65101031D01*
X103658717Y-65100863D01*
X103621591Y-65076056D01*
X103621589Y-65076055D01*
X103588631Y-65069500D01*
X103291369Y-65069500D01*
X103258411Y-65076055D01*
X103258408Y-65076056D01*
X103221033Y-65101029D01*
X103221029Y-65101033D01*
X103196056Y-65138408D01*
X103196055Y-65138410D01*
X103189500Y-65171364D01*
X103189500Y-65195500D01*
X103182471Y-65212471D01*
X103165500Y-65219500D01*
X103131137Y-65219500D01*
X103127383Y-65219205D01*
X103119696Y-65217987D01*
X103104805Y-65215629D01*
X103104804Y-65215629D01*
X103103567Y-65216259D01*
X103102341Y-65216884D01*
X103091446Y-65219500D01*
X100269488Y-65219500D01*
X100263362Y-65218705D01*
X100255479Y-65216623D01*
X100252320Y-65216635D01*
X100252319Y-65216452D01*
X100247012Y-65216739D01*
X100239999Y-65215629D01*
X100239994Y-65215629D01*
X100220277Y-65225676D01*
X100215683Y-65227450D01*
X100210082Y-65228973D01*
X100208034Y-65229914D01*
X100205441Y-65230926D01*
X100194418Y-65234508D01*
X100191342Y-65236744D01*
X100190999Y-65236272D01*
X100186902Y-65239626D01*
X100173513Y-65245781D01*
X100173512Y-65245782D01*
X100150241Y-65261571D01*
X100142986Y-65264891D01*
X100142980Y-65264892D01*
X100142977Y-65264894D01*
X100125006Y-65282864D01*
X100124598Y-65283262D01*
X100106011Y-65300984D01*
X100104336Y-65303115D01*
X100104411Y-65303173D01*
X100103457Y-65304415D01*
X100074493Y-65354582D01*
X100059500Y-65410532D01*
X100059500Y-70114635D01*
X100059484Y-70114760D01*
X100059494Y-70134734D01*
X100059478Y-70134774D01*
X100010500Y-70134774D01*
X100010500Y-65121891D01*
X100010795Y-65118137D01*
X100013504Y-65101031D01*
X100022117Y-65046649D01*
X100024435Y-65039515D01*
X100056425Y-64976732D01*
X100060833Y-64970664D01*
X100110664Y-64920833D01*
X100116732Y-64916425D01*
X100179515Y-64884435D01*
X100186649Y-64882117D01*
X100258137Y-64870794D01*
X100261891Y-64870500D01*
X100276408Y-64870500D01*
X103663592Y-64870500D01*
X103678109Y-64870500D01*
X103681862Y-64870794D01*
G37*
G04 #@! TD.AperFunction*
M02*
