G04 #@! TF.GenerationSoftware,KiCad,Pcbnew,7.0.10*
G04 #@! TF.CreationDate,2025-04-07T09:12:42-04:00*
G04 #@! TF.ProjectId,nerve_cuff_local-rounded,6e657276-655f-4637-9566-665f6c6f6361,rev?*
G04 #@! TF.SameCoordinates,Original*
G04 #@! TF.FileFunction,Profile,NP*
%FSLAX46Y46*%
G04 Gerber Fmt 4.6, Leading zero omitted, Abs format (unit mm)*
G04 Created by KiCad (PCBNEW 7.0.10) date 2025-04-07 09:12:42*
%MOMM*%
%LPD*%
G01*
G04 APERTURE LIST*
G04 #@! TA.AperFunction,Profile*
%ADD10C,0.050000*%
G04 #@! TD*
G04 #@! TA.AperFunction,Profile*
%ADD11C,0.100000*%
G04 #@! TD*
G04 APERTURE END LIST*
D10*
X131320000Y-68000000D02*
G75*
G03*
X131120000Y-68000000I-100000J0D01*
G01*
X131120000Y-68000000D02*
G75*
G03*
X131320000Y-68000000I100000J0D01*
G01*
D11*
X127280000Y-64390000D02*
X131310000Y-64390000D01*
X131310000Y-69700000D02*
G75*
G03*
X131610000Y-69400000I0J300000D01*
G01*
X131610000Y-64690000D02*
X131610000Y-69400000D01*
D10*
X127460000Y-69000000D02*
G75*
G03*
X127260000Y-69000000I-100000J0D01*
G01*
X127260000Y-69000000D02*
G75*
G03*
X127460000Y-69000000I100000J0D01*
G01*
D11*
X131610000Y-64690000D02*
G75*
G03*
X131310000Y-64390000I-300000J0D01*
G01*
X126980000Y-64690000D02*
X126980000Y-69400000D01*
X126980000Y-69400000D02*
G75*
G03*
X127280000Y-69700000I300000J0D01*
G01*
D10*
X131320000Y-69000000D02*
G75*
G03*
X131120000Y-69000000I-100000J0D01*
G01*
X131120000Y-69000000D02*
G75*
G03*
X131320000Y-69000000I100000J0D01*
G01*
X131320000Y-67000000D02*
G75*
G03*
X131120000Y-67000000I-100000J0D01*
G01*
X131120000Y-67000000D02*
G75*
G03*
X131320000Y-67000000I100000J0D01*
G01*
X127460000Y-67000000D02*
G75*
G03*
X127260000Y-67000000I-100000J0D01*
G01*
X127260000Y-67000000D02*
G75*
G03*
X127460000Y-67000000I100000J0D01*
G01*
X127460000Y-65010000D02*
G75*
G03*
X127260000Y-65010000I-100000J0D01*
G01*
X127260000Y-65010000D02*
G75*
G03*
X127460000Y-65010000I100000J0D01*
G01*
X127460000Y-68000000D02*
G75*
G03*
X127260000Y-68000000I-100000J0D01*
G01*
X127260000Y-68000000D02*
G75*
G03*
X127460000Y-68000000I100000J0D01*
G01*
D11*
X127280000Y-69700000D02*
X131310000Y-69700000D01*
X127280000Y-64390000D02*
G75*
G03*
X126980000Y-64690000I0J-300000D01*
G01*
D10*
X131320000Y-65000000D02*
G75*
G03*
X131120000Y-65000000I-100000J0D01*
G01*
X131120000Y-65000000D02*
G75*
G03*
X131320000Y-65000000I100000J0D01*
G01*
X127460000Y-66010000D02*
G75*
G03*
X127260000Y-66010000I-100000J0D01*
G01*
X127260000Y-66010000D02*
G75*
G03*
X127460000Y-66010000I100000J0D01*
G01*
X131320000Y-66000000D02*
G75*
G03*
X131120000Y-66000000I-100000J0D01*
G01*
X131120000Y-66000000D02*
G75*
G03*
X131320000Y-66000000I100000J0D01*
G01*
M02*
