G04 #@! TF.GenerationSoftware,KiCad,Pcbnew,7.0.10*
G04 #@! TF.CreationDate,2025-04-07T09:12:42-04:00*
G04 #@! TF.ProjectId,nerve_cuff_local-rounded,6e657276-655f-4637-9566-665f6c6f6361,rev?*
G04 #@! TF.SameCoordinates,Original*
G04 #@! TF.FileFunction,Copper,L2,Bot*
G04 #@! TF.FilePolarity,Positive*
%FSLAX46Y46*%
G04 Gerber Fmt 4.6, Leading zero omitted, Abs format (unit mm)*
G04 Created by KiCad (PCBNEW 7.0.10) date 2025-04-07 09:12:42*
%MOMM*%
%LPD*%
G01*
G04 APERTURE LIST*
G04 #@! TA.AperFunction,ViaPad*
%ADD10C,0.350000*%
G04 #@! TD*
G04 #@! TA.AperFunction,Conductor*
%ADD11C,0.100000*%
G04 #@! TD*
G04 APERTURE END LIST*
D10*
X130020000Y-65250000D03*
X127740000Y-65410000D03*
X130060000Y-67550000D03*
X128930000Y-68040000D03*
X128300000Y-68820000D03*
X128370000Y-65210000D03*
X129351955Y-65829695D03*
X130230000Y-68900000D03*
D11*
X127640000Y-69189791D02*
X127640000Y-68904350D01*
X128670000Y-66800000D02*
X128670000Y-66780000D01*
X128930000Y-68268076D02*
X128930000Y-68080000D01*
X129664999Y-68914999D02*
X129687573Y-68892426D01*
X128570000Y-66880000D02*
X128590000Y-66880000D01*
X127811923Y-67978075D02*
X127845753Y-67944246D01*
X129080000Y-69080000D02*
X129080000Y-69052500D01*
X130475252Y-64805251D02*
X130445000Y-64775000D01*
X129600000Y-69234644D02*
X129600000Y-69071923D01*
X128467781Y-64720000D02*
X128560000Y-64720000D01*
X128680000Y-64932248D02*
X128680000Y-65073431D01*
X130260502Y-69320000D02*
X129685355Y-69320000D01*
X128543431Y-65210000D02*
X128450000Y-65210000D01*
X128677677Y-64737677D02*
X128715000Y-64775000D01*
X129892426Y-68807573D02*
X129975000Y-68725000D01*
X129350000Y-65959087D02*
X129350000Y-65840000D01*
X129677849Y-66680000D02*
X129727148Y-66680000D01*
X128842426Y-68447573D02*
X128864999Y-68424999D01*
X128760000Y-69127279D02*
X128760000Y-69189289D01*
X130100000Y-68423223D02*
X130100000Y-68070000D01*
X127698555Y-65368555D02*
X127698555Y-65237694D01*
X129572500Y-69480000D02*
X130463431Y-69480000D01*
X130218077Y-65250000D02*
X130020000Y-65250000D01*
X130470000Y-64930000D02*
X130475252Y-64924748D01*
X129048180Y-68858180D02*
X129031590Y-68841590D01*
X129748550Y-66680000D02*
X129761981Y-66680000D01*
X130308195Y-68900000D02*
X130345132Y-68936937D01*
X130650000Y-69350000D02*
X130655000Y-69345000D01*
X128100000Y-67130000D02*
X128110000Y-67130000D01*
X128680000Y-64929497D02*
X128680000Y-64932248D01*
X130197121Y-64721656D02*
X130306998Y-64721656D01*
X130440000Y-65040000D02*
X130440000Y-65002426D01*
X130060000Y-67550000D02*
X130118432Y-67550000D01*
X128000000Y-67280502D02*
X128000000Y-67230000D01*
X128589289Y-69360000D02*
X128395000Y-69360000D01*
X128210000Y-67733431D02*
X128210000Y-67470000D01*
X129126066Y-64853933D02*
X129189999Y-64789999D01*
X128810000Y-65589289D02*
X128810000Y-65565000D01*
X130230000Y-68900000D02*
X130308195Y-68900000D01*
X127740000Y-65410000D02*
X127698555Y-65368555D01*
X129710152Y-66858638D02*
X129708790Y-66860000D01*
X130490000Y-68457781D02*
X130490000Y-68470000D01*
X128560000Y-64720000D02*
X128635000Y-64720000D01*
X128470000Y-66612928D02*
X128470000Y-66345000D01*
X129572500Y-69480000D02*
X129467500Y-69480000D01*
X129898550Y-66543431D02*
X129898550Y-66397781D01*
X130720000Y-69195147D02*
X130720000Y-68952634D01*
X128202218Y-69480000D02*
X127930208Y-69480000D01*
X127630000Y-65113431D02*
X127630000Y-64917279D01*
X130553639Y-68623639D02*
X130605000Y-68675000D01*
X127937279Y-64610000D02*
X128202218Y-64610000D01*
X130118432Y-67550000D02*
X130258432Y-67410000D01*
X130650000Y-69350000D02*
X130640000Y-69360000D01*
X130280000Y-67890000D02*
X130361005Y-67890000D01*
X128300000Y-68820000D02*
X128452720Y-68820000D01*
X129600180Y-66831630D02*
X129583550Y-66815000D01*
X130600000Y-68128994D02*
X130600000Y-68192218D01*
X127734999Y-68674999D02*
X127780502Y-68629497D01*
X129467500Y-69480000D02*
X129415000Y-69480000D01*
X130655000Y-69345000D02*
X130660000Y-69340000D01*
X129600416Y-64620000D02*
X129839289Y-64620000D01*
X129531374Y-66142824D02*
X129432796Y-66044246D01*
X128025000Y-67870000D02*
X128073431Y-67870000D01*
X130071727Y-67163682D02*
X129784886Y-66876841D01*
X129031590Y-68841590D02*
X128842426Y-68652426D01*
X129020000Y-65111507D02*
X129020000Y-65110000D01*
X127688365Y-65227172D02*
X127651506Y-65190313D01*
X128910000Y-65943933D02*
X128910000Y-65830710D01*
X128877175Y-65402824D02*
X128915000Y-65365000D01*
X130380000Y-69061923D02*
X130380000Y-69200502D01*
X130560000Y-69440000D02*
X130640000Y-69360000D01*
X130080710Y-64720000D02*
X130166862Y-64720000D01*
X128297781Y-67052218D02*
X128399289Y-66950710D01*
X130355001Y-67289999D02*
X130338034Y-67273033D01*
X129150710Y-69250710D02*
X129355251Y-69455251D01*
X128140000Y-67400000D02*
X128119497Y-67400000D01*
X129407475Y-66016562D02*
X129350000Y-65959087D01*
X127780502Y-68390502D02*
X127775000Y-68385000D01*
X128507573Y-66677573D02*
X128465000Y-66635000D01*
X129583550Y-66725000D02*
X129593690Y-66714859D01*
X129080000Y-69052500D02*
X129080000Y-68935000D01*
X128386464Y-69373535D02*
X128335000Y-69425000D01*
X127720000Y-68252218D02*
X127720000Y-68200000D01*
X128615000Y-66200000D02*
X128653933Y-66200000D01*
X128395000Y-69360000D02*
G75*
G03*
X128390000Y-69365000I0J-5000D01*
G01*
X127629999Y-65113431D02*
G75*
G03*
X127651507Y-65190313I161501J3731D01*
G01*
X128025000Y-67870002D02*
G75*
G03*
X127845753Y-67944246I0J-253498D01*
G01*
X130600002Y-68128994D02*
G75*
G03*
X130530000Y-67960000I-239002J-6D01*
G01*
X130499999Y-64865000D02*
G75*
G03*
X130475251Y-64805252I-84499J0D01*
G01*
X130260502Y-69320001D02*
G75*
G03*
X130345000Y-69285000I-2J119501D01*
G01*
X130258432Y-67410013D02*
G75*
G03*
X130355000Y-67370000I-32J136613D01*
G01*
X128760008Y-69127279D02*
G75*
G03*
X128670000Y-68910000I-307308J-21D01*
G01*
X127640004Y-69189791D02*
G75*
G03*
X127725000Y-69395000I290196J-9D01*
G01*
X128710003Y-69310003D02*
G75*
G03*
X128760000Y-69189289I-120703J120703D01*
G01*
X130490007Y-68470000D02*
G75*
G03*
X130553640Y-68623638I217293J0D01*
G01*
X128335005Y-64664995D02*
G75*
G03*
X128467781Y-64720000I132795J132795D01*
G01*
X128589289Y-69359995D02*
G75*
G03*
X128710000Y-69310000I11J170695D01*
G01*
X130280000Y-67890000D02*
G75*
G03*
X130100000Y-68070000I0J-180000D01*
G01*
X128669994Y-68910006D02*
G75*
G03*
X128452720Y-68820000I-217294J-217294D01*
G01*
X128715000Y-64845000D02*
G75*
G03*
X128715000Y-64775000I-35000J35000D01*
G01*
X128334995Y-64665005D02*
G75*
G03*
X128202218Y-64610000I-132795J-132795D01*
G01*
X130659986Y-69339986D02*
G75*
G03*
X130720000Y-69195147I-144886J144886D01*
G01*
X129784875Y-66876861D02*
G75*
G03*
X129723550Y-66860001I-65075J-116739D01*
G01*
X128570000Y-66879994D02*
G75*
G03*
X128399290Y-66950711I0J-241406D01*
G01*
X129599982Y-69234644D02*
G75*
G03*
X129625000Y-69295000I85418J44D01*
G01*
X129432796Y-66044246D02*
G75*
G03*
X129407475Y-66016562I-939996J-834354D01*
G01*
X127719993Y-68252218D02*
G75*
G03*
X127775000Y-68385000I187807J18D01*
G01*
X128073431Y-67870013D02*
G75*
G03*
X128170000Y-67830000I-31J136613D01*
G01*
X128909995Y-65830710D02*
G75*
G03*
X128860000Y-65710000I-170695J10D01*
G01*
X130218077Y-65249990D02*
G75*
G03*
X130375000Y-65185000I23J221890D01*
G01*
X129677849Y-66680029D02*
G75*
G03*
X129593690Y-66714859I-49J-118971D01*
G01*
X130475253Y-64924749D02*
G75*
G03*
X130500000Y-64865000I-59753J59749D01*
G01*
X127780504Y-68629499D02*
G75*
G03*
X127830000Y-68510000I-119504J119499D01*
G01*
X130344999Y-69284999D02*
G75*
G03*
X130380000Y-69200502I-84499J84499D01*
G01*
X128677686Y-64737668D02*
G75*
G03*
X128635000Y-64720000I-42686J-42732D01*
G01*
X127720006Y-64700006D02*
G75*
G03*
X127630000Y-64917279I217294J-217294D01*
G01*
X129974993Y-68724993D02*
G75*
G03*
X130100000Y-68423223I-301793J301793D01*
G01*
X128715001Y-64845001D02*
G75*
G03*
X128680000Y-64929497I84499J-84499D01*
G01*
X128543431Y-65210013D02*
G75*
G03*
X128640000Y-65170000I-31J136613D01*
G01*
X128100000Y-67130000D02*
G75*
G03*
X128000000Y-67230000I0J-100000D01*
G01*
X128615000Y-66200000D02*
G75*
G03*
X128470000Y-66345000I0J-145000D01*
G01*
X128914998Y-65364998D02*
G75*
G03*
X129020000Y-65111507I-253498J253498D01*
G01*
X129843570Y-66264980D02*
G75*
G03*
X129710768Y-66210000I-132770J-132820D01*
G01*
X128590000Y-66880000D02*
G75*
G03*
X128670000Y-66800000I0J80000D01*
G01*
X130380024Y-69061922D02*
G75*
G03*
X130345131Y-68936937I-263424J-6178D01*
G01*
X129079994Y-69080000D02*
G75*
G03*
X129150710Y-69250710I241406J0D01*
G01*
X129531389Y-66142809D02*
G75*
G03*
X129693550Y-66210000I162211J162209D01*
G01*
X129790000Y-68850014D02*
G75*
G03*
X129687574Y-68892427I0J-144886D01*
G01*
X130545005Y-68325005D02*
G75*
G03*
X130490000Y-68457781I132795J-132795D01*
G01*
X128465000Y-66625000D02*
G75*
G03*
X128465000Y-66635000I5000J-5000D01*
G01*
X128169991Y-67829991D02*
G75*
G03*
X128210000Y-67733431I-96591J96591D01*
G01*
X127999999Y-67280502D02*
G75*
G03*
X128035000Y-67365000I119501J2D01*
G01*
X130383424Y-65176560D02*
G75*
G03*
X130440000Y-65040000I-136524J136560D01*
G01*
X128810005Y-65589289D02*
G75*
G03*
X128860000Y-65710000I170695J-11D01*
G01*
X128670000Y-66780000D02*
G75*
G03*
X128610000Y-66720000I-60000J0D01*
G01*
X128800014Y-68550000D02*
G75*
G03*
X128842426Y-68652426I144886J0D01*
G01*
X130355000Y-67370000D02*
G75*
G03*
X130355000Y-67290000I-40000J40000D01*
G01*
X127724998Y-69395002D02*
G75*
G03*
X127930208Y-69480000I205202J205202D01*
G01*
X127734985Y-68674985D02*
G75*
G03*
X127640000Y-68904350I229315J-229315D01*
G01*
X130081959Y-67166974D02*
G75*
G03*
X130210000Y-67220000I128041J128074D01*
G01*
X127811934Y-67978086D02*
G75*
G03*
X127720000Y-68200000I221866J-221914D01*
G01*
X128842417Y-68447564D02*
G75*
G03*
X128800000Y-68550000I102483J-102436D01*
G01*
X130529999Y-67960001D02*
G75*
G03*
X130361005Y-67890000I-168999J-168999D01*
G01*
X129600186Y-66831624D02*
G75*
G03*
X129668670Y-66860000I68514J68524D01*
G01*
X130719985Y-68952634D02*
G75*
G03*
X130605000Y-68675000I-392585J34D01*
G01*
X128639991Y-65169991D02*
G75*
G03*
X128680000Y-65073431I-96591J96591D01*
G01*
X128865007Y-68425007D02*
G75*
G03*
X128930000Y-68268076I-156907J156907D01*
G01*
X128507563Y-66677583D02*
G75*
G03*
X128610000Y-66720000I102437J102483D01*
G01*
X128035001Y-67364999D02*
G75*
G03*
X128119497Y-67400000I84499J84499D01*
G01*
X128877165Y-65402814D02*
G75*
G03*
X128810000Y-65565000I162235J-162186D01*
G01*
X130444995Y-64775005D02*
G75*
G03*
X130312219Y-64720000I-132795J-132795D01*
G01*
X130469992Y-64929992D02*
G75*
G03*
X130440000Y-65002426I72408J-72408D01*
G01*
X128386470Y-69373541D02*
G75*
G03*
X128390000Y-69365000I-8570J8541D01*
G01*
X129960003Y-64669997D02*
G75*
G03*
X129839289Y-64620000I-120703J-120703D01*
G01*
X127688365Y-65227172D02*
G75*
G03*
X127698555Y-65237694I84735J71872D01*
G01*
X128834990Y-66124990D02*
G75*
G03*
X128910000Y-65943933I-181090J181090D01*
G01*
X129790000Y-68849985D02*
G75*
G03*
X129892426Y-68807573I0J144885D01*
G01*
X129898572Y-66397781D02*
G75*
G03*
X129843550Y-66265000I-187772J-19D01*
G01*
X128464992Y-66624992D02*
G75*
G03*
X128470000Y-66612928I-12092J12092D01*
G01*
X129858530Y-66639980D02*
G75*
G03*
X129898550Y-66543431I-96530J96580D01*
G01*
X129355250Y-69455252D02*
G75*
G03*
X129415000Y-69480000I59750J59752D01*
G01*
X129583550Y-66725000D02*
G75*
G03*
X129583550Y-66815000I44950J-45000D01*
G01*
X129761981Y-66679977D02*
G75*
G03*
X129858550Y-66640000I19J136577D01*
G01*
X129625013Y-69294987D02*
G75*
G03*
X129685355Y-69320000I60387J60387D01*
G01*
X129959997Y-64670003D02*
G75*
G03*
X130080710Y-64720000I120703J120703D01*
G01*
X130544995Y-68324995D02*
G75*
G03*
X130600000Y-68192218I-132795J132795D01*
G01*
X127937279Y-64609992D02*
G75*
G03*
X127720000Y-64700000I21J-307308D01*
G01*
X129080011Y-68935000D02*
G75*
G03*
X129048180Y-68858180I-108611J0D01*
G01*
X129664993Y-68914993D02*
G75*
G03*
X129600000Y-69071923I156907J-156907D01*
G01*
X129126073Y-64853940D02*
G75*
G03*
X129020000Y-65110000I256027J-256060D01*
G01*
X130166862Y-64719999D02*
G75*
G03*
X130197121Y-64721655I826938J14832599D01*
G01*
X128110000Y-67129988D02*
G75*
G03*
X128297781Y-67052218I0J265588D01*
G01*
X128210000Y-67470000D02*
G75*
G03*
X128140000Y-67400000I-70000J0D01*
G01*
X127829998Y-68510000D02*
G75*
G03*
X127780502Y-68390502I-168998J0D01*
G01*
X128202218Y-69480007D02*
G75*
G03*
X128335000Y-69425000I-18J187807D01*
G01*
X130463431Y-69480013D02*
G75*
G03*
X130560000Y-69440000I-31J136613D01*
G01*
X130338041Y-67273026D02*
G75*
G03*
X130210000Y-67220000I-128041J-128074D01*
G01*
X129600416Y-64620006D02*
G75*
G03*
X129189999Y-64789999I-16J-580394D01*
G01*
X128653933Y-66200014D02*
G75*
G03*
X128835000Y-66125000I-33J256114D01*
G01*
G04 #@! TA.AperFunction,NonConductor*
G36*
X131311862Y-64410795D02*
G01*
X131325168Y-64412902D01*
X131392618Y-64423585D01*
X131399756Y-64425905D01*
X131467745Y-64460547D01*
X131470897Y-64462153D01*
X131476972Y-64466566D01*
X131533433Y-64523027D01*
X131537846Y-64529102D01*
X131574093Y-64600241D01*
X131576413Y-64607382D01*
X131589204Y-64688137D01*
X131589500Y-64691892D01*
X131589500Y-69398107D01*
X131589204Y-69401862D01*
X131576413Y-69482617D01*
X131574093Y-69489758D01*
X131537846Y-69560897D01*
X131533433Y-69566972D01*
X131476972Y-69623433D01*
X131470896Y-69627846D01*
X131411240Y-69658241D01*
X131400340Y-69660857D01*
X127188052Y-69660045D01*
X127177162Y-69657429D01*
X127144677Y-69640877D01*
X127119102Y-69627846D01*
X127113027Y-69623433D01*
X127056566Y-69566972D01*
X127052153Y-69560897D01*
X127030951Y-69519285D01*
X127015905Y-69489756D01*
X127013585Y-69482618D01*
X127005203Y-69429691D01*
X127000795Y-69401861D01*
X127000500Y-69398107D01*
X127000500Y-69000002D01*
X127235249Y-69000002D01*
X127251960Y-69062373D01*
X127251961Y-69062374D01*
X127251962Y-69062376D01*
X127297624Y-69108038D01*
X127297625Y-69108038D01*
X127297626Y-69108039D01*
X127359998Y-69124751D01*
X127360000Y-69124751D01*
X127360002Y-69124751D01*
X127422373Y-69108039D01*
X127422373Y-69108038D01*
X127422376Y-69108038D01*
X127468038Y-69062376D01*
X127468471Y-69060761D01*
X127484751Y-69000002D01*
X127484751Y-68999999D01*
X127475287Y-68964680D01*
X127468038Y-68937625D01*
X127422376Y-68891962D01*
X127420312Y-68891409D01*
X127360001Y-68875249D01*
X127359999Y-68875249D01*
X127297626Y-68891961D01*
X127251961Y-68937626D01*
X127235249Y-68999999D01*
X127235249Y-69000002D01*
X127000500Y-69000002D01*
X127000500Y-68862523D01*
X127539495Y-68862523D01*
X127539500Y-68901399D01*
X127539500Y-69207285D01*
X127539503Y-69207330D01*
X127539503Y-69241226D01*
X127566125Y-69340593D01*
X127566126Y-69340596D01*
X127566127Y-69340597D01*
X127606085Y-69409809D01*
X127617565Y-69429692D01*
X127632917Y-69445045D01*
X127632921Y-69445050D01*
X127646903Y-69459031D01*
X127646907Y-69459041D01*
X127653933Y-69466066D01*
X127653933Y-69466067D01*
X127690306Y-69502439D01*
X127779401Y-69553876D01*
X127779403Y-69553876D01*
X127779404Y-69553877D01*
X127800405Y-69559503D01*
X127878772Y-69580501D01*
X127930211Y-69580500D01*
X128171740Y-69580500D01*
X128171754Y-69580501D01*
X128175297Y-69580500D01*
X128175299Y-69580502D01*
X128192280Y-69580500D01*
X128192297Y-69580507D01*
X128202228Y-69580506D01*
X128202228Y-69580507D01*
X128240179Y-69580504D01*
X128313495Y-69560854D01*
X128379228Y-69522900D01*
X128392830Y-69509296D01*
X128392838Y-69509290D01*
X128394808Y-69507319D01*
X128394810Y-69507319D01*
X128414809Y-69487318D01*
X128425106Y-69477023D01*
X128425106Y-69477021D01*
X128428477Y-69473651D01*
X128428478Y-69473648D01*
X128428482Y-69473645D01*
X128434600Y-69467528D01*
X128451569Y-69460500D01*
X128607561Y-69460500D01*
X128607605Y-69460495D01*
X128624989Y-69460497D01*
X128693969Y-69442017D01*
X128755815Y-69406312D01*
X128758642Y-69403484D01*
X128758646Y-69403482D01*
X128762022Y-69400106D01*
X128762023Y-69400106D01*
X128774031Y-69388096D01*
X128774039Y-69388093D01*
X128781066Y-69381066D01*
X128781067Y-69381067D01*
X128806316Y-69355818D01*
X128842021Y-69293971D01*
X128860502Y-69224990D01*
X128860500Y-69189283D01*
X128860500Y-69157759D01*
X128860501Y-69157746D01*
X128860500Y-69154202D01*
X128860502Y-69154201D01*
X128860500Y-69137219D01*
X128860508Y-69137200D01*
X128860507Y-69127272D01*
X128860508Y-69127272D01*
X128860505Y-69087110D01*
X128844831Y-69008330D01*
X128836144Y-68987360D01*
X128814090Y-68934120D01*
X128773883Y-68873950D01*
X128769463Y-68867335D01*
X128756389Y-68854261D01*
X128741066Y-68838937D01*
X128741064Y-68838936D01*
X128722023Y-68819894D01*
X128722022Y-68819893D01*
X128719921Y-68817792D01*
X128719866Y-68817749D01*
X128712660Y-68810543D01*
X128710165Y-68808876D01*
X128645874Y-68765916D01*
X128571666Y-68735176D01*
X128515517Y-68724004D01*
X128500246Y-68713799D01*
X128475579Y-68676882D01*
X128462577Y-68657423D01*
X128457348Y-68653929D01*
X128387987Y-68607583D01*
X128387985Y-68607582D01*
X128300000Y-68590082D01*
X128212014Y-68607582D01*
X128212012Y-68607583D01*
X128137425Y-68657421D01*
X128137421Y-68657425D01*
X128087583Y-68732012D01*
X128087582Y-68732014D01*
X128070082Y-68820000D01*
X128087582Y-68907985D01*
X128087583Y-68907987D01*
X128135141Y-68979162D01*
X128137423Y-68982577D01*
X128174718Y-69007497D01*
X128212012Y-69032416D01*
X128212014Y-69032417D01*
X128300000Y-69049918D01*
X128387986Y-69032417D01*
X128462577Y-68982577D01*
X128489896Y-68941689D01*
X128505166Y-68931486D01*
X128519033Y-68932851D01*
X128553191Y-68947001D01*
X128558606Y-68950128D01*
X128596445Y-68979163D01*
X128600873Y-68983591D01*
X128612427Y-68998648D01*
X128629876Y-69021386D01*
X128633007Y-69026808D01*
X128646963Y-69060497D01*
X128651249Y-69070844D01*
X128652870Y-69076895D01*
X128659294Y-69125668D01*
X128659500Y-69128802D01*
X128659500Y-69159568D01*
X128659499Y-69159578D01*
X128659499Y-69187722D01*
X128659294Y-69190852D01*
X128657521Y-69204331D01*
X128655900Y-69210384D01*
X128651305Y-69221479D01*
X128648171Y-69226907D01*
X128640873Y-69236417D01*
X128636442Y-69240847D01*
X128626900Y-69248168D01*
X128621476Y-69251300D01*
X128610386Y-69255894D01*
X128604331Y-69257516D01*
X128590816Y-69259294D01*
X128587686Y-69259499D01*
X128559577Y-69259499D01*
X128559569Y-69259500D01*
X128374014Y-69259500D01*
X128356431Y-69266781D01*
X128354666Y-69267432D01*
X128332890Y-69274508D01*
X128332887Y-69274510D01*
X128326601Y-69283161D01*
X128319189Y-69289835D01*
X128316431Y-69291427D01*
X128316426Y-69291432D01*
X128313987Y-69295656D01*
X128310178Y-69300620D01*
X128305562Y-69305237D01*
X128302386Y-69312902D01*
X128297185Y-69320684D01*
X128265055Y-69352816D01*
X128262695Y-69354886D01*
X128248362Y-69365885D01*
X128242936Y-69369018D01*
X128227718Y-69375322D01*
X128221668Y-69376943D01*
X128206408Y-69378953D01*
X128203823Y-69379294D01*
X128200691Y-69379500D01*
X127931780Y-69379500D01*
X127928648Y-69379295D01*
X127884236Y-69373449D01*
X127878185Y-69371827D01*
X127862673Y-69365402D01*
X127838272Y-69355295D01*
X127832847Y-69352163D01*
X127811238Y-69335583D01*
X127798576Y-69325867D01*
X127794155Y-69321446D01*
X127767837Y-69287149D01*
X127764708Y-69281727D01*
X127761718Y-69274508D01*
X127748174Y-69241808D01*
X127746555Y-69235768D01*
X127740704Y-69191319D01*
X127740500Y-69188189D01*
X127740500Y-69178395D01*
X127740501Y-69162865D01*
X127740500Y-69162863D01*
X127740500Y-68934830D01*
X127740504Y-68934797D01*
X127740503Y-68930943D01*
X127740500Y-68905904D01*
X127740705Y-68902775D01*
X127742200Y-68891409D01*
X127747708Y-68849529D01*
X127749326Y-68843485D01*
X127769269Y-68795327D01*
X127772402Y-68789902D01*
X127772687Y-68789531D01*
X127805010Y-68747403D01*
X127807059Y-68745066D01*
X127825105Y-68727022D01*
X127825105Y-68727021D01*
X127829146Y-68722980D01*
X127829151Y-68722977D01*
X127844539Y-68707590D01*
X127851568Y-68700560D01*
X127851569Y-68700561D01*
X127876657Y-68675473D01*
X127912136Y-68614021D01*
X127930501Y-68545479D01*
X127930500Y-68517702D01*
X128699498Y-68517702D01*
X128699500Y-68550000D01*
X128699500Y-68580101D01*
X128699513Y-68580197D01*
X128699513Y-68582296D01*
X128716226Y-68644691D01*
X128716227Y-68644692D01*
X128734806Y-68676882D01*
X128748513Y-68700632D01*
X128758726Y-68710849D01*
X128758756Y-68710884D01*
X128760107Y-68712235D01*
X128770844Y-68722972D01*
X128771345Y-68723473D01*
X128771345Y-68723474D01*
X128771348Y-68723477D01*
X128792665Y-68744803D01*
X128792706Y-68744834D01*
X128955913Y-68908041D01*
X128955952Y-68908091D01*
X128958087Y-68910225D01*
X128958088Y-68910226D01*
X128971828Y-68923960D01*
X128972466Y-68924597D01*
X128979500Y-68941566D01*
X128979500Y-69070053D01*
X128979494Y-69070067D01*
X128979494Y-69125015D01*
X129002797Y-69211980D01*
X129028853Y-69257104D01*
X129046087Y-69286951D01*
X129047819Y-69289949D01*
X129078826Y-69320954D01*
X129078826Y-69320955D01*
X129078827Y-69320955D01*
X129265145Y-69507273D01*
X129265144Y-69507273D01*
X129277157Y-69519285D01*
X129277158Y-69519288D01*
X129284187Y-69526316D01*
X129284187Y-69526317D01*
X129301410Y-69543538D01*
X129343594Y-69567893D01*
X129390645Y-69580500D01*
X129399083Y-69580500D01*
X129451583Y-69580500D01*
X129556583Y-69580500D01*
X130433242Y-69580500D01*
X130433292Y-69580506D01*
X130436523Y-69580505D01*
X130436525Y-69580506D01*
X130453497Y-69580502D01*
X130453528Y-69580514D01*
X130463454Y-69580512D01*
X130463454Y-69580513D01*
X130494653Y-69580507D01*
X130494662Y-69580507D01*
X130509732Y-69576466D01*
X130554947Y-69564344D01*
X130608998Y-69533132D01*
X130631064Y-69511064D01*
X130650106Y-69492023D01*
X130650106Y-69492022D01*
X130653478Y-69488650D01*
X130653479Y-69488647D01*
X130708647Y-69433479D01*
X130708650Y-69433478D01*
X130712022Y-69430106D01*
X130712023Y-69430106D01*
X130731064Y-69411064D01*
X130732319Y-69409809D01*
X130737319Y-69404809D01*
X130742319Y-69399809D01*
X130742320Y-69399807D01*
X130743606Y-69398521D01*
X130743760Y-69398341D01*
X130754008Y-69388093D01*
X130759473Y-69382629D01*
X130799674Y-69313013D01*
X130816619Y-69249812D01*
X130820492Y-69235366D01*
X130820493Y-69226907D01*
X130820495Y-69213595D01*
X130820500Y-69213559D01*
X130820500Y-69194893D01*
X130820501Y-69189283D01*
X130820506Y-69168241D01*
X130820505Y-69168239D01*
X130820506Y-69165261D01*
X130820500Y-69165205D01*
X130820500Y-69000002D01*
X131095249Y-69000002D01*
X131111960Y-69062373D01*
X131111961Y-69062374D01*
X131111962Y-69062376D01*
X131157624Y-69108038D01*
X131157625Y-69108038D01*
X131157626Y-69108039D01*
X131219998Y-69124751D01*
X131220000Y-69124751D01*
X131220002Y-69124751D01*
X131282373Y-69108039D01*
X131282373Y-69108038D01*
X131282376Y-69108038D01*
X131328038Y-69062376D01*
X131328471Y-69060761D01*
X131344751Y-69000002D01*
X131344751Y-68999999D01*
X131335287Y-68964680D01*
X131328038Y-68937625D01*
X131282376Y-68891962D01*
X131280312Y-68891409D01*
X131220001Y-68875249D01*
X131219999Y-68875249D01*
X131157626Y-68891961D01*
X131111961Y-68937626D01*
X131095249Y-68999999D01*
X131095249Y-69000002D01*
X130820500Y-69000002D01*
X130820500Y-68934912D01*
X130820486Y-68934735D01*
X130820486Y-68931263D01*
X130820489Y-68904073D01*
X130801544Y-68808798D01*
X130801543Y-68808797D01*
X130801543Y-68808794D01*
X130776979Y-68749485D01*
X130764374Y-68719051D01*
X130710408Y-68638281D01*
X130688692Y-68616564D01*
X130688687Y-68616558D01*
X130625822Y-68553693D01*
X130623752Y-68551331D01*
X130608075Y-68530898D01*
X130604943Y-68525473D01*
X130601621Y-68517453D01*
X130595694Y-68503143D01*
X130594074Y-68497099D01*
X130590705Y-68471504D01*
X130590500Y-68468372D01*
X130590500Y-68459361D01*
X130590706Y-68456227D01*
X130592588Y-68441937D01*
X130593063Y-68438331D01*
X130594684Y-68432283D01*
X130595949Y-68429229D01*
X130600989Y-68417061D01*
X130604116Y-68411645D01*
X130615160Y-68397255D01*
X130617212Y-68394915D01*
X130635106Y-68377023D01*
X130635106Y-68377021D01*
X130637601Y-68374527D01*
X130637632Y-68374485D01*
X130642895Y-68369224D01*
X130680848Y-68303493D01*
X130700497Y-68230178D01*
X130700497Y-68211691D01*
X130700500Y-68211681D01*
X130700500Y-68192208D01*
X130700500Y-68190637D01*
X130700502Y-68165299D01*
X130700500Y-68165296D01*
X130700501Y-68162515D01*
X130700500Y-68162497D01*
X130700500Y-68138934D01*
X130700502Y-68138929D01*
X130700502Y-68084297D01*
X130691395Y-68050313D01*
X130677913Y-68000002D01*
X131095249Y-68000002D01*
X131111960Y-68062373D01*
X131111961Y-68062374D01*
X131111962Y-68062376D01*
X131157624Y-68108038D01*
X131157625Y-68108038D01*
X131157626Y-68108039D01*
X131219998Y-68124751D01*
X131220000Y-68124751D01*
X131220002Y-68124751D01*
X131282373Y-68108039D01*
X131282373Y-68108038D01*
X131282376Y-68108038D01*
X131328038Y-68062376D01*
X131331903Y-68047952D01*
X131344751Y-68000002D01*
X131344751Y-67999999D01*
X131338133Y-67975302D01*
X131328038Y-67937625D01*
X131282376Y-67891962D01*
X131282372Y-67891961D01*
X131220001Y-67875249D01*
X131219999Y-67875249D01*
X131157626Y-67891961D01*
X131111961Y-67937626D01*
X131095249Y-67999999D01*
X131095249Y-68000002D01*
X130677913Y-68000002D01*
X130677364Y-67997953D01*
X130632669Y-67920539D01*
X130632667Y-67920537D01*
X130632666Y-67920535D01*
X130601064Y-67888936D01*
X130601063Y-67888935D01*
X130591801Y-67879673D01*
X130582023Y-67869894D01*
X130582022Y-67869893D01*
X130580306Y-67868177D01*
X130580293Y-67868166D01*
X130569461Y-67857335D01*
X130569451Y-67857327D01*
X130492047Y-67812637D01*
X130448874Y-67801068D01*
X130405702Y-67789500D01*
X130376922Y-67789500D01*
X130306929Y-67789500D01*
X130280000Y-67789500D01*
X130235573Y-67789500D01*
X130151068Y-67816957D01*
X130079189Y-67869181D01*
X130079181Y-67869189D01*
X130026957Y-67941068D01*
X129999500Y-68025572D01*
X129999500Y-68421640D01*
X129999295Y-68424774D01*
X129988791Y-68504533D01*
X129987169Y-68510584D01*
X129956989Y-68583438D01*
X129953856Y-68588863D01*
X129904851Y-68652726D01*
X129902782Y-68655087D01*
X129822488Y-68735381D01*
X129820124Y-68737453D01*
X129814694Y-68741618D01*
X129809265Y-68744751D01*
X129804399Y-68746765D01*
X129798358Y-68748383D01*
X129791447Y-68749294D01*
X129788310Y-68749500D01*
X129760018Y-68749500D01*
X129759918Y-68749513D01*
X129757704Y-68749513D01*
X129695308Y-68766226D01*
X129695307Y-68766227D01*
X129639365Y-68798514D01*
X129628999Y-68808876D01*
X129628958Y-68808912D01*
X129616525Y-68821345D01*
X129600960Y-68836903D01*
X129600953Y-68836905D01*
X129593929Y-68843929D01*
X129563912Y-68873946D01*
X129563910Y-68873948D01*
X129563909Y-68873950D01*
X129563908Y-68873950D01*
X129521465Y-68947472D01*
X129499496Y-69029482D01*
X129499500Y-69068417D01*
X129499500Y-69204635D01*
X129499484Y-69204760D01*
X129499494Y-69224734D01*
X129499478Y-69224774D01*
X129499482Y-69234696D01*
X129499492Y-69255894D01*
X129499493Y-69259158D01*
X129512170Y-69306404D01*
X129512171Y-69306406D01*
X129529854Y-69337023D01*
X129532676Y-69341908D01*
X129535074Y-69347696D01*
X129535500Y-69349285D01*
X129533105Y-69367497D01*
X129518534Y-69378681D01*
X129512319Y-69379500D01*
X129431570Y-69379500D01*
X129414599Y-69372471D01*
X129243122Y-69200994D01*
X129243111Y-69200979D01*
X129222884Y-69180756D01*
X129220819Y-69178402D01*
X129201297Y-69152963D01*
X129198165Y-69147538D01*
X129196962Y-69144634D01*
X129186503Y-69119387D01*
X129184883Y-69113342D01*
X129180705Y-69081601D01*
X129180500Y-69078469D01*
X129180500Y-68944952D01*
X129180511Y-68944923D01*
X129180510Y-68935000D01*
X129180511Y-68935000D01*
X129180509Y-68907461D01*
X129166250Y-68854261D01*
X129138702Y-68806567D01*
X129138700Y-68806565D01*
X129138700Y-68806564D01*
X129130568Y-68798436D01*
X129130566Y-68798432D01*
X129116940Y-68784812D01*
X129116938Y-68784807D01*
X129116937Y-68784809D01*
X128915410Y-68583282D01*
X128914611Y-68582483D01*
X128912551Y-68580132D01*
X128912527Y-68580101D01*
X128908379Y-68574693D01*
X128905250Y-68569274D01*
X128903231Y-68564396D01*
X128901614Y-68558355D01*
X128900919Y-68553076D01*
X128900919Y-68546813D01*
X128901600Y-68541641D01*
X128903220Y-68535595D01*
X128903716Y-68534395D01*
X128905236Y-68530723D01*
X128908362Y-68525305D01*
X128912485Y-68519930D01*
X128914616Y-68517511D01*
X128914674Y-68517453D01*
X128929026Y-68503099D01*
X128929051Y-68503089D01*
X128936070Y-68496070D01*
X128936071Y-68496071D01*
X128966088Y-68466054D01*
X129008536Y-68392526D01*
X129030504Y-68310516D01*
X129030500Y-68268065D01*
X129030500Y-68256883D01*
X129037529Y-68239912D01*
X129041166Y-68236928D01*
X129092577Y-68202577D01*
X129142417Y-68127986D01*
X129159918Y-68040000D01*
X129142417Y-67952014D01*
X129121383Y-67920535D01*
X129108373Y-67901064D01*
X129092577Y-67877423D01*
X129080242Y-67869181D01*
X129017987Y-67827583D01*
X129017985Y-67827582D01*
X128930000Y-67810082D01*
X128842014Y-67827582D01*
X128842012Y-67827583D01*
X128767425Y-67877421D01*
X128767421Y-67877425D01*
X128717583Y-67952012D01*
X128717582Y-67952014D01*
X128700082Y-68040000D01*
X128717582Y-68127985D01*
X128717583Y-68127987D01*
X128755066Y-68184083D01*
X128767423Y-68202577D01*
X128797236Y-68222497D01*
X128818832Y-68236927D01*
X128829037Y-68252200D01*
X128829498Y-68256880D01*
X128829499Y-68266514D01*
X128829294Y-68269646D01*
X128825778Y-68296377D01*
X128824157Y-68302430D01*
X128814447Y-68325876D01*
X128811313Y-68331303D01*
X128794955Y-68352621D01*
X128792886Y-68354982D01*
X128792504Y-68355364D01*
X128792472Y-68355389D01*
X128778383Y-68369484D01*
X128778352Y-68369497D01*
X128748502Y-68399357D01*
X128716212Y-68455304D01*
X128699498Y-68517702D01*
X127930500Y-68517702D01*
X127930500Y-68510000D01*
X127930500Y-68483071D01*
X127930500Y-68480286D01*
X127930498Y-68480268D01*
X127930498Y-68474520D01*
X127912133Y-68405981D01*
X127912133Y-68405980D01*
X127876654Y-68344528D01*
X127868479Y-68336352D01*
X127868478Y-68336350D01*
X127847179Y-68315050D01*
X127845110Y-68312691D01*
X127834114Y-68298362D01*
X127830981Y-68292936D01*
X127824677Y-68277718D01*
X127823057Y-68271674D01*
X127820704Y-68253810D01*
X127820500Y-68250690D01*
X127820500Y-68201576D01*
X127820705Y-68198443D01*
X127825069Y-68165299D01*
X127827357Y-68147915D01*
X127828977Y-68141870D01*
X127847876Y-68096250D01*
X127851007Y-68090831D01*
X127882107Y-68050307D01*
X127884165Y-68047961D01*
X127902023Y-68030107D01*
X127902023Y-68030106D01*
X127904318Y-68027812D01*
X127904329Y-68027797D01*
X127915715Y-68016412D01*
X127918054Y-68014361D01*
X127946001Y-67992918D01*
X127951416Y-67989792D01*
X127982490Y-67976920D01*
X127988525Y-67975303D01*
X128023458Y-67970704D01*
X128026590Y-67970500D01*
X128043242Y-67970500D01*
X128043292Y-67970506D01*
X128046523Y-67970505D01*
X128046525Y-67970506D01*
X128063497Y-67970502D01*
X128063528Y-67970514D01*
X128073454Y-67970512D01*
X128073454Y-67970513D01*
X128104653Y-67970507D01*
X128104662Y-67970507D01*
X128119732Y-67966466D01*
X128164947Y-67954344D01*
X128218998Y-67923132D01*
X128241064Y-67901064D01*
X128260106Y-67882023D01*
X128260106Y-67882021D01*
X128262385Y-67879743D01*
X128262439Y-67879673D01*
X128263120Y-67878992D01*
X128263120Y-67878991D01*
X128263122Y-67878990D01*
X128294332Y-67824942D01*
X128306403Y-67779918D01*
X128310494Y-67764662D01*
X128310494Y-67760886D01*
X128310495Y-67751879D01*
X128310500Y-67751844D01*
X128310500Y-67733407D01*
X128310500Y-67731835D01*
X128310506Y-67706525D01*
X128310505Y-67706523D01*
X128310506Y-67703545D01*
X128310500Y-67703489D01*
X128310500Y-67436084D01*
X128302603Y-67417021D01*
X128284543Y-67373420D01*
X128236580Y-67325457D01*
X128178302Y-67301317D01*
X128173916Y-67299500D01*
X128173915Y-67299500D01*
X128155917Y-67299500D01*
X128124500Y-67299500D01*
X128107529Y-67292471D01*
X128100500Y-67275500D01*
X128100500Y-67254500D01*
X128107529Y-67237529D01*
X128124500Y-67230500D01*
X128130148Y-67230500D01*
X128130233Y-67230488D01*
X128158190Y-67230489D01*
X128251288Y-67205547D01*
X128334759Y-67157362D01*
X128355861Y-67136262D01*
X128355875Y-67136251D01*
X128357588Y-67134537D01*
X128357590Y-67134537D01*
X128368838Y-67123289D01*
X128387881Y-67104249D01*
X128387881Y-67104247D01*
X128390386Y-67101743D01*
X128390394Y-67101731D01*
X128447940Y-67044186D01*
X128447946Y-67044182D01*
X128451316Y-67040812D01*
X128451317Y-67040812D01*
X128469241Y-67022886D01*
X128471600Y-67020818D01*
X128475510Y-67017816D01*
X128497037Y-67001297D01*
X128502456Y-66998167D01*
X128530612Y-66986503D01*
X128536657Y-66984883D01*
X128565048Y-66981146D01*
X128568398Y-66980705D01*
X128571530Y-66980500D01*
X128625905Y-66980500D01*
X128638157Y-66975424D01*
X128692245Y-66953020D01*
X128743020Y-66902245D01*
X128770500Y-66835904D01*
X128770500Y-66800000D01*
X128770500Y-66773071D01*
X128770500Y-66764083D01*
X128770500Y-66748075D01*
X128770500Y-66748073D01*
X128746066Y-66689086D01*
X128746065Y-66689085D01*
X128746065Y-66689084D01*
X128700916Y-66643935D01*
X128700914Y-66643934D01*
X128700913Y-66643933D01*
X128641927Y-66619500D01*
X128641925Y-66619500D01*
X128611574Y-66619500D01*
X128608439Y-66619294D01*
X128601639Y-66618398D01*
X128595595Y-66616779D01*
X128590727Y-66614764D01*
X128585299Y-66611632D01*
X128579946Y-66607526D01*
X128577582Y-66605454D01*
X128577569Y-66605441D01*
X128570540Y-66588470D01*
X128570540Y-66588430D01*
X128570543Y-66586758D01*
X128570544Y-66586164D01*
X128570543Y-66586163D01*
X128570548Y-66583250D01*
X128570500Y-66582875D01*
X128570500Y-66348159D01*
X128571318Y-66341948D01*
X128574797Y-66328963D01*
X128581006Y-66318205D01*
X128588205Y-66311006D01*
X128598962Y-66304797D01*
X128605358Y-66303083D01*
X128611948Y-66301318D01*
X128618159Y-66300500D01*
X128623746Y-66300500D01*
X128623768Y-66300502D01*
X128627014Y-66300501D01*
X128627017Y-66300503D01*
X128643990Y-66300501D01*
X128644024Y-66300514D01*
X128653946Y-66300513D01*
X128653946Y-66300514D01*
X128700887Y-66300509D01*
X128791569Y-66276202D01*
X128872872Y-66229257D01*
X128906064Y-66196064D01*
X128925106Y-66177023D01*
X128925106Y-66177021D01*
X128927375Y-66174753D01*
X128927441Y-66174667D01*
X128939246Y-66162864D01*
X128986189Y-66081564D01*
X129010495Y-65990886D01*
X129010497Y-65962143D01*
X129010500Y-65962126D01*
X129010500Y-65939876D01*
X129010500Y-65937624D01*
X129010503Y-65917017D01*
X129010501Y-65917014D01*
X129010502Y-65914238D01*
X129010500Y-65914212D01*
X129010500Y-65829695D01*
X129122037Y-65829695D01*
X129139537Y-65917680D01*
X129139538Y-65917682D01*
X129170000Y-65963271D01*
X129189378Y-65992272D01*
X129215910Y-66010000D01*
X129263967Y-66042111D01*
X129263969Y-66042112D01*
X129290442Y-66047377D01*
X129302730Y-66053945D01*
X129334906Y-66086121D01*
X129335481Y-66086717D01*
X129342187Y-66093903D01*
X129342843Y-66094620D01*
X129347031Y-66099199D01*
X129349348Y-66102542D01*
X129349368Y-66102528D01*
X129350478Y-66104056D01*
X129359119Y-66112698D01*
X129360097Y-66113736D01*
X129368790Y-66123530D01*
X129375510Y-66131100D01*
X129375511Y-66131100D01*
X129378147Y-66132839D01*
X129377882Y-66133240D01*
X129382535Y-66136113D01*
X129441268Y-66194846D01*
X129471644Y-66225224D01*
X129471648Y-66225226D01*
X129472850Y-66226428D01*
X129473035Y-66226585D01*
X129491026Y-66244578D01*
X129566229Y-66288004D01*
X129622148Y-66302996D01*
X129650107Y-66310492D01*
X129650151Y-66310492D01*
X129680824Y-66310497D01*
X129680881Y-66310504D01*
X129683855Y-66310503D01*
X129683856Y-66310504D01*
X129700430Y-66310501D01*
X129709253Y-66310502D01*
X129712360Y-66310706D01*
X129730248Y-66313059D01*
X129736298Y-66314679D01*
X129751516Y-66320979D01*
X129756941Y-66324109D01*
X129769926Y-66334069D01*
X129774356Y-66338498D01*
X129784449Y-66351647D01*
X129787583Y-66357073D01*
X129793885Y-66372283D01*
X129795507Y-66378333D01*
X129797844Y-66396059D01*
X129798050Y-66399196D01*
X129798050Y-66541830D01*
X129797843Y-66544973D01*
X129797230Y-66549614D01*
X129795610Y-66555656D01*
X129794429Y-66558507D01*
X129791289Y-66563942D01*
X129789341Y-66566478D01*
X129784916Y-66570900D01*
X129782541Y-66572722D01*
X129777109Y-66575857D01*
X129774245Y-66577042D01*
X129768199Y-66578660D01*
X129763379Y-66579294D01*
X129760247Y-66579499D01*
X129740633Y-66579497D01*
X129735066Y-66579497D01*
X129735065Y-66579497D01*
X129731817Y-66579497D01*
X129731795Y-66579500D01*
X129660264Y-66579500D01*
X129659978Y-66579521D01*
X129649009Y-66579518D01*
X129648988Y-66579518D01*
X129648987Y-66579518D01*
X129648985Y-66579518D01*
X129593154Y-66594457D01*
X129593149Y-66594459D01*
X129543081Y-66623348D01*
X129534989Y-66631436D01*
X129534943Y-66631476D01*
X129522630Y-66643788D01*
X129522631Y-66643789D01*
X129522588Y-66643832D01*
X129522585Y-66643834D01*
X129505373Y-66661041D01*
X129505369Y-66661045D01*
X129489419Y-66676982D01*
X129489418Y-66676983D01*
X129482029Y-66694809D01*
X129464401Y-66737335D01*
X129464401Y-66802665D01*
X129470216Y-66816692D01*
X129489418Y-66863016D01*
X129510070Y-66883651D01*
X129510071Y-66883655D01*
X129510076Y-66883657D01*
X129510077Y-66883658D01*
X129510078Y-66883659D01*
X129510083Y-66883664D01*
X129529119Y-66902697D01*
X129529120Y-66902699D01*
X129541629Y-66915207D01*
X129541710Y-66915276D01*
X129547495Y-66921060D01*
X129547498Y-66921062D01*
X129547497Y-66921062D01*
X129566509Y-66932039D01*
X129592485Y-66947038D01*
X129642663Y-66960493D01*
X129668639Y-66960500D01*
X129698732Y-66960509D01*
X129698731Y-66960984D01*
X129702601Y-66960771D01*
X129723519Y-66964084D01*
X129736733Y-66970816D01*
X130011917Y-67246001D01*
X130011919Y-67246002D01*
X130011920Y-67246003D01*
X130022690Y-67251490D01*
X130028763Y-67255902D01*
X130037116Y-67264254D01*
X130037118Y-67264255D01*
X130059676Y-67277276D01*
X130070860Y-67291848D01*
X130068464Y-67310060D01*
X130053892Y-67321244D01*
X130052360Y-67321601D01*
X129972014Y-67337582D01*
X129972012Y-67337583D01*
X129897425Y-67387421D01*
X129897421Y-67387425D01*
X129847583Y-67462012D01*
X129847582Y-67462014D01*
X129830082Y-67550000D01*
X129847582Y-67637985D01*
X129847583Y-67637987D01*
X129891351Y-67703489D01*
X129897423Y-67712577D01*
X129926245Y-67731835D01*
X129972012Y-67762416D01*
X129972014Y-67762417D01*
X130060000Y-67779918D01*
X130147986Y-67762417D01*
X130222577Y-67712577D01*
X130272417Y-67637986D01*
X130289918Y-67550000D01*
X130287549Y-67538092D01*
X130291132Y-67520079D01*
X130294112Y-67516446D01*
X130299316Y-67511242D01*
X130310067Y-67505035D01*
X130349948Y-67494343D01*
X130403998Y-67463132D01*
X130419034Y-67448095D01*
X130419037Y-67448093D01*
X130448158Y-67418971D01*
X130472069Y-67361244D01*
X130472069Y-67298755D01*
X130448157Y-67241028D01*
X130439297Y-67232167D01*
X130439294Y-67232163D01*
X130430441Y-67223310D01*
X130430433Y-67223299D01*
X130428133Y-67221000D01*
X130428133Y-67220999D01*
X130416509Y-67209379D01*
X130416500Y-67209356D01*
X130409095Y-67201953D01*
X130409096Y-67201953D01*
X130382882Y-67175745D01*
X130318677Y-67138683D01*
X130318676Y-67138682D01*
X130318675Y-67138682D01*
X130247067Y-67119499D01*
X130211574Y-67119499D01*
X130208443Y-67119294D01*
X130192276Y-67117167D01*
X130186224Y-67115546D01*
X130172625Y-67109914D01*
X130167199Y-67106781D01*
X130154319Y-67096899D01*
X130151960Y-67094831D01*
X130133977Y-67076853D01*
X130130695Y-67075974D01*
X130119937Y-67069763D01*
X130050176Y-67000002D01*
X131095249Y-67000002D01*
X131111960Y-67062373D01*
X131111961Y-67062374D01*
X131111962Y-67062376D01*
X131157624Y-67108038D01*
X131157625Y-67108038D01*
X131157626Y-67108039D01*
X131219998Y-67124751D01*
X131220000Y-67124751D01*
X131220002Y-67124751D01*
X131282373Y-67108039D01*
X131282373Y-67108038D01*
X131282376Y-67108038D01*
X131328038Y-67062376D01*
X131331588Y-67049126D01*
X131344751Y-67000002D01*
X131344751Y-66999999D01*
X131339400Y-66980028D01*
X131328038Y-66937625D01*
X131282376Y-66891962D01*
X131282372Y-66891961D01*
X131220001Y-66875249D01*
X131219999Y-66875249D01*
X131157626Y-66891961D01*
X131111961Y-66937626D01*
X131095249Y-66999999D01*
X131095249Y-67000002D01*
X130050176Y-67000002D01*
X129866865Y-66816692D01*
X129863235Y-66812033D01*
X129857341Y-66802170D01*
X129855074Y-66799971D01*
X129855867Y-66799153D01*
X129847578Y-66788679D01*
X129849703Y-66770434D01*
X129858665Y-66761337D01*
X129907524Y-66733144D01*
X129919827Y-66720846D01*
X129929596Y-66711083D01*
X129948642Y-66692046D01*
X129948642Y-66692043D01*
X129950846Y-66689841D01*
X129950968Y-66689681D01*
X129951650Y-66689000D01*
X129982873Y-66634951D01*
X129999042Y-66574663D01*
X129999044Y-66561743D01*
X129999050Y-66561693D01*
X129999050Y-66543407D01*
X129999050Y-66541830D01*
X129999056Y-66516525D01*
X129999055Y-66516523D01*
X129999056Y-66513545D01*
X129999050Y-66513489D01*
X129999050Y-66428258D01*
X129999051Y-66428245D01*
X129999050Y-66424701D01*
X129999052Y-66424700D01*
X129999050Y-66407732D01*
X129999072Y-66407678D01*
X129999071Y-66397771D01*
X129999072Y-66397771D01*
X129999067Y-66359815D01*
X129999067Y-66359813D01*
X129979410Y-66286491D01*
X129946353Y-66229256D01*
X129941444Y-66220757D01*
X129941443Y-66220756D01*
X129941442Y-66220754D01*
X129933646Y-66212961D01*
X129921651Y-66200969D01*
X129921624Y-66200905D01*
X129895463Y-66174753D01*
X129887778Y-66167070D01*
X129822032Y-66129127D01*
X129822033Y-66129127D01*
X129748706Y-66109493D01*
X129748705Y-66109493D01*
X129710751Y-66109500D01*
X129695147Y-66109500D01*
X129692009Y-66109294D01*
X129663350Y-66105515D01*
X129657302Y-66103893D01*
X129632060Y-66093435D01*
X129626635Y-66090303D01*
X129603579Y-66072610D01*
X129601220Y-66070541D01*
X129583397Y-66052719D01*
X129531830Y-66001152D01*
X129531354Y-66000002D01*
X131095249Y-66000002D01*
X131111960Y-66062373D01*
X131111961Y-66062374D01*
X131111962Y-66062376D01*
X131157624Y-66108038D01*
X131157625Y-66108038D01*
X131157626Y-66108039D01*
X131219998Y-66124751D01*
X131220000Y-66124751D01*
X131220002Y-66124751D01*
X131282373Y-66108039D01*
X131282373Y-66108038D01*
X131282376Y-66108038D01*
X131328038Y-66062376D01*
X131329551Y-66056729D01*
X131344751Y-66000002D01*
X131344751Y-65999999D01*
X131339674Y-65981053D01*
X131328038Y-65937625D01*
X131282376Y-65891962D01*
X131257322Y-65885249D01*
X131220001Y-65875249D01*
X131219999Y-65875249D01*
X131157626Y-65891961D01*
X131111961Y-65937626D01*
X131095249Y-65999999D01*
X131095249Y-66000002D01*
X129531354Y-66000002D01*
X129524801Y-65984181D01*
X129528845Y-65970848D01*
X129564372Y-65917681D01*
X129581873Y-65829695D01*
X129564372Y-65741709D01*
X129553896Y-65726031D01*
X129532473Y-65693969D01*
X129514532Y-65667118D01*
X129510141Y-65664184D01*
X129439942Y-65617278D01*
X129439940Y-65617277D01*
X129351955Y-65599777D01*
X129263969Y-65617277D01*
X129263967Y-65617278D01*
X129189380Y-65667116D01*
X129189376Y-65667120D01*
X129139538Y-65741707D01*
X129139537Y-65741709D01*
X129122037Y-65829695D01*
X129010500Y-65829695D01*
X129010500Y-65812607D01*
X129010495Y-65812555D01*
X129010495Y-65812535D01*
X129010497Y-65795010D01*
X128992016Y-65726030D01*
X128956312Y-65664185D01*
X128956311Y-65664184D01*
X128950105Y-65657977D01*
X128950105Y-65657976D01*
X128932180Y-65640051D01*
X128930110Y-65637691D01*
X128921831Y-65626901D01*
X128918700Y-65621479D01*
X128914103Y-65610379D01*
X128912484Y-65604335D01*
X128910704Y-65590813D01*
X128910500Y-65587686D01*
X128910500Y-65566567D01*
X128910705Y-65563435D01*
X128912594Y-65549083D01*
X128914478Y-65534770D01*
X128916096Y-65528731D01*
X128926557Y-65503472D01*
X128929683Y-65498057D01*
X128947220Y-65475196D01*
X128949277Y-65472849D01*
X128963647Y-65458479D01*
X128963650Y-65458478D01*
X128967022Y-65455106D01*
X128967023Y-65455106D01*
X128982210Y-65439918D01*
X128997319Y-65424810D01*
X128997319Y-65424808D01*
X128998828Y-65423300D01*
X128998852Y-65423270D01*
X129018028Y-65404096D01*
X129068259Y-65328921D01*
X129069990Y-65324744D01*
X129095511Y-65263131D01*
X129102859Y-65245391D01*
X129120499Y-65156715D01*
X129120499Y-65146871D01*
X129120500Y-65146868D01*
X129120500Y-65111575D01*
X129120705Y-65108442D01*
X129121827Y-65099919D01*
X129129003Y-65045413D01*
X129130622Y-65039373D01*
X129154345Y-64982103D01*
X129157473Y-64976687D01*
X129196230Y-64926185D01*
X129198282Y-64923845D01*
X129216168Y-64905961D01*
X129216168Y-64905959D01*
X129219538Y-64902590D01*
X129219542Y-64902584D01*
X129260235Y-64861890D01*
X129261952Y-64860334D01*
X129331972Y-64802871D01*
X129335863Y-64800271D01*
X129414676Y-64758146D01*
X129419014Y-64756348D01*
X129504530Y-64730409D01*
X129509140Y-64729493D01*
X129554448Y-64725032D01*
X129599297Y-64720616D01*
X129601649Y-64720500D01*
X129627342Y-64720500D01*
X129812365Y-64720500D01*
X129812367Y-64720501D01*
X129837721Y-64720500D01*
X129840852Y-64720705D01*
X129842996Y-64720987D01*
X129854334Y-64722478D01*
X129860385Y-64724100D01*
X129871482Y-64728696D01*
X129876901Y-64731824D01*
X129887648Y-64740070D01*
X129889994Y-64742128D01*
X129914182Y-64766315D01*
X129976028Y-64802021D01*
X130020352Y-64813896D01*
X130045001Y-64820500D01*
X130045009Y-64820502D01*
X130080716Y-64820500D01*
X130163397Y-64820500D01*
X130164728Y-64820537D01*
X130165174Y-64820561D01*
X130166345Y-64820627D01*
X130175449Y-64821128D01*
X130179530Y-64821890D01*
X130181202Y-64822155D01*
X130181204Y-64822156D01*
X130193796Y-64822156D01*
X130195083Y-64822191D01*
X130218617Y-64823455D01*
X130218617Y-64823454D01*
X130218621Y-64823455D01*
X130218623Y-64823453D01*
X130221710Y-64822802D01*
X130221831Y-64823374D01*
X130226923Y-64822156D01*
X130323210Y-64822156D01*
X130326344Y-64822362D01*
X130331666Y-64823063D01*
X130337716Y-64824684D01*
X130344585Y-64827529D01*
X130352935Y-64830988D01*
X130358357Y-64834118D01*
X130365807Y-64839836D01*
X130372731Y-64845150D01*
X130375082Y-64847211D01*
X130376404Y-64848533D01*
X130383433Y-64865503D01*
X130380219Y-64877501D01*
X130353316Y-64924109D01*
X130339494Y-64975729D01*
X130339500Y-65001057D01*
X130339500Y-65038424D01*
X130339295Y-65041557D01*
X130336756Y-65060840D01*
X130335133Y-65066894D01*
X130328300Y-65083385D01*
X130325168Y-65088810D01*
X130313282Y-65104298D01*
X130311210Y-65106659D01*
X130305032Y-65112835D01*
X130302674Y-65114903D01*
X130281298Y-65131305D01*
X130275871Y-65134438D01*
X130252428Y-65144147D01*
X130246375Y-65145768D01*
X130238361Y-65146822D01*
X130220618Y-65142066D01*
X130215276Y-65136361D01*
X130182577Y-65087423D01*
X130160053Y-65072373D01*
X130107987Y-65037583D01*
X130107985Y-65037582D01*
X130020000Y-65020082D01*
X129932014Y-65037582D01*
X129932012Y-65037583D01*
X129857425Y-65087421D01*
X129857421Y-65087425D01*
X129807583Y-65162012D01*
X129807582Y-65162014D01*
X129790082Y-65250000D01*
X129807582Y-65337985D01*
X129807583Y-65337987D01*
X129855701Y-65410000D01*
X129857423Y-65412577D01*
X129873471Y-65423300D01*
X129932012Y-65462416D01*
X129932014Y-65462417D01*
X130020000Y-65479918D01*
X130107986Y-65462417D01*
X130182577Y-65412577D01*
X130216934Y-65361156D01*
X130232207Y-65350952D01*
X130236888Y-65350491D01*
X130260516Y-65350494D01*
X130342522Y-65328526D01*
X130416043Y-65286083D01*
X130416044Y-65286083D01*
X130416045Y-65286081D01*
X130416048Y-65286080D01*
X130446064Y-65256064D01*
X130452352Y-65249774D01*
X130452365Y-65249769D01*
X130452362Y-65249766D01*
X130461507Y-65240628D01*
X130461512Y-65240615D01*
X130465106Y-65237023D01*
X130465106Y-65237021D01*
X130467388Y-65234740D01*
X130467429Y-65234685D01*
X130481818Y-65220300D01*
X130520484Y-65153343D01*
X130540499Y-65078660D01*
X130540500Y-65040000D01*
X130540500Y-65032540D01*
X130540507Y-65032480D01*
X130540506Y-65029330D01*
X130540507Y-65029329D01*
X130540502Y-65011573D01*
X130545291Y-65000002D01*
X131095249Y-65000002D01*
X131111960Y-65062373D01*
X131111961Y-65062374D01*
X131111962Y-65062376D01*
X131157624Y-65108038D01*
X131157625Y-65108038D01*
X131157626Y-65108039D01*
X131219998Y-65124751D01*
X131220000Y-65124751D01*
X131220002Y-65124751D01*
X131282373Y-65108039D01*
X131282373Y-65108038D01*
X131282376Y-65108038D01*
X131328038Y-65062376D01*
X131329880Y-65055501D01*
X131344751Y-65000002D01*
X131344751Y-64999999D01*
X131338066Y-64975052D01*
X131328038Y-64937625D01*
X131282376Y-64891962D01*
X131229607Y-64877823D01*
X131220001Y-64875249D01*
X131219999Y-64875249D01*
X131157626Y-64891961D01*
X131111961Y-64937626D01*
X131095249Y-64999999D01*
X131095249Y-65000002D01*
X130545291Y-65000002D01*
X130547526Y-64994602D01*
X130549412Y-64992716D01*
X130551289Y-64990841D01*
X130558732Y-64983396D01*
X130560106Y-64982023D01*
X130560106Y-64982022D01*
X130560943Y-64981185D01*
X130560945Y-64981182D01*
X130560952Y-64981176D01*
X130563484Y-64978645D01*
X130563486Y-64978641D01*
X130563540Y-64978588D01*
X130587893Y-64936404D01*
X130598394Y-64897208D01*
X130600348Y-64892495D01*
X130600500Y-64891929D01*
X130600500Y-64838069D01*
X130600351Y-64837513D01*
X130598393Y-64832786D01*
X130597911Y-64830987D01*
X130587892Y-64793595D01*
X130563538Y-64751411D01*
X130563537Y-64751410D01*
X130563536Y-64751408D01*
X130559296Y-64747168D01*
X130559286Y-64747156D01*
X130548199Y-64736070D01*
X130537162Y-64725033D01*
X130527277Y-64715147D01*
X130527276Y-64715146D01*
X130525913Y-64713783D01*
X130525906Y-64713777D01*
X130503470Y-64691342D01*
X130503403Y-64691285D01*
X130497724Y-64685606D01*
X130489224Y-64677105D01*
X130489221Y-64677103D01*
X130489220Y-64677102D01*
X130423493Y-64639152D01*
X130368783Y-64624489D01*
X130350180Y-64619503D01*
X130350178Y-64619502D01*
X130350182Y-64619502D01*
X130312229Y-64619500D01*
X130285300Y-64619498D01*
X130285299Y-64619498D01*
X130282246Y-64620316D01*
X130282038Y-64619542D01*
X130275997Y-64621156D01*
X130200490Y-64621156D01*
X130199196Y-64621121D01*
X130192511Y-64620760D01*
X130192500Y-64620755D01*
X130192491Y-64620758D01*
X130191660Y-64620713D01*
X130188592Y-64620545D01*
X130184181Y-64619721D01*
X130182782Y-64619500D01*
X130182779Y-64619500D01*
X130170330Y-64619500D01*
X130168994Y-64619463D01*
X130145568Y-64618156D01*
X130142477Y-64618803D01*
X130142364Y-64618267D01*
X130137192Y-64619500D01*
X130110431Y-64619500D01*
X130110423Y-64619499D01*
X130082276Y-64619499D01*
X130079146Y-64619294D01*
X130065668Y-64617521D01*
X130059614Y-64615899D01*
X130048517Y-64611303D01*
X130043094Y-64608172D01*
X130032355Y-64599931D01*
X130030009Y-64597875D01*
X130005818Y-64573684D01*
X130005815Y-64573682D01*
X129943970Y-64537978D01*
X129874993Y-64519498D01*
X129874990Y-64519498D01*
X129839283Y-64519500D01*
X129582908Y-64519500D01*
X129582834Y-64519504D01*
X129533355Y-64519504D01*
X129533354Y-64519504D01*
X129484846Y-64529152D01*
X129401806Y-64545668D01*
X129401797Y-64545670D01*
X129277883Y-64596995D01*
X129277879Y-64596997D01*
X129166363Y-64671507D01*
X129166353Y-64671516D01*
X129130191Y-64707678D01*
X129130185Y-64707682D01*
X129042489Y-64795380D01*
X129042405Y-64795478D01*
X129022790Y-64815092D01*
X128972156Y-64890862D01*
X128937281Y-64975052D01*
X128937280Y-64975057D01*
X128919500Y-65064433D01*
X128919500Y-65109928D01*
X128919295Y-65113061D01*
X128911120Y-65175147D01*
X128909498Y-65181199D01*
X128886143Y-65237582D01*
X128883011Y-65243007D01*
X128844889Y-65292689D01*
X128842819Y-65295050D01*
X128826968Y-65310901D01*
X128826935Y-65310928D01*
X128813137Y-65324730D01*
X128813104Y-65324744D01*
X128775391Y-65362467D01*
X128775389Y-65362469D01*
X128775389Y-65362470D01*
X128758533Y-65391670D01*
X128731971Y-65437687D01*
X128709499Y-65521575D01*
X128709500Y-65549083D01*
X128709500Y-65607116D01*
X128709503Y-65607165D01*
X128709503Y-65624991D01*
X128727982Y-65693967D01*
X128727982Y-65693968D01*
X128763688Y-65755815D01*
X128767917Y-65760045D01*
X128767923Y-65760052D01*
X128787815Y-65779943D01*
X128789886Y-65782304D01*
X128798168Y-65793098D01*
X128801300Y-65798523D01*
X128805894Y-65809613D01*
X128807516Y-65815667D01*
X128809294Y-65829181D01*
X128809499Y-65832312D01*
X128809499Y-65862403D01*
X128809500Y-65862408D01*
X128809500Y-65942348D01*
X128809294Y-65945483D01*
X128804607Y-65981053D01*
X128802985Y-65987104D01*
X128789859Y-66018786D01*
X128786727Y-66024211D01*
X128765815Y-66051463D01*
X128761386Y-66055892D01*
X128734220Y-66076738D01*
X128728795Y-66079871D01*
X128697107Y-66092999D01*
X128691057Y-66094620D01*
X128659206Y-66098817D01*
X128655588Y-66099294D01*
X128652454Y-66099500D01*
X128576116Y-66099500D01*
X128502156Y-66123530D01*
X128439246Y-66169238D01*
X128439238Y-66169246D01*
X128393530Y-66232156D01*
X128369500Y-66306115D01*
X128369500Y-66586758D01*
X128367673Y-66595943D01*
X128362429Y-66608602D01*
X128362429Y-66616339D01*
X128361611Y-66622550D01*
X128360955Y-66624998D01*
X128360955Y-66624999D01*
X128361611Y-66627447D01*
X128362429Y-66633660D01*
X128362429Y-66638280D01*
X128362134Y-66642033D01*
X128360630Y-66651530D01*
X128360630Y-66651531D01*
X128370117Y-66670151D01*
X128370906Y-66671863D01*
X128378805Y-66690933D01*
X128382680Y-66694809D01*
X128382681Y-66694809D01*
X128415392Y-66727520D01*
X128415428Y-66727566D01*
X128429482Y-66741614D01*
X128429496Y-66741646D01*
X128450135Y-66762279D01*
X128457167Y-66779249D01*
X128450140Y-66796220D01*
X128439383Y-66802433D01*
X128438021Y-66802798D01*
X128360054Y-66847815D01*
X128360050Y-66847818D01*
X128339481Y-66868390D01*
X128339480Y-66868391D01*
X128328219Y-66879650D01*
X128324212Y-66883659D01*
X128324211Y-66883659D01*
X128227841Y-66980028D01*
X128225480Y-66982098D01*
X128195043Y-67005451D01*
X128189617Y-67008584D01*
X128155641Y-67022655D01*
X128149591Y-67024276D01*
X128122159Y-67027887D01*
X128111465Y-67029295D01*
X128108334Y-67029500D01*
X128068243Y-67029500D01*
X128007840Y-67049126D01*
X127956462Y-67086454D01*
X127956454Y-67086462D01*
X127919126Y-67137840D01*
X127899500Y-67198242D01*
X127899500Y-67270562D01*
X127899499Y-67270564D01*
X127899499Y-67309466D01*
X127911406Y-67353899D01*
X127914493Y-67365419D01*
X127919112Y-67373420D01*
X127943458Y-67415587D01*
X127943524Y-67415653D01*
X127943525Y-67415653D01*
X127943527Y-67415655D01*
X127943526Y-67415655D01*
X127963935Y-67436063D01*
X127963935Y-67436064D01*
X127984411Y-67456540D01*
X127984415Y-67456542D01*
X127984416Y-67456543D01*
X128034581Y-67485506D01*
X128090532Y-67500499D01*
X128090533Y-67500499D01*
X128091712Y-67500815D01*
X128106285Y-67511997D01*
X128109500Y-67523997D01*
X128109500Y-67731835D01*
X128109294Y-67734966D01*
X128108899Y-67737963D01*
X128108681Y-67739620D01*
X128107060Y-67745664D01*
X128105872Y-67748532D01*
X128102737Y-67753961D01*
X128100818Y-67756461D01*
X128096393Y-67760886D01*
X128093967Y-67762748D01*
X128088545Y-67765879D01*
X128085672Y-67767070D01*
X128079619Y-67768694D01*
X128077196Y-67769013D01*
X128075068Y-67769294D01*
X128071932Y-67769500D01*
X128008104Y-67769500D01*
X128008080Y-67769501D01*
X127978396Y-67769501D01*
X127945443Y-67778330D01*
X127888367Y-67793624D01*
X127807643Y-67840228D01*
X127785947Y-67861924D01*
X127785944Y-67861925D01*
X127785945Y-67861926D01*
X127774690Y-67873180D01*
X127755907Y-67891961D01*
X127755908Y-67891962D01*
X127745767Y-67902102D01*
X127740866Y-67907003D01*
X127740865Y-67907003D01*
X127728390Y-67919479D01*
X127728275Y-67919613D01*
X127712014Y-67935871D01*
X127712011Y-67935874D01*
X127666667Y-68003726D01*
X127666665Y-68003728D01*
X127666665Y-68003730D01*
X127653105Y-68036463D01*
X127635425Y-68079139D01*
X127619500Y-68159187D01*
X127619500Y-68222497D01*
X127619498Y-68222515D01*
X127619499Y-68242279D01*
X127619492Y-68242297D01*
X127619495Y-68290178D01*
X127639146Y-68363496D01*
X127677097Y-68429223D01*
X127677101Y-68429229D01*
X127703935Y-68456064D01*
X127703936Y-68456064D01*
X127708323Y-68460451D01*
X127710391Y-68462809D01*
X127718398Y-68473246D01*
X127721528Y-68478667D01*
X127725954Y-68489351D01*
X127727576Y-68495404D01*
X127729086Y-68506875D01*
X127729086Y-68513139D01*
X127727578Y-68524596D01*
X127725956Y-68530650D01*
X127721531Y-68541331D01*
X127718398Y-68546755D01*
X127710404Y-68557173D01*
X127708336Y-68559532D01*
X127701272Y-68566597D01*
X127701270Y-68566599D01*
X127670976Y-68596892D01*
X127670931Y-68596910D01*
X127634333Y-68633509D01*
X127634330Y-68633513D01*
X127587835Y-68703105D01*
X127555814Y-68780428D01*
X127555813Y-68780429D01*
X127539496Y-68862509D01*
X127539495Y-68862523D01*
X127000500Y-68862523D01*
X127000500Y-68000002D01*
X127235249Y-68000002D01*
X127251960Y-68062373D01*
X127251961Y-68062374D01*
X127251962Y-68062376D01*
X127297624Y-68108038D01*
X127297625Y-68108038D01*
X127297626Y-68108039D01*
X127359998Y-68124751D01*
X127360000Y-68124751D01*
X127360002Y-68124751D01*
X127422373Y-68108039D01*
X127422373Y-68108038D01*
X127422376Y-68108038D01*
X127468038Y-68062376D01*
X127471903Y-68047952D01*
X127484751Y-68000002D01*
X127484751Y-67999999D01*
X127478133Y-67975302D01*
X127468038Y-67937625D01*
X127422376Y-67891962D01*
X127422372Y-67891961D01*
X127360001Y-67875249D01*
X127359999Y-67875249D01*
X127297626Y-67891961D01*
X127251961Y-67937626D01*
X127235249Y-67999999D01*
X127235249Y-68000002D01*
X127000500Y-68000002D01*
X127000500Y-67000002D01*
X127235249Y-67000002D01*
X127251960Y-67062373D01*
X127251961Y-67062374D01*
X127251962Y-67062376D01*
X127297624Y-67108038D01*
X127297625Y-67108038D01*
X127297626Y-67108039D01*
X127359998Y-67124751D01*
X127360000Y-67124751D01*
X127360002Y-67124751D01*
X127422373Y-67108039D01*
X127422373Y-67108038D01*
X127422376Y-67108038D01*
X127468038Y-67062376D01*
X127471588Y-67049126D01*
X127484751Y-67000002D01*
X127484751Y-66999999D01*
X127479400Y-66980028D01*
X127468038Y-66937625D01*
X127422376Y-66891962D01*
X127422372Y-66891961D01*
X127360001Y-66875249D01*
X127359999Y-66875249D01*
X127297626Y-66891961D01*
X127251961Y-66937626D01*
X127235249Y-66999999D01*
X127235249Y-67000002D01*
X127000500Y-67000002D01*
X127000500Y-66010002D01*
X127235249Y-66010002D01*
X127251960Y-66072373D01*
X127251961Y-66072374D01*
X127251962Y-66072376D01*
X127297624Y-66118038D01*
X127297625Y-66118038D01*
X127297626Y-66118039D01*
X127359998Y-66134751D01*
X127360000Y-66134751D01*
X127360002Y-66134751D01*
X127422373Y-66118039D01*
X127422373Y-66118038D01*
X127422376Y-66118038D01*
X127468038Y-66072376D01*
X127468530Y-66070541D01*
X127484751Y-66010002D01*
X127484751Y-66009999D01*
X127480000Y-65992269D01*
X127468038Y-65947625D01*
X127422376Y-65901962D01*
X127422372Y-65901961D01*
X127360001Y-65885249D01*
X127359999Y-65885249D01*
X127297626Y-65901961D01*
X127251961Y-65947626D01*
X127235249Y-66009999D01*
X127235249Y-66010002D01*
X127000500Y-66010002D01*
X127000500Y-65410000D01*
X127510082Y-65410000D01*
X127527582Y-65497985D01*
X127527583Y-65497987D01*
X127573407Y-65566567D01*
X127577423Y-65572577D01*
X127600035Y-65587686D01*
X127652012Y-65622416D01*
X127652014Y-65622417D01*
X127740000Y-65639918D01*
X127827986Y-65622417D01*
X127902577Y-65572577D01*
X127952417Y-65497986D01*
X127969918Y-65410000D01*
X127952417Y-65322014D01*
X127949879Y-65318216D01*
X127911891Y-65261362D01*
X127902577Y-65247423D01*
X127892384Y-65240612D01*
X127827986Y-65197582D01*
X127802446Y-65192502D01*
X127787173Y-65182296D01*
X127784303Y-65176378D01*
X127784045Y-65175582D01*
X127783446Y-65175147D01*
X127766776Y-65163035D01*
X127763912Y-65160590D01*
X127763027Y-65159705D01*
X127761695Y-65158258D01*
X127747589Y-65141627D01*
X127744991Y-65139828D01*
X127745043Y-65139751D01*
X127739669Y-65136347D01*
X127738722Y-65135401D01*
X127732583Y-65124898D01*
X127732088Y-65123128D01*
X127731336Y-65119209D01*
X127730635Y-65112635D01*
X127730500Y-65110090D01*
X127730500Y-64918855D01*
X127730703Y-64915737D01*
X127737137Y-64866892D01*
X127738757Y-64860850D01*
X127738977Y-64860319D01*
X127757002Y-64816805D01*
X127760125Y-64811396D01*
X127789167Y-64773549D01*
X127793588Y-64769128D01*
X127831392Y-64740119D01*
X127836802Y-64736995D01*
X127880851Y-64718748D01*
X127886891Y-64717129D01*
X127924021Y-64712238D01*
X127935670Y-64710705D01*
X127938803Y-64710500D01*
X128200638Y-64710500D01*
X128203772Y-64710706D01*
X128221665Y-64713063D01*
X128227716Y-64714684D01*
X128242934Y-64720988D01*
X128248357Y-64724119D01*
X128256554Y-64730410D01*
X128262730Y-64735149D01*
X128265089Y-64737218D01*
X128285266Y-64757394D01*
X128285300Y-64757419D01*
X128290776Y-64762895D01*
X128301568Y-64769126D01*
X128356506Y-64800847D01*
X128429820Y-64820497D01*
X128449066Y-64820497D01*
X128449079Y-64820500D01*
X128467771Y-64820500D01*
X128494700Y-64820502D01*
X128494701Y-64820500D01*
X128498244Y-64820501D01*
X128498259Y-64820500D01*
X128544083Y-64820500D01*
X128569669Y-64820500D01*
X128586640Y-64827529D01*
X128593669Y-64844500D01*
X128592851Y-64850712D01*
X128579500Y-64900532D01*
X128579500Y-65038530D01*
X128572471Y-65055501D01*
X128555500Y-65062530D01*
X128538529Y-65055501D01*
X128535546Y-65051865D01*
X128532580Y-65047427D01*
X128532578Y-65047425D01*
X128532577Y-65047423D01*
X128519109Y-65038424D01*
X128457987Y-64997583D01*
X128457985Y-64997582D01*
X128370000Y-64980082D01*
X128282014Y-64997582D01*
X128282012Y-64997583D01*
X128207425Y-65047421D01*
X128207421Y-65047425D01*
X128157583Y-65122012D01*
X128157582Y-65122014D01*
X128140082Y-65210000D01*
X128157582Y-65297985D01*
X128157583Y-65297987D01*
X128199792Y-65361157D01*
X128207423Y-65372577D01*
X128244718Y-65397497D01*
X128282012Y-65422416D01*
X128282014Y-65422417D01*
X128370000Y-65439918D01*
X128457986Y-65422417D01*
X128532577Y-65372577D01*
X128568901Y-65318213D01*
X128582637Y-65308368D01*
X128634947Y-65294344D01*
X128688998Y-65263132D01*
X128711064Y-65241064D01*
X128730106Y-65222023D01*
X128730106Y-65222021D01*
X128732385Y-65219743D01*
X128732439Y-65219673D01*
X128733120Y-65218992D01*
X128733120Y-65218991D01*
X128733122Y-65218990D01*
X128764332Y-65164942D01*
X128775068Y-65124898D01*
X128780494Y-65104662D01*
X128780494Y-65104298D01*
X128780495Y-65091879D01*
X128780500Y-65091844D01*
X128780500Y-65072376D01*
X128780502Y-65062373D01*
X128780506Y-65046525D01*
X128780505Y-65046523D01*
X128780506Y-65043545D01*
X128780500Y-65043489D01*
X128780500Y-64931569D01*
X128787528Y-64914599D01*
X128805106Y-64897023D01*
X128805106Y-64897022D01*
X128807162Y-64894967D01*
X128829997Y-64839836D01*
X128829997Y-64780164D01*
X128826230Y-64771070D01*
X128807162Y-64725033D01*
X128786064Y-64703936D01*
X128786063Y-64703935D01*
X128770047Y-64687918D01*
X128769976Y-64687825D01*
X128767755Y-64685606D01*
X128755488Y-64673353D01*
X128755475Y-64673321D01*
X128733736Y-64651603D01*
X128712153Y-64639153D01*
X128697065Y-64630449D01*
X128697061Y-64630448D01*
X128697059Y-64630447D01*
X128656169Y-64619498D01*
X128656168Y-64619498D01*
X128635000Y-64619500D01*
X128469361Y-64619500D01*
X128466229Y-64619294D01*
X128458431Y-64618267D01*
X128448331Y-64616936D01*
X128442283Y-64615315D01*
X128427066Y-64609012D01*
X128421640Y-64605879D01*
X128407264Y-64594846D01*
X128404907Y-64592779D01*
X128384805Y-64572675D01*
X128384755Y-64572637D01*
X128379224Y-64567105D01*
X128379220Y-64567102D01*
X128313494Y-64529152D01*
X128240174Y-64509502D01*
X128240180Y-64509502D01*
X128220075Y-64509501D01*
X128220061Y-64509500D01*
X128218135Y-64509500D01*
X128202228Y-64509500D01*
X128175299Y-64509498D01*
X128175298Y-64509498D01*
X128171754Y-64509498D01*
X128171740Y-64509500D01*
X127967760Y-64509500D01*
X127967745Y-64509498D01*
X127964201Y-64509498D01*
X127957441Y-64509498D01*
X127947221Y-64509499D01*
X127947201Y-64509491D01*
X127897110Y-64509494D01*
X127818332Y-64525168D01*
X127818330Y-64525168D01*
X127744120Y-64555909D01*
X127677337Y-64600535D01*
X127677331Y-64600540D01*
X127648935Y-64628935D01*
X127648936Y-64628936D01*
X127627940Y-64649931D01*
X127627901Y-64649980D01*
X127620547Y-64657335D01*
X127620540Y-64657343D01*
X127575916Y-64724124D01*
X127545176Y-64798332D01*
X127545176Y-64798334D01*
X127529502Y-64877111D01*
X127529501Y-64899882D01*
X127529500Y-64899902D01*
X127529500Y-64901362D01*
X127529500Y-64913469D01*
X127529500Y-64917272D01*
X127529499Y-64937626D01*
X127529498Y-64947746D01*
X127529500Y-64947759D01*
X127529500Y-64994707D01*
X127522882Y-65010683D01*
X127526284Y-65013293D01*
X127529500Y-65025293D01*
X127529500Y-65083505D01*
X127528897Y-65088528D01*
X127529494Y-65114323D01*
X127529500Y-65114877D01*
X127529500Y-65129353D01*
X127529658Y-65130354D01*
X127529945Y-65133525D01*
X127530042Y-65137604D01*
X127538279Y-65180536D01*
X127538280Y-65180539D01*
X127545614Y-65200263D01*
X127546823Y-65204868D01*
X127547136Y-65206843D01*
X127547136Y-65206844D01*
X127548744Y-65210000D01*
X127549932Y-65212332D01*
X127551040Y-65214858D01*
X127553515Y-65221511D01*
X127553516Y-65221514D01*
X127562810Y-65237676D01*
X127563389Y-65238744D01*
X127565583Y-65243050D01*
X127567024Y-65261362D01*
X127564154Y-65267280D01*
X127527583Y-65322012D01*
X127527582Y-65322014D01*
X127510082Y-65410000D01*
X127000500Y-65410000D01*
X127000500Y-65010002D01*
X127235249Y-65010002D01*
X127251960Y-65072373D01*
X127251961Y-65072374D01*
X127251962Y-65072376D01*
X127297624Y-65118038D01*
X127297625Y-65118038D01*
X127297626Y-65118039D01*
X127359998Y-65134751D01*
X127360000Y-65134751D01*
X127360002Y-65134751D01*
X127422373Y-65118039D01*
X127422373Y-65118038D01*
X127422376Y-65118038D01*
X127468038Y-65072376D01*
X127470676Y-65062530D01*
X127482318Y-65019082D01*
X127488301Y-65011283D01*
X127482318Y-65000919D01*
X127477028Y-64981176D01*
X127468038Y-64947625D01*
X127422376Y-64901962D01*
X127414613Y-64899882D01*
X127360001Y-64885249D01*
X127359999Y-64885249D01*
X127297626Y-64901961D01*
X127251961Y-64947626D01*
X127235249Y-65009999D01*
X127235249Y-65010002D01*
X127000500Y-65010002D01*
X127000500Y-64691892D01*
X127000795Y-64688138D01*
X127002543Y-64677102D01*
X127013586Y-64607379D01*
X127015904Y-64600245D01*
X127052155Y-64529098D01*
X127056563Y-64523030D01*
X127113030Y-64466563D01*
X127119098Y-64462155D01*
X127190245Y-64425904D01*
X127197379Y-64423586D01*
X127268076Y-64412388D01*
X127278138Y-64410795D01*
X127281892Y-64410500D01*
X127286661Y-64410500D01*
X131303339Y-64410500D01*
X131308108Y-64410500D01*
X131311862Y-64410795D01*
G37*
G04 #@! TD.AperFunction*
G04 #@! TA.AperFunction,NonConductor*
G36*
X129993053Y-68883016D02*
G01*
X129999164Y-68897772D01*
X129999621Y-68897682D01*
X130000077Y-68899975D01*
X130000082Y-68899987D01*
X130000082Y-68899999D01*
X130000082Y-68900000D01*
X130001691Y-68908091D01*
X130017582Y-68987985D01*
X130017583Y-68987987D01*
X130061071Y-69053071D01*
X130067423Y-69062577D01*
X130103208Y-69086488D01*
X130142012Y-69112416D01*
X130142014Y-69112417D01*
X130230000Y-69129918D01*
X130250818Y-69125777D01*
X130268834Y-69129361D01*
X130279039Y-69144634D01*
X130279500Y-69149316D01*
X130279500Y-69195500D01*
X130272471Y-69212471D01*
X130255500Y-69219500D01*
X129724500Y-69219500D01*
X129707529Y-69212471D01*
X129700500Y-69195500D01*
X129700500Y-69102111D01*
X129700502Y-69102090D01*
X129700501Y-69098843D01*
X129700503Y-69098841D01*
X129700500Y-69073483D01*
X129700705Y-69070353D01*
X129700745Y-69070053D01*
X129704222Y-69043617D01*
X129705840Y-69037573D01*
X129715556Y-69014113D01*
X129718681Y-69008701D01*
X129735062Y-68987351D01*
X129737119Y-68985005D01*
X129757447Y-68964680D01*
X129757453Y-68964686D01*
X129759848Y-68962566D01*
X129765312Y-68958374D01*
X129770722Y-68955252D01*
X129775604Y-68953230D01*
X129781645Y-68951613D01*
X129784972Y-68951176D01*
X129788553Y-68950705D01*
X129791682Y-68950500D01*
X129820258Y-68950500D01*
X129820355Y-68950485D01*
X129822296Y-68950486D01*
X129884689Y-68933773D01*
X129940632Y-68901485D01*
X129950718Y-68891401D01*
X129950752Y-68891374D01*
X129952231Y-68889894D01*
X129952235Y-68889893D01*
X129959112Y-68883015D01*
X129976082Y-68875987D01*
X129993053Y-68883016D01*
G37*
G04 #@! TD.AperFunction*
G04 #@! TA.AperFunction,NonConductor*
G36*
X130362559Y-67990704D02*
G01*
X130393722Y-67994808D01*
X130399762Y-67996427D01*
X130427334Y-68007847D01*
X130432754Y-68010977D01*
X130456440Y-68029152D01*
X130460861Y-68033573D01*
X130479022Y-68057240D01*
X130482154Y-68062665D01*
X130493572Y-68090229D01*
X130495194Y-68096281D01*
X130499295Y-68127424D01*
X130499500Y-68130557D01*
X130499500Y-68190637D01*
X130499294Y-68193773D01*
X130496936Y-68211667D01*
X130495315Y-68217716D01*
X130489012Y-68232932D01*
X130485879Y-68238358D01*
X130474850Y-68252730D01*
X130472781Y-68255089D01*
X130452939Y-68274931D01*
X130452904Y-68274976D01*
X130447105Y-68280775D01*
X130409152Y-68346506D01*
X130389502Y-68419820D01*
X130389501Y-68440384D01*
X130389500Y-68440404D01*
X130389500Y-68441864D01*
X130389500Y-68455305D01*
X130389500Y-68457771D01*
X130389499Y-68480286D01*
X130389498Y-68488221D01*
X130389507Y-68488281D01*
X130389507Y-68511834D01*
X130411160Y-68592654D01*
X130411161Y-68592656D01*
X130452989Y-68665111D01*
X130452991Y-68665114D01*
X130469947Y-68682071D01*
X130469966Y-68682094D01*
X130471320Y-68683448D01*
X130482570Y-68694698D01*
X130500104Y-68712235D01*
X130504978Y-68717109D01*
X130504988Y-68717116D01*
X130532825Y-68744954D01*
X130534887Y-68747305D01*
X130560302Y-68780428D01*
X130578434Y-68804059D01*
X130581566Y-68809485D01*
X130608327Y-68874097D01*
X130609949Y-68880150D01*
X130619294Y-68951176D01*
X130619499Y-68954308D01*
X130619498Y-68983099D01*
X130619500Y-68983112D01*
X130619500Y-69193549D01*
X130619294Y-69196687D01*
X130616351Y-69219004D01*
X130614729Y-69225053D01*
X130606718Y-69244388D01*
X130603586Y-69249812D01*
X130589789Y-69267791D01*
X130587721Y-69270149D01*
X130580192Y-69277679D01*
X130580191Y-69277681D01*
X130507978Y-69349894D01*
X130507977Y-69349894D01*
X130490045Y-69367825D01*
X130487685Y-69369895D01*
X130483964Y-69372750D01*
X130478545Y-69375879D01*
X130475672Y-69377070D01*
X130469619Y-69378694D01*
X130467196Y-69379013D01*
X130465068Y-69379294D01*
X130461932Y-69379500D01*
X130450570Y-69379500D01*
X130433599Y-69372471D01*
X130426570Y-69355500D01*
X130433598Y-69338530D01*
X130435106Y-69337023D01*
X130435106Y-69337021D01*
X130436537Y-69335590D01*
X130436540Y-69335586D01*
X130436540Y-69335585D01*
X130436543Y-69335583D01*
X130465506Y-69285418D01*
X130480499Y-69229467D01*
X130480499Y-69221195D01*
X130480500Y-69221190D01*
X130480500Y-69091843D01*
X130481109Y-69086752D01*
X130480507Y-69061059D01*
X130480500Y-69060497D01*
X130480500Y-69046007D01*
X130480367Y-69045169D01*
X130480078Y-69041978D01*
X130479973Y-69037565D01*
X130479778Y-69029319D01*
X130471016Y-68983591D01*
X130468392Y-68969894D01*
X130468391Y-68969890D01*
X130456187Y-68936986D01*
X130455151Y-68923963D01*
X130459918Y-68900000D01*
X130442417Y-68812014D01*
X130441433Y-68810542D01*
X130411823Y-68766227D01*
X130392577Y-68737423D01*
X130372494Y-68724004D01*
X130317987Y-68687583D01*
X130317985Y-68687582D01*
X130230000Y-68670082D01*
X130177791Y-68680466D01*
X130159775Y-68676882D01*
X130149570Y-68661609D01*
X130150936Y-68647742D01*
X130180231Y-68577025D01*
X130200497Y-68475159D01*
X130200498Y-68441933D01*
X130200500Y-68441928D01*
X130200500Y-68405980D01*
X130200501Y-68396300D01*
X130200500Y-68396298D01*
X130200500Y-68073159D01*
X130201318Y-68066948D01*
X130209486Y-68036463D01*
X130215695Y-68025705D01*
X130235705Y-68005695D01*
X130246462Y-67999486D01*
X130270965Y-67992921D01*
X130276948Y-67991318D01*
X130283159Y-67990500D01*
X130306929Y-67990500D01*
X130359427Y-67990500D01*
X130362559Y-67990704D01*
G37*
G04 #@! TD.AperFunction*
M02*
