G04 #@! TF.GenerationSoftware,KiCad,Pcbnew,7.0.10*
G04 #@! TF.CreationDate,2025-04-07T09:12:42-04:00*
G04 #@! TF.ProjectId,nerve_cuff_local-rounded,6e657276-655f-4637-9566-665f6c6f6361,rev?*
G04 #@! TF.SameCoordinates,Original*
G04 #@! TF.FileFunction,Copper,L1,Top*
G04 #@! TF.FilePolarity,Positive*
%FSLAX46Y46*%
G04 Gerber Fmt 4.6, Leading zero omitted, Abs format (unit mm)*
G04 Created by KiCad (PCBNEW 7.0.10) date 2025-04-07 09:12:42*
%MOMM*%
%LPD*%
G01*
G04 APERTURE LIST*
G04 Aperture macros list*
%AMRoundRect*
0 Rectangle with rounded corners*
0 $1 Rounding radius*
0 $2 $3 $4 $5 $6 $7 $8 $9 X,Y pos of 4 corners*
0 Add a 4 corners polygon primitive as box body*
4,1,4,$2,$3,$4,$5,$6,$7,$8,$9,$2,$3,0*
0 Add four circle primitives for the rounded corners*
1,1,$1+$1,$2,$3*
1,1,$1+$1,$4,$5*
1,1,$1+$1,$6,$7*
1,1,$1+$1,$8,$9*
0 Add four rect primitives between the rounded corners*
20,1,$1+$1,$2,$3,$4,$5,0*
20,1,$1+$1,$4,$5,$6,$7,0*
20,1,$1+$1,$6,$7,$8,$9,0*
20,1,$1+$1,$8,$9,$2,$3,0*%
G04 Aperture macros list end*
G04 #@! TA.AperFunction,SMDPad,CuDef*
%ADD10RoundRect,0.075000X-0.075000X-0.075000X0.075000X-0.075000X0.075000X0.075000X-0.075000X0.075000X0*%
G04 #@! TD*
G04 #@! TA.AperFunction,ViaPad*
%ADD11C,0.350000*%
G04 #@! TD*
G04 #@! TA.AperFunction,Conductor*
%ADD12C,0.100000*%
G04 #@! TD*
G04 APERTURE END LIST*
D10*
X130470000Y-66150000D03*
X130720000Y-65440000D03*
D11*
X130020000Y-65250000D03*
X127740000Y-65410000D03*
X130060000Y-67550000D03*
X128930000Y-68040000D03*
X128300000Y-68820000D03*
X128370000Y-65210000D03*
X129351955Y-65829695D03*
X130230000Y-68900000D03*
D12*
X127807429Y-65410000D02*
X127812074Y-65414645D01*
X129890000Y-68652218D02*
X129890000Y-68000000D01*
X129507500Y-67902500D02*
X129420000Y-67990000D01*
X130117781Y-64600000D02*
X130471005Y-64600000D01*
X127832040Y-65653677D02*
X127758880Y-65726836D01*
X130140653Y-66641115D02*
X130154538Y-66655000D01*
X129923322Y-67550000D02*
X129903317Y-67529995D01*
X128250000Y-66261213D02*
X128250000Y-66590000D01*
X127978994Y-66210000D02*
X128198786Y-66210000D01*
X127970000Y-69150000D02*
X127970000Y-68990710D01*
X129270000Y-68900000D02*
X129270000Y-68907500D01*
X127970000Y-64818284D02*
X127970000Y-64932928D01*
X128045000Y-66715000D02*
X128014142Y-66745857D01*
X130168680Y-68838680D02*
X130040692Y-68838680D01*
X130140653Y-66204832D02*
X130140653Y-66641115D01*
X129941361Y-67178682D02*
X130228202Y-66891841D01*
X128535000Y-67170000D02*
X128577573Y-67170000D01*
X129466966Y-68623033D02*
X129326568Y-68763431D01*
X127980000Y-64957071D02*
X127980000Y-65073431D01*
X129730000Y-67840000D02*
X129647781Y-67840000D01*
X130710000Y-64838994D02*
X130710000Y-65432928D01*
X129100000Y-64770000D02*
X129136862Y-64806862D01*
X128370000Y-65210000D02*
X128116568Y-65210000D01*
X129480000Y-65560000D02*
X129480000Y-65572218D01*
X128014142Y-66814142D02*
X128030000Y-66830000D01*
X128040000Y-69300000D02*
X127998284Y-69258284D01*
X129425000Y-65705000D02*
X129377071Y-65752928D01*
X129520000Y-68427071D02*
X129520000Y-68495000D01*
X128038284Y-64750000D02*
X128138076Y-64750000D01*
X128737867Y-64620000D02*
X128451923Y-64620000D01*
X130140000Y-66557573D02*
X130140294Y-66577889D01*
X129380000Y-68260000D02*
X129380000Y-68275000D01*
X128288890Y-67008890D02*
X128389895Y-67109895D01*
X130412908Y-66846630D02*
X130429538Y-66830000D01*
X128930000Y-68015000D02*
X128930000Y-68040000D01*
X128102426Y-66860000D02*
X128195000Y-66860000D01*
X127741816Y-65768034D02*
X127741816Y-65792167D01*
X128225000Y-69310000D02*
X128210000Y-69310000D01*
X129515000Y-67895000D02*
X129507500Y-67902500D01*
X129630000Y-65030000D02*
X129630000Y-64992426D01*
X128440000Y-67525000D02*
X128440000Y-67665000D01*
X127970000Y-69190000D02*
X127970000Y-69150000D01*
X128605000Y-67830000D02*
X128656862Y-67830000D01*
X128560502Y-67440000D02*
X128525000Y-67440000D01*
X130470000Y-66150000D02*
X130208284Y-66150000D01*
X130302936Y-66873638D02*
X130304298Y-66875000D01*
X128210000Y-69310000D02*
X128057071Y-69310000D01*
X129600000Y-64920000D02*
X129594748Y-64914748D01*
X128850000Y-67910000D02*
X128912322Y-67972322D01*
X130060000Y-67550000D02*
X129923322Y-67550000D01*
X127850000Y-65548994D02*
X127850000Y-65565147D01*
X130264538Y-66695000D02*
X130251107Y-66695000D01*
X128689583Y-69450000D02*
X128478994Y-69450000D01*
X129383535Y-68283535D02*
X129500000Y-68400000D01*
X128140710Y-68820000D02*
X128300000Y-68820000D01*
X129388477Y-65741522D02*
X129425000Y-65705000D01*
X129416360Y-65406360D02*
X129363137Y-65353137D01*
X129594748Y-64795251D02*
X129625000Y-64765000D01*
X129500000Y-68400000D02*
X129515000Y-68415000D01*
X127740000Y-65410000D02*
X127807429Y-65410000D01*
X129695000Y-65175000D02*
X129686568Y-65166568D01*
X129270000Y-68907500D02*
X129270000Y-69045000D01*
X130715000Y-65445000D02*
X130720000Y-65450000D01*
X130335239Y-66695000D02*
X130285940Y-66695000D01*
X129380000Y-68086568D02*
X129380000Y-68260000D01*
X128680000Y-67272426D02*
X128680000Y-67320502D01*
X130510000Y-66160000D02*
X130515000Y-66155000D01*
X129757781Y-64710000D02*
X129852218Y-64710000D01*
X128045000Y-69305000D02*
X128040000Y-69300000D01*
X127741816Y-65792167D02*
X127741816Y-66018183D01*
X129814235Y-67493101D02*
X129730310Y-67409176D01*
X128170000Y-66670000D02*
X128153639Y-66670000D01*
X129224038Y-69155961D02*
X129100000Y-69280000D01*
X130230000Y-68900000D02*
X130168680Y-68838680D01*
X128310000Y-69380000D02*
X128250606Y-69320606D01*
X128440000Y-67665000D02*
G75*
G03*
X128605000Y-67830000I165000J0D01*
G01*
X129629990Y-65030000D02*
G75*
G03*
X129686569Y-65166567I193110J0D01*
G01*
X129805742Y-67220039D02*
G75*
G03*
X129677708Y-67273033I-42J-181061D01*
G01*
X129326576Y-68763439D02*
G75*
G03*
X129270000Y-68900000I136524J-136561D01*
G01*
X130710002Y-64838994D02*
G75*
G03*
X130640000Y-64670000I-239002J-6D01*
G01*
X128250000Y-66915000D02*
G75*
G03*
X128195000Y-66860000I-55000J0D01*
G01*
X129660763Y-67369978D02*
G75*
G03*
X129730310Y-67409176I111637J116778D01*
G01*
X129388490Y-65741535D02*
G75*
G03*
X129351955Y-65829695I88110J-88165D01*
G01*
X128451923Y-64620010D02*
G75*
G03*
X128295000Y-64685000I-23J-221890D01*
G01*
X129852218Y-64710007D02*
G75*
G03*
X129985000Y-64655000I-18J187807D01*
G01*
X127810001Y-66139999D02*
G75*
G03*
X127978994Y-66210000I168999J168999D01*
G01*
X128644999Y-67404999D02*
G75*
G03*
X128680000Y-67320502I-84499J84499D01*
G01*
X129224034Y-69155957D02*
G75*
G03*
X129270000Y-69045000I-110934J110957D01*
G01*
X130709989Y-65432928D02*
G75*
G03*
X130715001Y-65444999I17111J28D01*
G01*
X130117781Y-64599993D02*
G75*
G03*
X129985000Y-64655000I19J-187807D01*
G01*
X128310001Y-69379999D02*
G75*
G03*
X128478994Y-69450000I168999J168999D01*
G01*
X130419374Y-66729883D02*
G75*
G03*
X130335239Y-66695000I-84174J-84117D01*
G01*
X128170000Y-66670000D02*
G75*
G03*
X128250000Y-66590000I0J80000D01*
G01*
X130639999Y-64670001D02*
G75*
G03*
X130471005Y-64600000I-168999J-168999D01*
G01*
X129647781Y-67839993D02*
G75*
G03*
X129515000Y-67895000I19J-187807D01*
G01*
X129570001Y-64855000D02*
G75*
G03*
X129594748Y-64914748I84499J0D01*
G01*
X127850018Y-65548994D02*
G75*
G03*
X127812074Y-65414645I-277018J-5706D01*
G01*
X128679989Y-67272426D02*
G75*
G03*
X128650000Y-67200000I-102389J26D01*
G01*
X129250008Y-65080000D02*
G75*
G03*
X129363137Y-65353137I386292J0D01*
G01*
X128000005Y-66780000D02*
G75*
G03*
X128014142Y-66814142I48295J0D01*
G01*
X129479993Y-65560000D02*
G75*
G03*
X129416359Y-65406361I-217293J0D01*
G01*
X128038284Y-64749994D02*
G75*
G03*
X127990000Y-64770000I16J-68306D01*
G01*
X130413431Y-66200013D02*
G75*
G03*
X130510000Y-66160000I-31J136613D01*
G01*
X128389897Y-67109893D02*
G75*
G03*
X128535000Y-67170000I145103J145093D01*
G01*
X129757781Y-64709993D02*
G75*
G03*
X129625000Y-64765000I19J-187807D01*
G01*
X129944999Y-68785001D02*
G75*
G03*
X130040692Y-68838680I151701J158301D01*
G01*
X130154528Y-66655010D02*
G75*
G03*
X130251107Y-66695000I96572J96610D01*
G01*
X128929986Y-68015000D02*
G75*
G03*
X128912321Y-67972323I-60386J0D01*
G01*
X129420009Y-67990009D02*
G75*
G03*
X129380000Y-68086568I96591J-96591D01*
G01*
X129380009Y-68275000D02*
G75*
G03*
X129383535Y-68283535I12091J0D01*
G01*
X128525000Y-67440000D02*
G75*
G03*
X128440000Y-67525000I0J-85000D01*
G01*
X129424995Y-65704995D02*
G75*
G03*
X129480000Y-65572218I-132795J132795D01*
G01*
X129890000Y-68000000D02*
G75*
G03*
X129730000Y-67840000I-160000J0D01*
G01*
X128250603Y-69320609D02*
G75*
G03*
X128225000Y-69310000I-25603J-25591D01*
G01*
X127990005Y-64770005D02*
G75*
G03*
X127970000Y-64818284I48295J-48295D01*
G01*
X130429538Y-66830000D02*
G75*
G03*
X130429538Y-66740000I-45038J45000D01*
G01*
X130344418Y-66875000D02*
G75*
G03*
X130412908Y-66846630I-18J96900D01*
G01*
X129889993Y-68652218D02*
G75*
G03*
X129945000Y-68785000I187807J18D01*
G01*
X129249992Y-65080000D02*
G75*
G03*
X129136862Y-64806862I-386292J0D01*
G01*
X128689583Y-69449993D02*
G75*
G03*
X129100000Y-69280000I17J580393D01*
G01*
X128029992Y-66830008D02*
G75*
G03*
X128102426Y-66860000I72408J72408D01*
G01*
X129805743Y-67220024D02*
G75*
G03*
X129907592Y-67191361I-4543J211424D01*
G01*
X129594748Y-64795251D02*
G75*
G03*
X129570000Y-64855000I59752J-59749D01*
G01*
X129100009Y-64769991D02*
G75*
G03*
X128737867Y-64620000I-362109J-362109D01*
G01*
X127969989Y-64932928D02*
G75*
G03*
X127975001Y-64944999I17111J28D01*
G01*
X128138076Y-64749990D02*
G75*
G03*
X128295000Y-64685000I24J221890D01*
G01*
X128249994Y-66261213D02*
G75*
G03*
X128235000Y-66225000I-51194J13D01*
G01*
X128650008Y-67199992D02*
G75*
G03*
X128577573Y-67170000I-72408J-72408D01*
G01*
X128153639Y-66670017D02*
G75*
G03*
X128045000Y-66715000I-39J-153583D01*
G01*
X128250006Y-66915000D02*
G75*
G03*
X128288890Y-67008890I132794J0D01*
G01*
X127832044Y-65653679D02*
G75*
G03*
X127850000Y-65565147I-249444J96679D01*
G01*
X128235004Y-66224996D02*
G75*
G03*
X128198786Y-66210000I-36204J-36204D01*
G01*
X128140710Y-68820005D02*
G75*
G03*
X128020000Y-68870000I-10J-170695D01*
G01*
X129466974Y-68623041D02*
G75*
G03*
X129520000Y-68495000I-128074J128041D01*
G01*
X129814226Y-67493110D02*
G75*
G03*
X129903317Y-67529995I89074J89110D01*
G01*
X129660743Y-67290001D02*
G75*
G03*
X129660743Y-67369999I39957J-39999D01*
G01*
X128850011Y-67909989D02*
G75*
G03*
X128656862Y-67830000I-193111J-193111D01*
G01*
X127970010Y-69190000D02*
G75*
G03*
X127998285Y-69258283I96590J0D01*
G01*
X130208284Y-66149994D02*
G75*
G03*
X130160000Y-66170000I16J-68306D01*
G01*
X127741803Y-66018186D02*
G75*
G03*
X127810000Y-66140000I267897J69986D01*
G01*
X130159981Y-66169982D02*
G75*
G03*
X130140654Y-66204832I55419J-53518D01*
G01*
X129629989Y-64992426D02*
G75*
G03*
X129600000Y-64920000I-102389J26D01*
G01*
X129694993Y-65175007D02*
G75*
G03*
X129851923Y-65240000I156907J156907D01*
G01*
X129520011Y-68427071D02*
G75*
G03*
X129514999Y-68415001I-17111J-29D01*
G01*
X128014139Y-66745854D02*
G75*
G03*
X128000000Y-66780000I34161J-34146D01*
G01*
X127979987Y-65073431D02*
G75*
G03*
X128020000Y-65170000I136613J31D01*
G01*
X127758859Y-65726815D02*
G75*
G03*
X127741816Y-65768034I41241J-41185D01*
G01*
X130289537Y-66874973D02*
G75*
G03*
X130228202Y-66891841I3763J-133627D01*
G01*
X128560502Y-67440001D02*
G75*
G03*
X128645000Y-67405000I-2J119501D01*
G01*
X128045008Y-69304992D02*
G75*
G03*
X128057071Y-69310000I12092J12092D01*
G01*
X127980011Y-64957071D02*
G75*
G03*
X127974999Y-64945001I-17111J-29D01*
G01*
X128020009Y-65169991D02*
G75*
G03*
X128116568Y-65210000I96591J96591D01*
G01*
X128019997Y-68869997D02*
G75*
G03*
X127970000Y-68990710I120703J-120703D01*
G01*
G04 #@! TA.AperFunction,NonConductor*
G36*
X131311862Y-64410795D02*
G01*
X131325168Y-64412902D01*
X131392618Y-64423585D01*
X131399756Y-64425905D01*
X131467745Y-64460547D01*
X131470897Y-64462153D01*
X131476972Y-64466566D01*
X131533433Y-64523027D01*
X131537846Y-64529102D01*
X131574093Y-64600241D01*
X131576413Y-64607382D01*
X131589204Y-64688137D01*
X131589500Y-64691892D01*
X131589500Y-69398107D01*
X131589204Y-69401862D01*
X131576413Y-69482617D01*
X131574093Y-69489758D01*
X131537846Y-69560897D01*
X131533433Y-69566972D01*
X131476972Y-69623433D01*
X131470897Y-69627846D01*
X131399758Y-69664093D01*
X131392616Y-69666414D01*
X131312676Y-69679075D01*
X131308870Y-69679370D01*
X127225336Y-69670550D01*
X127221634Y-69670255D01*
X127197383Y-69666414D01*
X127190241Y-69664093D01*
X127119102Y-69627846D01*
X127113027Y-69623433D01*
X127056566Y-69566972D01*
X127052153Y-69560897D01*
X127015905Y-69489756D01*
X127013585Y-69482618D01*
X127005507Y-69431615D01*
X127000795Y-69401861D01*
X127000500Y-69398107D01*
X127000500Y-69000002D01*
X127235249Y-69000002D01*
X127251960Y-69062373D01*
X127251961Y-69062374D01*
X127251962Y-69062376D01*
X127297624Y-69108038D01*
X127297625Y-69108038D01*
X127297626Y-69108039D01*
X127359998Y-69124751D01*
X127360000Y-69124751D01*
X127360002Y-69124751D01*
X127422373Y-69108039D01*
X127422373Y-69108038D01*
X127422376Y-69108038D01*
X127468038Y-69062376D01*
X127471376Y-69049918D01*
X127484751Y-69000002D01*
X127484751Y-68999999D01*
X127478231Y-68975668D01*
X127472695Y-68955005D01*
X127869498Y-68955005D01*
X127869500Y-68982320D01*
X127869500Y-69207729D01*
X127869509Y-69207844D01*
X127869509Y-69215940D01*
X127879022Y-69251457D01*
X127882933Y-69266056D01*
X127908865Y-69310986D01*
X127914582Y-69316705D01*
X127914612Y-69316740D01*
X127915965Y-69318093D01*
X127927203Y-69329331D01*
X127927203Y-69329332D01*
X127927206Y-69329335D01*
X127948523Y-69350661D01*
X127948564Y-69350692D01*
X127954893Y-69357021D01*
X127954892Y-69357021D01*
X127973935Y-69376063D01*
X127973935Y-69376064D01*
X127985191Y-69387319D01*
X127986137Y-69387801D01*
X127994661Y-69395080D01*
X127994959Y-69395490D01*
X128003108Y-69398138D01*
X128007698Y-69400183D01*
X128011615Y-69402447D01*
X128016122Y-69403660D01*
X128020773Y-69405449D01*
X128028469Y-69409370D01*
X128028966Y-69409291D01*
X128040144Y-69410172D01*
X128040767Y-69410374D01*
X128041152Y-69410499D01*
X128041152Y-69410500D01*
X128056901Y-69410500D01*
X128083829Y-69410545D01*
X128083830Y-69410544D01*
X128086766Y-69410549D01*
X128087144Y-69410500D01*
X128188430Y-69410500D01*
X128205401Y-69417529D01*
X128219893Y-69432021D01*
X128219892Y-69432021D01*
X128238935Y-69451063D01*
X128238935Y-69451064D01*
X128238936Y-69451064D01*
X128251558Y-69463686D01*
X128251565Y-69463692D01*
X128270490Y-69482616D01*
X128270541Y-69482667D01*
X128347954Y-69527362D01*
X128434297Y-69550500D01*
X128707485Y-69550500D01*
X128707565Y-69550493D01*
X128756645Y-69550495D01*
X128888197Y-69524331D01*
X129012117Y-69473003D01*
X129105594Y-69410545D01*
X129123635Y-69398491D01*
X129123636Y-69398489D01*
X129123642Y-69398486D01*
X129159807Y-69362320D01*
X129159810Y-69362319D01*
X129306358Y-69215770D01*
X129306359Y-69215766D01*
X129307930Y-69214196D01*
X129307964Y-69214155D01*
X129319058Y-69203065D01*
X129352953Y-69144365D01*
X129370499Y-69078892D01*
X129370500Y-69045000D01*
X129370500Y-69018071D01*
X129370500Y-68901575D01*
X129370705Y-68898443D01*
X129372339Y-68886030D01*
X129373244Y-68879154D01*
X129374863Y-68873114D01*
X129381701Y-68856609D01*
X129384832Y-68851189D01*
X129396726Y-68835692D01*
X129398797Y-68833331D01*
X129402906Y-68829223D01*
X129416667Y-68815466D01*
X129416667Y-68815465D01*
X129419070Y-68813063D01*
X129419091Y-68813035D01*
X129516238Y-68715887D01*
X129516261Y-68715871D01*
X129518999Y-68713132D01*
X129519000Y-68713132D01*
X129531002Y-68701126D01*
X129531028Y-68701115D01*
X129538046Y-68694095D01*
X129538047Y-68694096D01*
X129564255Y-68667882D01*
X129601317Y-68603677D01*
X129620501Y-68532067D01*
X129620500Y-68495000D01*
X129620500Y-68468071D01*
X129620500Y-68457144D01*
X129620549Y-68456766D01*
X129620544Y-68453830D01*
X129620545Y-68453829D01*
X129620516Y-68436865D01*
X129620524Y-68436845D01*
X129620510Y-68426901D01*
X129620511Y-68426901D01*
X129620500Y-68419175D01*
X129620500Y-68411154D01*
X129620500Y-68411151D01*
X129620173Y-68410147D01*
X129619291Y-68398966D01*
X129619370Y-68398469D01*
X129615473Y-68390820D01*
X129613685Y-68386172D01*
X129612458Y-68381611D01*
X129612456Y-68381608D01*
X129612456Y-68381606D01*
X129610167Y-68377647D01*
X129608122Y-68373058D01*
X129605490Y-68364959D01*
X129605077Y-68364659D01*
X129597804Y-68356143D01*
X129597316Y-68355186D01*
X129597304Y-68355169D01*
X129586064Y-68343936D01*
X129586059Y-68343931D01*
X129565655Y-68323526D01*
X129565655Y-68323527D01*
X129487529Y-68245401D01*
X129480500Y-68228430D01*
X129480500Y-68088168D01*
X129480706Y-68085031D01*
X129481319Y-68080382D01*
X129482938Y-68074338D01*
X129484131Y-68071460D01*
X129487259Y-68066044D01*
X129490177Y-68062241D01*
X129492246Y-68059882D01*
X129496790Y-68055338D01*
X129510106Y-68042023D01*
X129510106Y-68042022D01*
X129513478Y-68038650D01*
X129513479Y-68038647D01*
X129563647Y-67988479D01*
X129563650Y-67988478D01*
X129567022Y-67985106D01*
X129567023Y-67985106D01*
X129581878Y-67970250D01*
X129584946Y-67967182D01*
X129587297Y-67965118D01*
X129601641Y-67954111D01*
X129607058Y-67950983D01*
X129622283Y-67944676D01*
X129628330Y-67943056D01*
X129646174Y-67940705D01*
X129649308Y-67940500D01*
X129703071Y-67940500D01*
X129726842Y-67940500D01*
X129733053Y-67941318D01*
X129753536Y-67946806D01*
X129764296Y-67953017D01*
X129776982Y-67965703D01*
X129783193Y-67976462D01*
X129788682Y-67996948D01*
X129789500Y-68003157D01*
X129789500Y-68622497D01*
X129789498Y-68622515D01*
X129789499Y-68642279D01*
X129789492Y-68642297D01*
X129789495Y-68690178D01*
X129809146Y-68763496D01*
X129839154Y-68815466D01*
X129847100Y-68829228D01*
X129847102Y-68829230D01*
X129852774Y-68834903D01*
X129855663Y-68838586D01*
X129874481Y-68856618D01*
X129874846Y-68856975D01*
X129890977Y-68873105D01*
X129892978Y-68875106D01*
X129892980Y-68875106D01*
X129894015Y-68875704D01*
X129895481Y-68876622D01*
X129916803Y-68891068D01*
X129939700Y-68906583D01*
X129939703Y-68906584D01*
X129939704Y-68906585D01*
X129939706Y-68906586D01*
X129988884Y-68928956D01*
X129988891Y-68928959D01*
X129988895Y-68928960D01*
X129992280Y-68929852D01*
X130006900Y-68940974D01*
X130009704Y-68948378D01*
X130017582Y-68987986D01*
X130063340Y-69056466D01*
X130067423Y-69062577D01*
X130104718Y-69087497D01*
X130142012Y-69112416D01*
X130142014Y-69112417D01*
X130230000Y-69129918D01*
X130317986Y-69112417D01*
X130392577Y-69062577D01*
X130434388Y-69000002D01*
X131095249Y-69000002D01*
X131111960Y-69062373D01*
X131111961Y-69062374D01*
X131111962Y-69062376D01*
X131157624Y-69108038D01*
X131157625Y-69108038D01*
X131157626Y-69108039D01*
X131219998Y-69124751D01*
X131220000Y-69124751D01*
X131220002Y-69124751D01*
X131282373Y-69108039D01*
X131282373Y-69108038D01*
X131282376Y-69108038D01*
X131328038Y-69062376D01*
X131331376Y-69049918D01*
X131344751Y-69000002D01*
X131344751Y-68999999D01*
X131338231Y-68975668D01*
X131328038Y-68937625D01*
X131282376Y-68891962D01*
X131260237Y-68886030D01*
X131220001Y-68875249D01*
X131219999Y-68875249D01*
X131157626Y-68891961D01*
X131111961Y-68937626D01*
X131095249Y-68999999D01*
X131095249Y-69000002D01*
X130434388Y-69000002D01*
X130442417Y-68987986D01*
X130459918Y-68900000D01*
X130442417Y-68812014D01*
X130420954Y-68779893D01*
X130409998Y-68763495D01*
X130392577Y-68737423D01*
X130372093Y-68723736D01*
X130317987Y-68687583D01*
X130317985Y-68687582D01*
X130230000Y-68670082D01*
X130142014Y-68687582D01*
X130142012Y-68687583D01*
X130073094Y-68733633D01*
X130055078Y-68737217D01*
X130051702Y-68736284D01*
X130049439Y-68735477D01*
X130045764Y-68733805D01*
X130031856Y-68726003D01*
X130028510Y-68723736D01*
X130017757Y-68715043D01*
X130013806Y-68710991D01*
X130009093Y-68704850D01*
X130004112Y-68698360D01*
X130000983Y-68692941D01*
X129994676Y-68677717D01*
X129993057Y-68671674D01*
X129990704Y-68653810D01*
X129990500Y-68650690D01*
X129990500Y-68000002D01*
X131095249Y-68000002D01*
X131111960Y-68062373D01*
X131111961Y-68062374D01*
X131111962Y-68062376D01*
X131157624Y-68108038D01*
X131157625Y-68108038D01*
X131157626Y-68108039D01*
X131219998Y-68124751D01*
X131220000Y-68124751D01*
X131220002Y-68124751D01*
X131282373Y-68108039D01*
X131282373Y-68108038D01*
X131282376Y-68108038D01*
X131328038Y-68062376D01*
X131328706Y-68059882D01*
X131344751Y-68000002D01*
X131344751Y-67999999D01*
X131338444Y-67976462D01*
X131328038Y-67937625D01*
X131282376Y-67891962D01*
X131238706Y-67880261D01*
X131220001Y-67875249D01*
X131219999Y-67875249D01*
X131157626Y-67891961D01*
X131111961Y-67937626D01*
X131095249Y-67999999D01*
X131095249Y-68000002D01*
X129990500Y-68000002D01*
X129990500Y-67958739D01*
X129965000Y-67880261D01*
X129916500Y-67813507D01*
X129916499Y-67813506D01*
X129916497Y-67813503D01*
X129916493Y-67813500D01*
X129916492Y-67813499D01*
X129849738Y-67764999D01*
X129771260Y-67739500D01*
X129771259Y-67739500D01*
X129745917Y-67739500D01*
X129678259Y-67739500D01*
X129678244Y-67739498D01*
X129674700Y-67739498D01*
X129667941Y-67739498D01*
X129657719Y-67739499D01*
X129657702Y-67739492D01*
X129609819Y-67739495D01*
X129536502Y-67759146D01*
X129470775Y-67797097D01*
X129470768Y-67797102D01*
X129455196Y-67812673D01*
X129455192Y-67812678D01*
X129455192Y-67812679D01*
X129455191Y-67812680D01*
X129428947Y-67838925D01*
X129428946Y-67838924D01*
X129336463Y-67931408D01*
X129336370Y-67931516D01*
X129326882Y-67941004D01*
X129326879Y-67941008D01*
X129326878Y-67941010D01*
X129312962Y-67965110D01*
X129295668Y-67995058D01*
X129279505Y-68055338D01*
X129279503Y-68068881D01*
X129279500Y-68068927D01*
X129279500Y-68086550D01*
X129279493Y-68116705D01*
X129279500Y-68116756D01*
X129279500Y-68292804D01*
X129279464Y-68292804D01*
X129279463Y-68298181D01*
X129279164Y-68300066D01*
X129284507Y-68310551D01*
X129286308Y-68315246D01*
X129287142Y-68318367D01*
X129288822Y-68321284D01*
X129290847Y-68325841D01*
X129294509Y-68337110D01*
X129294510Y-68337112D01*
X129296050Y-68338231D01*
X129299855Y-68342036D01*
X129299882Y-68342010D01*
X129312342Y-68354471D01*
X129312344Y-68354472D01*
X129312346Y-68354474D01*
X129312375Y-68354503D01*
X129333427Y-68375628D01*
X129333741Y-68375869D01*
X129412471Y-68454599D01*
X129419500Y-68471570D01*
X129419500Y-68493425D01*
X129419295Y-68496557D01*
X129417167Y-68512724D01*
X129415546Y-68518775D01*
X129409913Y-68532376D01*
X129406780Y-68537802D01*
X129396908Y-68550669D01*
X129394838Y-68553031D01*
X129258687Y-68689183D01*
X129258686Y-68689182D01*
X129255515Y-68692355D01*
X129243104Y-68704766D01*
X129243031Y-68704850D01*
X129228184Y-68719695D01*
X129189514Y-68786659D01*
X129169500Y-68861341D01*
X129169500Y-69043424D01*
X129169294Y-69046558D01*
X129167989Y-69056466D01*
X129166367Y-69062518D01*
X129163149Y-69070285D01*
X129160017Y-69075710D01*
X129153908Y-69083671D01*
X129151838Y-69086031D01*
X129132223Y-69105643D01*
X129132210Y-69105659D01*
X129047978Y-69189893D01*
X129047977Y-69189894D01*
X129029760Y-69208110D01*
X129028015Y-69209691D01*
X128958038Y-69267118D01*
X128954126Y-69269732D01*
X128875327Y-69311850D01*
X128870980Y-69313651D01*
X128785470Y-69339588D01*
X128780856Y-69340505D01*
X128690691Y-69349383D01*
X128688339Y-69349499D01*
X128659867Y-69349499D01*
X128659859Y-69349500D01*
X128480573Y-69349500D01*
X128477440Y-69349295D01*
X128446282Y-69345192D01*
X128440230Y-69343570D01*
X128412667Y-69332152D01*
X128407242Y-69329020D01*
X128393002Y-69318093D01*
X128382292Y-69309875D01*
X128379937Y-69307809D01*
X128360655Y-69288526D01*
X128360655Y-69288527D01*
X128323590Y-69251462D01*
X128321687Y-69249558D01*
X128318321Y-69246190D01*
X128318311Y-69246183D01*
X128309047Y-69236919D01*
X128309047Y-69236918D01*
X128309036Y-69236908D01*
X128308956Y-69236828D01*
X128277783Y-69218823D01*
X128266333Y-69215754D01*
X128243002Y-69209500D01*
X128243000Y-69209500D01*
X128101570Y-69209500D01*
X128084599Y-69202471D01*
X128077529Y-69195401D01*
X128070500Y-69178430D01*
X128070500Y-69017634D01*
X128070501Y-69017633D01*
X128070500Y-68992276D01*
X128070705Y-68989146D01*
X128072479Y-68975663D01*
X128074100Y-68969614D01*
X128077835Y-68960596D01*
X128090823Y-68947607D01*
X128109192Y-68947607D01*
X128119962Y-68956445D01*
X128137423Y-68982577D01*
X128174718Y-69007497D01*
X128212012Y-69032416D01*
X128212014Y-69032417D01*
X128300000Y-69049918D01*
X128387986Y-69032417D01*
X128462577Y-68982577D01*
X128512417Y-68907986D01*
X128529918Y-68820000D01*
X128512417Y-68732014D01*
X128507738Y-68725012D01*
X128482729Y-68687583D01*
X128462577Y-68657423D01*
X128452500Y-68650690D01*
X128387987Y-68607583D01*
X128387985Y-68607582D01*
X128300000Y-68590082D01*
X128212014Y-68607582D01*
X128212012Y-68607583D01*
X128137425Y-68657421D01*
X128137420Y-68657426D01*
X128098983Y-68714951D01*
X128085239Y-68724799D01*
X128036031Y-68737983D01*
X128036030Y-68737983D01*
X127974185Y-68773687D01*
X127955968Y-68791904D01*
X127955956Y-68791908D01*
X127923686Y-68824180D01*
X127915369Y-68838586D01*
X127893410Y-68876622D01*
X127887978Y-68886030D01*
X127869498Y-68955005D01*
X127472695Y-68955005D01*
X127468038Y-68937625D01*
X127422376Y-68891962D01*
X127400237Y-68886030D01*
X127360001Y-68875249D01*
X127359999Y-68875249D01*
X127297626Y-68891961D01*
X127251961Y-68937626D01*
X127235249Y-68999999D01*
X127235249Y-69000002D01*
X127000500Y-69000002D01*
X127000500Y-68000002D01*
X127235249Y-68000002D01*
X127251960Y-68062373D01*
X127251961Y-68062374D01*
X127251962Y-68062376D01*
X127297624Y-68108038D01*
X127297625Y-68108038D01*
X127297626Y-68108039D01*
X127359998Y-68124751D01*
X127360000Y-68124751D01*
X127360002Y-68124751D01*
X127422373Y-68108039D01*
X127422373Y-68108038D01*
X127422376Y-68108038D01*
X127468038Y-68062376D01*
X127468706Y-68059882D01*
X127484751Y-68000002D01*
X127484751Y-67999999D01*
X127478444Y-67976462D01*
X127468038Y-67937625D01*
X127422376Y-67891962D01*
X127378706Y-67880261D01*
X127360001Y-67875249D01*
X127359999Y-67875249D01*
X127297626Y-67891961D01*
X127251961Y-67937626D01*
X127235249Y-67999999D01*
X127235249Y-68000002D01*
X127000500Y-68000002D01*
X127000500Y-67000002D01*
X127235249Y-67000002D01*
X127251960Y-67062373D01*
X127251961Y-67062374D01*
X127251962Y-67062376D01*
X127297624Y-67108038D01*
X127297625Y-67108038D01*
X127297626Y-67108039D01*
X127359998Y-67124751D01*
X127360000Y-67124751D01*
X127360002Y-67124751D01*
X127422373Y-67108039D01*
X127422373Y-67108038D01*
X127422376Y-67108038D01*
X127468038Y-67062376D01*
X127469149Y-67058229D01*
X127484751Y-67000002D01*
X127484751Y-66999999D01*
X127478010Y-66974841D01*
X127468038Y-66937625D01*
X127422376Y-66891962D01*
X127392918Y-66884069D01*
X127360001Y-66875249D01*
X127359999Y-66875249D01*
X127297626Y-66891961D01*
X127251961Y-66937626D01*
X127235249Y-66999999D01*
X127235249Y-67000002D01*
X127000500Y-67000002D01*
X127000500Y-66010002D01*
X127235249Y-66010002D01*
X127251960Y-66072373D01*
X127251961Y-66072374D01*
X127251962Y-66072376D01*
X127297624Y-66118038D01*
X127297625Y-66118038D01*
X127297626Y-66118039D01*
X127359998Y-66134751D01*
X127360000Y-66134751D01*
X127360002Y-66134751D01*
X127422373Y-66118039D01*
X127422373Y-66118038D01*
X127422376Y-66118038D01*
X127468038Y-66072376D01*
X127468039Y-66072373D01*
X127484751Y-66010002D01*
X127484751Y-66009999D01*
X127477924Y-65984521D01*
X127468038Y-65947625D01*
X127422376Y-65901962D01*
X127422372Y-65901961D01*
X127360001Y-65885249D01*
X127359999Y-65885249D01*
X127297626Y-65901961D01*
X127251961Y-65947626D01*
X127235249Y-66009999D01*
X127235249Y-66010002D01*
X127000500Y-66010002D01*
X127000500Y-65410000D01*
X127510082Y-65410000D01*
X127527582Y-65497985D01*
X127527583Y-65497987D01*
X127557177Y-65542277D01*
X127577423Y-65572577D01*
X127597509Y-65585998D01*
X127652012Y-65622416D01*
X127652014Y-65622417D01*
X127665634Y-65625126D01*
X127680907Y-65635331D01*
X127684491Y-65653347D01*
X127677935Y-65665623D01*
X127672980Y-65670584D01*
X127672975Y-65670591D01*
X127652099Y-65706802D01*
X127652096Y-65706808D01*
X127641303Y-65747191D01*
X127641316Y-65767975D01*
X127641316Y-66001395D01*
X127640459Y-66007752D01*
X127637773Y-66017528D01*
X127637773Y-66017530D01*
X127637773Y-66017531D01*
X127639993Y-66026030D01*
X127640537Y-66028110D01*
X127641266Y-66033788D01*
X127641315Y-66034097D01*
X127645034Y-66045542D01*
X127645428Y-66046889D01*
X127645903Y-66048704D01*
X127652690Y-66074679D01*
X127652693Y-66074686D01*
X127672336Y-66118038D01*
X127679216Y-66133223D01*
X127715258Y-66186437D01*
X127716780Y-66188022D01*
X127719461Y-66191590D01*
X127738051Y-66210179D01*
X127738348Y-66210481D01*
X127756170Y-66229038D01*
X127756172Y-66229038D01*
X127756604Y-66229488D01*
X127760104Y-66232231D01*
X127769127Y-66241253D01*
X127770541Y-66242667D01*
X127847954Y-66287362D01*
X127934297Y-66310500D01*
X127963077Y-66310500D01*
X128125500Y-66310500D01*
X128142471Y-66317529D01*
X128149500Y-66334500D01*
X128149500Y-66545511D01*
X128142471Y-66562482D01*
X128125500Y-66569510D01*
X128120203Y-66569510D01*
X128120202Y-66569510D01*
X128055562Y-66586818D01*
X128055549Y-66586824D01*
X127997598Y-66620276D01*
X127997596Y-66620277D01*
X127985194Y-66632676D01*
X127985195Y-66632677D01*
X127985192Y-66632680D01*
X127985191Y-66632680D01*
X127964333Y-66653537D01*
X127964294Y-66653567D01*
X127949131Y-66668736D01*
X127949120Y-66668741D01*
X127929214Y-66688655D01*
X127909633Y-66722581D01*
X127908694Y-66726088D01*
X127904207Y-66742840D01*
X127903986Y-66743664D01*
X127901589Y-66749451D01*
X127899500Y-66753070D01*
X127899500Y-66758936D01*
X127899499Y-66758954D01*
X127899499Y-66760415D01*
X127899499Y-66760416D01*
X127899500Y-66780000D01*
X127899500Y-66806929D01*
X127901597Y-66810560D01*
X127903995Y-66816350D01*
X127909638Y-66837420D01*
X127929216Y-66871339D01*
X127930630Y-66872754D01*
X127930652Y-66872779D01*
X127931821Y-66873948D01*
X127931823Y-66873951D01*
X127938528Y-66880656D01*
X127938535Y-66880665D01*
X127941424Y-66883553D01*
X127941429Y-66883558D01*
X127943061Y-66885190D01*
X127952444Y-66894576D01*
X127952454Y-66894599D01*
X127977819Y-66919964D01*
X127985489Y-66924391D01*
X128024107Y-66946683D01*
X128075731Y-66960506D01*
X128102452Y-66960500D01*
X128135052Y-66960500D01*
X128152023Y-66967529D01*
X128158234Y-66978289D01*
X128165400Y-67005038D01*
X128165401Y-67005040D01*
X128196105Y-67058228D01*
X128205430Y-67067555D01*
X128205445Y-67067572D01*
X128206569Y-67068696D01*
X128206571Y-67068699D01*
X128213481Y-67075609D01*
X128214441Y-67076569D01*
X128214442Y-67076570D01*
X128214443Y-67076572D01*
X128239362Y-67101495D01*
X128239380Y-67101508D01*
X128331441Y-67193571D01*
X128331467Y-67193593D01*
X128347289Y-67209416D01*
X128347291Y-67209417D01*
X128347295Y-67209420D01*
X128416997Y-67249664D01*
X128416999Y-67249665D01*
X128494752Y-67270500D01*
X128519083Y-67270500D01*
X128547459Y-67270500D01*
X128547519Y-67270507D01*
X128550669Y-67270506D01*
X128550671Y-67270507D01*
X128555486Y-67270505D01*
X128572458Y-67277528D01*
X128579494Y-67294496D01*
X128579494Y-67294511D01*
X128579492Y-67302480D01*
X128579500Y-67302540D01*
X128579500Y-67315500D01*
X128572471Y-67332471D01*
X128555500Y-67339500D01*
X128488101Y-67339500D01*
X128479029Y-67343258D01*
X128419923Y-67367741D01*
X128367741Y-67419923D01*
X128353620Y-67454012D01*
X128339500Y-67488101D01*
X128339500Y-67707052D01*
X128365488Y-67787036D01*
X128394946Y-67827582D01*
X128414923Y-67855077D01*
X128414926Y-67855079D01*
X128414927Y-67855080D01*
X128482963Y-67904511D01*
X128562948Y-67930500D01*
X128562949Y-67930500D01*
X128589083Y-67930500D01*
X128626676Y-67930500D01*
X128626698Y-67930502D01*
X128629944Y-67930501D01*
X128629947Y-67930503D01*
X128655304Y-67930500D01*
X128658434Y-67930705D01*
X128662487Y-67931238D01*
X128694796Y-67935487D01*
X128710704Y-67944669D01*
X128715461Y-67962411D01*
X128715205Y-67963964D01*
X128700082Y-68039999D01*
X128700082Y-68040000D01*
X128703133Y-68055338D01*
X128717582Y-68127985D01*
X128717583Y-68127987D01*
X128767085Y-68202071D01*
X128767423Y-68202577D01*
X128804718Y-68227497D01*
X128842012Y-68252416D01*
X128842014Y-68252417D01*
X128930000Y-68269918D01*
X129017986Y-68252417D01*
X129092577Y-68202577D01*
X129142417Y-68127986D01*
X129159918Y-68040000D01*
X129142417Y-67952014D01*
X129137706Y-67944964D01*
X129117497Y-67914718D01*
X129092577Y-67877423D01*
X129089323Y-67875249D01*
X129017987Y-67827583D01*
X129017985Y-67827582D01*
X128930000Y-67810082D01*
X128929999Y-67810082D01*
X128911077Y-67813845D01*
X128893062Y-67810261D01*
X128889430Y-67807281D01*
X128886289Y-67804140D01*
X128886286Y-67804138D01*
X128886284Y-67804136D01*
X128801080Y-67754950D01*
X128706042Y-67729494D01*
X128656848Y-67729500D01*
X128608158Y-67729500D01*
X128601948Y-67728682D01*
X128592840Y-67726242D01*
X128578962Y-67722523D01*
X128568203Y-67716312D01*
X128553687Y-67701796D01*
X128547476Y-67691036D01*
X128541318Y-67668052D01*
X128540500Y-67661841D01*
X128540500Y-67564500D01*
X128547529Y-67547529D01*
X128564497Y-67540500D01*
X128589467Y-67540500D01*
X128645419Y-67525507D01*
X128695584Y-67496544D01*
X128695587Y-67496541D01*
X128697022Y-67495106D01*
X128697023Y-67495106D01*
X128716064Y-67476064D01*
X128735106Y-67457023D01*
X128735106Y-67457021D01*
X128736533Y-67455595D01*
X128736540Y-67455586D01*
X128736540Y-67455585D01*
X128736543Y-67455583D01*
X128765506Y-67405418D01*
X128777339Y-67361258D01*
X129543666Y-67361258D01*
X129567604Y-67419008D01*
X129568534Y-67419937D01*
X129571530Y-67423749D01*
X129571829Y-67424035D01*
X129571830Y-67424037D01*
X129590352Y-67441743D01*
X129590610Y-67441996D01*
X129608767Y-67460133D01*
X129608768Y-67460133D01*
X129609990Y-67460838D01*
X129615280Y-67463257D01*
X129634143Y-67476064D01*
X129643291Y-67482275D01*
X129672601Y-67495717D01*
X129679567Y-67500561D01*
X129721915Y-67542909D01*
X129721943Y-67542945D01*
X129724139Y-67545140D01*
X129724140Y-67545142D01*
X129736144Y-67557142D01*
X129736159Y-67557176D01*
X129743176Y-67564189D01*
X129764264Y-67585267D01*
X129815912Y-67615074D01*
X129830132Y-67618881D01*
X129844705Y-67630060D01*
X129847461Y-67637377D01*
X129847581Y-67637983D01*
X129847582Y-67637986D01*
X129863522Y-67661841D01*
X129897423Y-67712577D01*
X129921526Y-67728682D01*
X129972012Y-67762416D01*
X129972014Y-67762417D01*
X130060000Y-67779918D01*
X130147986Y-67762417D01*
X130222577Y-67712577D01*
X130272417Y-67637986D01*
X130289918Y-67550000D01*
X130272417Y-67462014D01*
X130271723Y-67460976D01*
X130234601Y-67405418D01*
X130222577Y-67387423D01*
X130193121Y-67367741D01*
X130147987Y-67337583D01*
X130147985Y-67337582D01*
X130060000Y-67320082D01*
X129972014Y-67337582D01*
X129972012Y-67337583D01*
X129897425Y-67387421D01*
X129897417Y-67387429D01*
X129894947Y-67391126D01*
X129879673Y-67401329D01*
X129861658Y-67397743D01*
X129858023Y-67394761D01*
X129823491Y-67360229D01*
X129816462Y-67343258D01*
X129823491Y-67326287D01*
X129834234Y-67320080D01*
X129835049Y-67319861D01*
X129836722Y-67319476D01*
X129886020Y-67309993D01*
X129916040Y-67298741D01*
X129935373Y-67291495D01*
X129935375Y-67291493D01*
X129935382Y-67291491D01*
X129944183Y-67286360D01*
X129954268Y-67284469D01*
X129954138Y-67283646D01*
X129957889Y-67283051D01*
X129957892Y-67283052D01*
X129980217Y-67271677D01*
X130001165Y-67261004D01*
X130001165Y-67261003D01*
X130001170Y-67261001D01*
X130262168Y-67000002D01*
X131095249Y-67000002D01*
X131111960Y-67062373D01*
X131111961Y-67062374D01*
X131111962Y-67062376D01*
X131157624Y-67108038D01*
X131157625Y-67108038D01*
X131157626Y-67108039D01*
X131219998Y-67124751D01*
X131220000Y-67124751D01*
X131220002Y-67124751D01*
X131282373Y-67108039D01*
X131282373Y-67108038D01*
X131282376Y-67108038D01*
X131328038Y-67062376D01*
X131329149Y-67058229D01*
X131344751Y-67000002D01*
X131344751Y-66999999D01*
X131338010Y-66974841D01*
X131328038Y-66937625D01*
X131282376Y-66891962D01*
X131252918Y-66884069D01*
X131220001Y-66875249D01*
X131219999Y-66875249D01*
X131157626Y-66891961D01*
X131111961Y-66937626D01*
X131095249Y-66999999D01*
X131095249Y-67000002D01*
X130262168Y-67000002D01*
X130276355Y-66985815D01*
X130289567Y-66979084D01*
X130310485Y-66975771D01*
X130314346Y-66975980D01*
X130314346Y-66975506D01*
X130344422Y-66975500D01*
X130344437Y-66975500D01*
X130344438Y-66975500D01*
X130353095Y-66975498D01*
X130370413Y-66975496D01*
X130420596Y-66962046D01*
X130465590Y-66936071D01*
X130470893Y-66930767D01*
X130470909Y-66930755D01*
X130472713Y-66928950D01*
X130472717Y-66928949D01*
X130479259Y-66922406D01*
X130479337Y-66922347D01*
X130481597Y-66920084D01*
X130481599Y-66920084D01*
X130495979Y-66905690D01*
X130503005Y-66898667D01*
X130503005Y-66898666D01*
X130505412Y-66896260D01*
X130505433Y-66896232D01*
X130507089Y-66894576D01*
X130511857Y-66889809D01*
X130511858Y-66889807D01*
X130513191Y-66888474D01*
X130513242Y-66888415D01*
X130517586Y-66884068D01*
X130523702Y-66877948D01*
X130548669Y-66817637D01*
X130548669Y-66752363D01*
X130523702Y-66692052D01*
X130500632Y-66668966D01*
X130481599Y-66649916D01*
X130479508Y-66647823D01*
X130479254Y-66647627D01*
X130470035Y-66638402D01*
X130419991Y-66609486D01*
X130419987Y-66609484D01*
X130364172Y-66594510D01*
X130364173Y-66594510D01*
X130353003Y-66594505D01*
X130352929Y-66594500D01*
X130351156Y-66594500D01*
X130335272Y-66594500D01*
X130308343Y-66594491D01*
X130308342Y-66594491D01*
X130305297Y-66594490D01*
X130305220Y-66594500D01*
X130280829Y-66594500D01*
X130280821Y-66594499D01*
X130265153Y-66594499D01*
X130248182Y-66587470D01*
X130241153Y-66570499D01*
X130241153Y-66299764D01*
X130248182Y-66282793D01*
X130265153Y-66275764D01*
X130282124Y-66282793D01*
X130285106Y-66286428D01*
X130304519Y-66315481D01*
X130307584Y-66317529D01*
X130346030Y-66343218D01*
X130346032Y-66343219D01*
X130382637Y-66350500D01*
X130557362Y-66350499D01*
X130593968Y-66343219D01*
X130635481Y-66315481D01*
X130663219Y-66273968D01*
X130670500Y-66237363D01*
X130670499Y-66062638D01*
X130669897Y-66059613D01*
X130666417Y-66042111D01*
X130663219Y-66026032D01*
X130645826Y-66000002D01*
X131095249Y-66000002D01*
X131111960Y-66062373D01*
X131111961Y-66062374D01*
X131111962Y-66062376D01*
X131157624Y-66108038D01*
X131157625Y-66108038D01*
X131157626Y-66108039D01*
X131219998Y-66124751D01*
X131220000Y-66124751D01*
X131220002Y-66124751D01*
X131282373Y-66108039D01*
X131282373Y-66108038D01*
X131282376Y-66108038D01*
X131328038Y-66062376D01*
X131328039Y-66062373D01*
X131344751Y-66000002D01*
X131344751Y-65999999D01*
X131340272Y-65983286D01*
X131328038Y-65937625D01*
X131282376Y-65891962D01*
X131257322Y-65885249D01*
X131220001Y-65875249D01*
X131219999Y-65875249D01*
X131157626Y-65891961D01*
X131111961Y-65937626D01*
X131095249Y-65999999D01*
X131095249Y-66000002D01*
X130645826Y-66000002D01*
X130635481Y-65984519D01*
X130635198Y-65984330D01*
X130593969Y-65956781D01*
X130593967Y-65956780D01*
X130557363Y-65949500D01*
X130382637Y-65949500D01*
X130346033Y-65956780D01*
X130346030Y-65956781D01*
X130304521Y-65984517D01*
X130304517Y-65984521D01*
X130276781Y-66026030D01*
X130276781Y-66026031D01*
X130275955Y-66030184D01*
X130265748Y-66045456D01*
X130252416Y-66049500D01*
X130238472Y-66049500D01*
X130238421Y-66049493D01*
X130218208Y-66049497D01*
X130218195Y-66049492D01*
X130186041Y-66049497D01*
X130143128Y-66061003D01*
X130113734Y-66077975D01*
X130108357Y-66080258D01*
X130106414Y-66080815D01*
X130106412Y-66080816D01*
X130094395Y-66093259D01*
X130094355Y-66093277D01*
X130094357Y-66093279D01*
X130087355Y-66100512D01*
X130087082Y-66100789D01*
X130069894Y-66117977D01*
X130069269Y-66120311D01*
X130065983Y-66127520D01*
X130058959Y-66137932D01*
X130058745Y-66137787D01*
X130057216Y-66139514D01*
X130057396Y-66139645D01*
X130055163Y-66142719D01*
X130050541Y-66156942D01*
X130049640Y-66159289D01*
X130046908Y-66165421D01*
X130044193Y-66176289D01*
X130043736Y-66177882D01*
X130040153Y-66188916D01*
X130040153Y-66189520D01*
X130039438Y-66195334D01*
X130036623Y-66206606D01*
X130036623Y-66206608D01*
X130039226Y-66215697D01*
X130040153Y-66222304D01*
X130040153Y-66536663D01*
X130039463Y-66541233D01*
X130039548Y-66541246D01*
X130039279Y-66543115D01*
X130040058Y-66596905D01*
X130040153Y-66598001D01*
X130040153Y-66631318D01*
X130039858Y-66635072D01*
X130036283Y-66657646D01*
X130046659Y-66678011D01*
X130048097Y-66681484D01*
X130051594Y-66692245D01*
X130055163Y-66703226D01*
X130055163Y-66703227D01*
X130073585Y-66716612D01*
X130075658Y-66719847D01*
X130076446Y-66719059D01*
X130105549Y-66748151D01*
X130105548Y-66748151D01*
X130154401Y-66776347D01*
X130165585Y-66790918D01*
X130163190Y-66809130D01*
X130157644Y-66814597D01*
X130158010Y-66814974D01*
X130155743Y-66817174D01*
X130149850Y-66827034D01*
X130146220Y-66831692D01*
X129893950Y-67083963D01*
X129883274Y-67090152D01*
X129880303Y-67090959D01*
X129857915Y-67103992D01*
X129856127Y-67104934D01*
X129841981Y-67111644D01*
X129838199Y-67113061D01*
X129826318Y-67116405D01*
X129824117Y-67117025D01*
X129820148Y-67117788D01*
X129804926Y-67119403D01*
X129802389Y-67119537D01*
X129768715Y-67119530D01*
X129768700Y-67119530D01*
X129768699Y-67119530D01*
X129768698Y-67119530D01*
X129697088Y-67138698D01*
X129632882Y-67175744D01*
X129606665Y-67201948D01*
X129585659Y-67222941D01*
X129585623Y-67222986D01*
X129567606Y-67240988D01*
X129567605Y-67240990D01*
X129567604Y-67240991D01*
X129567604Y-67240992D01*
X129564009Y-67249664D01*
X129543666Y-67298741D01*
X129543666Y-67361258D01*
X128777339Y-67361258D01*
X128780499Y-67349467D01*
X128780499Y-67341195D01*
X128780500Y-67341190D01*
X128780500Y-67254534D01*
X128780492Y-67254450D01*
X128780495Y-67245732D01*
X128766673Y-67194112D01*
X128741735Y-67150911D01*
X128741573Y-67150518D01*
X128740106Y-67147978D01*
X128728101Y-67135972D01*
X128728089Y-67135944D01*
X128702057Y-67109913D01*
X128699506Y-67108435D01*
X128699154Y-67108288D01*
X128655892Y-67083317D01*
X128655889Y-67083316D01*
X128604269Y-67069494D01*
X128604268Y-67069494D01*
X128577547Y-67069500D01*
X128536576Y-67069500D01*
X128533443Y-67069295D01*
X128511031Y-67066344D01*
X128504979Y-67064722D01*
X128485566Y-67056680D01*
X128480141Y-67053548D01*
X128471254Y-67046729D01*
X128462198Y-67039780D01*
X128459842Y-67037713D01*
X128440557Y-67018427D01*
X128440550Y-67018421D01*
X128362912Y-66940784D01*
X128362907Y-66940779D01*
X128361074Y-66938945D01*
X128359007Y-66936588D01*
X128356753Y-66933650D01*
X128353624Y-66928231D01*
X128352815Y-66926276D01*
X128351193Y-66920221D01*
X128351159Y-66919966D01*
X128351067Y-66919269D01*
X128350705Y-66916507D01*
X128350500Y-66913380D01*
X128350500Y-66884068D01*
X128345136Y-66871120D01*
X128326826Y-66826917D01*
X128283083Y-66783174D01*
X128280206Y-66781982D01*
X128267220Y-66768994D01*
X128267221Y-66750625D01*
X128272421Y-66742843D01*
X128323020Y-66692245D01*
X128350500Y-66625904D01*
X128350500Y-66590000D01*
X128350500Y-66563071D01*
X128350500Y-66245296D01*
X128350500Y-66243371D01*
X128350497Y-66243337D01*
X128350498Y-66241261D01*
X128340164Y-66202666D01*
X128328485Y-66182435D01*
X128326089Y-66176649D01*
X128325993Y-66176289D01*
X128325106Y-66172978D01*
X128325105Y-66172977D01*
X128313097Y-66160968D01*
X128313091Y-66160954D01*
X128290966Y-66138832D01*
X128290928Y-66138798D01*
X128287022Y-66134893D01*
X128287021Y-66134892D01*
X128283367Y-66133913D01*
X128277584Y-66131518D01*
X128257335Y-66119830D01*
X128257332Y-66119829D01*
X128218742Y-66109496D01*
X128218739Y-66109495D01*
X128218737Y-66109495D01*
X128218733Y-66109495D01*
X128198759Y-66109500D01*
X127980573Y-66109500D01*
X127977440Y-66109295D01*
X127946282Y-66105192D01*
X127940230Y-66103570D01*
X127915381Y-66093277D01*
X127912664Y-66092151D01*
X127907244Y-66089022D01*
X127883969Y-66071162D01*
X127879925Y-66067221D01*
X127864943Y-66048704D01*
X127862660Y-66045332D01*
X127850031Y-66022775D01*
X127848354Y-66019076D01*
X127843692Y-66005916D01*
X127842316Y-65997906D01*
X127842316Y-65798113D01*
X127842332Y-65797985D01*
X127842331Y-65795471D01*
X127842824Y-65794276D01*
X127843145Y-65791860D01*
X127843162Y-65791797D01*
X127843780Y-65791963D01*
X127849346Y-65778497D01*
X127898356Y-65729488D01*
X127900263Y-65727776D01*
X127916016Y-65715105D01*
X127923467Y-65695876D01*
X127924446Y-65693685D01*
X127936410Y-65670209D01*
X127936052Y-65667950D01*
X127936541Y-65658107D01*
X127943849Y-65630268D01*
X127949810Y-65589031D01*
X127949903Y-65585994D01*
X127950453Y-65582968D01*
X127950204Y-65582929D01*
X127950500Y-65581064D01*
X127950500Y-65578922D01*
X127951044Y-65574431D01*
X127951031Y-65573848D01*
X127951033Y-65573847D01*
X127950741Y-65559704D01*
X127950746Y-65558531D01*
X127951273Y-65541291D01*
X127951271Y-65541287D01*
X127951138Y-65540720D01*
X127950500Y-65535221D01*
X127950500Y-65533079D01*
X127950426Y-65532614D01*
X127950134Y-65529352D01*
X127949836Y-65514801D01*
X127949764Y-65514429D01*
X127949785Y-65514324D01*
X127949729Y-65513790D01*
X127949815Y-65513780D01*
X127949825Y-65513779D01*
X127949897Y-65513772D01*
X127952564Y-65500605D01*
X127951512Y-65500170D01*
X127952413Y-65497990D01*
X127952417Y-65497986D01*
X127969918Y-65410000D01*
X127952417Y-65322014D01*
X127951850Y-65321166D01*
X127944720Y-65310494D01*
X127931798Y-65291156D01*
X127928215Y-65273142D01*
X127938420Y-65257869D01*
X127956436Y-65254285D01*
X127964688Y-65258694D01*
X127964857Y-65258384D01*
X127964892Y-65258403D01*
X127966776Y-65259810D01*
X127968719Y-65260848D01*
X127970350Y-65262478D01*
X127970414Y-65262526D01*
X127971010Y-65263122D01*
X127971011Y-65263123D01*
X127993464Y-65276088D01*
X128025057Y-65294331D01*
X128059846Y-65303658D01*
X128085337Y-65310494D01*
X128085341Y-65310494D01*
X128098346Y-65310495D01*
X128098386Y-65310500D01*
X128116544Y-65310500D01*
X128143473Y-65310506D01*
X128143474Y-65310505D01*
X128146705Y-65310506D01*
X128146756Y-65310500D01*
X128153117Y-65310500D01*
X128170088Y-65317529D01*
X128173070Y-65321164D01*
X128207423Y-65372577D01*
X128244718Y-65397497D01*
X128282012Y-65422416D01*
X128282014Y-65422417D01*
X128370000Y-65439918D01*
X128457986Y-65422417D01*
X128532577Y-65372577D01*
X128582417Y-65297986D01*
X128599918Y-65210000D01*
X128582417Y-65122014D01*
X128579760Y-65118038D01*
X128538795Y-65056729D01*
X128532577Y-65047423D01*
X128526689Y-65043489D01*
X128457987Y-64997583D01*
X128457985Y-64997582D01*
X128370000Y-64980082D01*
X128282014Y-64997582D01*
X128282012Y-64997583D01*
X128207425Y-65047421D01*
X128207421Y-65047425D01*
X128193232Y-65068661D01*
X128175304Y-65095494D01*
X128173072Y-65098834D01*
X128157799Y-65109039D01*
X128153117Y-65109500D01*
X128118168Y-65109500D01*
X128115026Y-65109293D01*
X128110377Y-65108679D01*
X128104334Y-65107059D01*
X128101466Y-65105871D01*
X128096039Y-65102737D01*
X128093540Y-65100819D01*
X128089113Y-65096393D01*
X128088421Y-65095492D01*
X128087249Y-65093965D01*
X128084120Y-65088545D01*
X128082929Y-65085672D01*
X128081306Y-65079623D01*
X128080704Y-65075057D01*
X128080500Y-65071931D01*
X128080500Y-64987144D01*
X128080549Y-64986766D01*
X128080544Y-64983830D01*
X128080545Y-64983829D01*
X128080516Y-64966866D01*
X128080524Y-64966846D01*
X128080500Y-64948845D01*
X128080500Y-64941154D01*
X128080151Y-64940083D01*
X128079819Y-64938966D01*
X128072458Y-64911611D01*
X128072454Y-64911605D01*
X128072331Y-64911305D01*
X128072206Y-64910677D01*
X128072049Y-64910094D01*
X128072087Y-64910083D01*
X128070500Y-64902110D01*
X128070500Y-64874500D01*
X128077529Y-64857529D01*
X128094500Y-64850500D01*
X128155947Y-64850500D01*
X128156049Y-64850491D01*
X128180514Y-64850494D01*
X128262522Y-64828526D01*
X128336048Y-64786080D01*
X128343646Y-64778480D01*
X128343649Y-64778479D01*
X128347022Y-64775106D01*
X128347023Y-64775106D01*
X128364957Y-64757170D01*
X128367301Y-64755114D01*
X128388707Y-64738690D01*
X128394121Y-64735564D01*
X128417577Y-64725850D01*
X128423618Y-64724232D01*
X128450431Y-64720705D01*
X128453561Y-64720500D01*
X128478841Y-64720503D01*
X128478843Y-64720501D01*
X128482089Y-64720502D01*
X128482112Y-64720500D01*
X128710943Y-64720500D01*
X128710945Y-64720501D01*
X128736689Y-64720500D01*
X128739041Y-64720615D01*
X128742729Y-64720978D01*
X128815832Y-64728173D01*
X128820439Y-64729090D01*
X128893144Y-64751142D01*
X128897483Y-64752939D01*
X128905414Y-64757178D01*
X128964482Y-64788749D01*
X128968394Y-64791363D01*
X129027923Y-64840216D01*
X129029669Y-64841797D01*
X129064680Y-64876808D01*
X129066750Y-64879169D01*
X129109284Y-64934605D01*
X129112416Y-64940031D01*
X129138545Y-65003115D01*
X129140167Y-65009166D01*
X129149006Y-65076312D01*
X129149295Y-65078502D01*
X129149500Y-65081635D01*
X129149500Y-65110230D01*
X129149508Y-65110288D01*
X129149508Y-65127946D01*
X129168212Y-65221979D01*
X129168214Y-65221988D01*
X129196864Y-65291158D01*
X129204904Y-65310569D01*
X129246333Y-65372578D01*
X129258170Y-65390294D01*
X129258173Y-65390298D01*
X129279975Y-65412102D01*
X129280730Y-65412857D01*
X129280731Y-65412860D01*
X129314483Y-65446613D01*
X129314487Y-65446615D01*
X129337681Y-65469809D01*
X129344186Y-65476315D01*
X129346235Y-65478652D01*
X129361070Y-65497987D01*
X129361925Y-65499101D01*
X129365056Y-65504526D01*
X129374304Y-65526853D01*
X129375926Y-65532904D01*
X129379295Y-65558494D01*
X129379500Y-65561627D01*
X129379500Y-65570637D01*
X129379294Y-65573772D01*
X129378604Y-65579009D01*
X129369418Y-65594916D01*
X129354319Y-65598959D01*
X129354319Y-65599777D01*
X129351955Y-65599777D01*
X129263969Y-65617277D01*
X129263967Y-65617278D01*
X129189380Y-65667116D01*
X129189376Y-65667120D01*
X129139538Y-65741707D01*
X129139537Y-65741709D01*
X129122037Y-65829695D01*
X129139537Y-65917680D01*
X129139538Y-65917682D01*
X129170000Y-65963271D01*
X129189378Y-65992272D01*
X129215910Y-66010000D01*
X129263967Y-66042111D01*
X129263969Y-66042112D01*
X129351955Y-66059613D01*
X129439941Y-66042112D01*
X129514532Y-65992272D01*
X129564372Y-65917681D01*
X129581873Y-65829695D01*
X129564372Y-65741709D01*
X129552740Y-65724302D01*
X129549157Y-65706287D01*
X129551913Y-65698967D01*
X129560847Y-65683495D01*
X129560848Y-65683493D01*
X129580497Y-65610178D01*
X129580497Y-65591691D01*
X129580500Y-65591681D01*
X129580500Y-65568208D01*
X129580500Y-65563966D01*
X129580502Y-65545299D01*
X129580500Y-65545296D01*
X129580501Y-65542515D01*
X129580500Y-65542497D01*
X129580500Y-65542277D01*
X129580493Y-65542185D01*
X129580493Y-65518164D01*
X129569577Y-65477420D01*
X129558840Y-65437346D01*
X129517008Y-65364884D01*
X129500048Y-65347923D01*
X129500036Y-65347908D01*
X129487428Y-65335300D01*
X129487429Y-65335300D01*
X129468388Y-65316258D01*
X129468387Y-65316257D01*
X129466420Y-65314290D01*
X129466409Y-65314281D01*
X129440233Y-65288105D01*
X129435318Y-65283189D01*
X129433249Y-65280830D01*
X129390714Y-65225393D01*
X129387582Y-65219967D01*
X129378311Y-65197583D01*
X129361453Y-65156881D01*
X129359833Y-65150837D01*
X129350705Y-65081496D01*
X129350500Y-65078364D01*
X129350500Y-65049971D01*
X129350492Y-65049908D01*
X129350492Y-65032061D01*
X129350491Y-65032053D01*
X129348106Y-65020062D01*
X129331787Y-64938016D01*
X129331625Y-64937626D01*
X129316915Y-64902110D01*
X129308556Y-64881930D01*
X129469500Y-64881930D01*
X129469649Y-64882486D01*
X129471605Y-64887210D01*
X129482107Y-64926402D01*
X129506461Y-64968589D01*
X129507919Y-64970047D01*
X129507925Y-64970054D01*
X129509893Y-64972022D01*
X129509894Y-64972023D01*
X129512340Y-64974469D01*
X129512341Y-64974471D01*
X129512342Y-64974471D01*
X129522468Y-64984598D01*
X129529497Y-65001569D01*
X129529497Y-65001574D01*
X129529492Y-65020062D01*
X129529490Y-65020068D01*
X129529490Y-65030000D01*
X129529490Y-65068661D01*
X129536681Y-65095494D01*
X129549504Y-65143343D01*
X129549505Y-65143345D01*
X129549506Y-65143347D01*
X129588173Y-65210307D01*
X129608426Y-65230555D01*
X129611629Y-65233758D01*
X129612135Y-65234263D01*
X129612140Y-65234271D01*
X129616894Y-65239022D01*
X129616903Y-65239044D01*
X129623929Y-65246070D01*
X129623929Y-65246071D01*
X129653946Y-65276088D01*
X129653948Y-65276089D01*
X129653950Y-65276091D01*
X129725731Y-65317529D01*
X129727474Y-65318535D01*
X129800491Y-65338095D01*
X129814236Y-65347944D01*
X129855701Y-65410000D01*
X129857423Y-65412577D01*
X129872148Y-65422416D01*
X129932012Y-65462416D01*
X129932014Y-65462417D01*
X130020000Y-65479918D01*
X130107986Y-65462417D01*
X130182577Y-65412577D01*
X130232417Y-65337986D01*
X130249918Y-65250000D01*
X130232417Y-65162014D01*
X130228989Y-65156884D01*
X130205689Y-65122012D01*
X130182577Y-65087423D01*
X130164896Y-65075609D01*
X130107987Y-65037583D01*
X130107985Y-65037582D01*
X130020000Y-65020082D01*
X129932014Y-65037582D01*
X129932012Y-65037583D01*
X129857425Y-65087421D01*
X129857420Y-65087426D01*
X129835267Y-65120580D01*
X129819994Y-65130785D01*
X129806130Y-65129420D01*
X129794121Y-65124446D01*
X129788699Y-65121316D01*
X129767378Y-65104956D01*
X129765020Y-65102888D01*
X129758732Y-65096602D01*
X129756661Y-65094241D01*
X129752289Y-65088545D01*
X129744824Y-65078818D01*
X129741691Y-65073392D01*
X129739731Y-65068661D01*
X129734855Y-65056890D01*
X129733234Y-65050840D01*
X129733111Y-65049908D01*
X129730761Y-65032058D01*
X129730705Y-65031631D01*
X129730500Y-65028498D01*
X129730500Y-64974534D01*
X129730492Y-64974450D01*
X129730495Y-64965732D01*
X129716673Y-64914112D01*
X129695250Y-64877001D01*
X129689772Y-64867509D01*
X129687376Y-64849297D01*
X129693585Y-64838542D01*
X129694956Y-64837171D01*
X129697297Y-64835118D01*
X129711641Y-64824111D01*
X129717058Y-64820983D01*
X129732283Y-64814676D01*
X129738330Y-64813056D01*
X129756174Y-64810705D01*
X129759308Y-64810500D01*
X129821740Y-64810500D01*
X129821754Y-64810501D01*
X129825297Y-64810500D01*
X129825299Y-64810502D01*
X129842280Y-64810500D01*
X129842297Y-64810507D01*
X129852228Y-64810506D01*
X129852228Y-64810507D01*
X129890179Y-64810504D01*
X129963495Y-64790854D01*
X130029228Y-64752900D01*
X130033645Y-64748482D01*
X130033648Y-64748480D01*
X130037022Y-64745106D01*
X130037023Y-64745106D01*
X130054952Y-64727175D01*
X130057293Y-64725122D01*
X130071641Y-64714111D01*
X130077058Y-64710983D01*
X130092283Y-64704676D01*
X130098330Y-64703056D01*
X130116174Y-64700705D01*
X130119308Y-64700500D01*
X130469427Y-64700500D01*
X130472559Y-64700704D01*
X130503722Y-64704808D01*
X130509762Y-64706427D01*
X130537334Y-64717847D01*
X130542754Y-64720977D01*
X130566440Y-64739152D01*
X130570861Y-64743573D01*
X130581301Y-64757178D01*
X130589022Y-64767240D01*
X130592154Y-64772665D01*
X130596681Y-64783593D01*
X130599688Y-64790854D01*
X130603572Y-64800229D01*
X130605194Y-64806281D01*
X130609295Y-64837424D01*
X130609500Y-64840557D01*
X130609500Y-65225165D01*
X130602471Y-65242136D01*
X130597840Y-65245231D01*
X130597998Y-65245467D01*
X130554521Y-65274517D01*
X130554517Y-65274521D01*
X130526781Y-65316030D01*
X130526780Y-65316032D01*
X130519500Y-65352632D01*
X130519500Y-65527362D01*
X130526780Y-65563966D01*
X130526781Y-65563969D01*
X130543532Y-65589038D01*
X130554519Y-65605481D01*
X130561546Y-65610176D01*
X130596030Y-65633218D01*
X130596032Y-65633219D01*
X130632637Y-65640500D01*
X130807362Y-65640499D01*
X130843968Y-65633219D01*
X130885481Y-65605481D01*
X130913219Y-65563968D01*
X130920500Y-65527363D01*
X130920499Y-65352638D01*
X130919565Y-65347944D01*
X130913717Y-65318535D01*
X130913219Y-65316032D01*
X130909519Y-65310495D01*
X130894559Y-65288105D01*
X130885481Y-65274519D01*
X130885477Y-65274516D01*
X130885476Y-65274515D01*
X130843968Y-65246780D01*
X130829816Y-65243965D01*
X130814544Y-65233758D01*
X130810500Y-65220426D01*
X130810500Y-65000002D01*
X131095249Y-65000002D01*
X131111960Y-65062373D01*
X131111961Y-65062374D01*
X131111962Y-65062376D01*
X131157624Y-65108038D01*
X131157625Y-65108038D01*
X131157626Y-65108039D01*
X131219998Y-65124751D01*
X131220000Y-65124751D01*
X131220002Y-65124751D01*
X131282373Y-65108039D01*
X131282373Y-65108038D01*
X131282376Y-65108038D01*
X131328038Y-65062376D01*
X131328039Y-65062373D01*
X131344751Y-65000002D01*
X131344751Y-64999999D01*
X131339414Y-64980082D01*
X131328038Y-64937625D01*
X131282376Y-64891962D01*
X131257322Y-64885249D01*
X131220001Y-64875249D01*
X131219999Y-64875249D01*
X131157626Y-64891961D01*
X131111961Y-64937626D01*
X131095249Y-64999999D01*
X131095249Y-65000002D01*
X130810500Y-65000002D01*
X130810500Y-64848934D01*
X130810502Y-64848929D01*
X130810502Y-64794297D01*
X130807634Y-64783593D01*
X130787364Y-64707953D01*
X130742669Y-64630539D01*
X130742667Y-64630537D01*
X130742666Y-64630535D01*
X130711064Y-64598936D01*
X130711063Y-64598935D01*
X130707022Y-64594894D01*
X130692023Y-64579894D01*
X130692022Y-64579893D01*
X130690306Y-64578177D01*
X130690293Y-64578166D01*
X130679461Y-64567335D01*
X130679451Y-64567327D01*
X130602047Y-64522637D01*
X130558874Y-64511068D01*
X130515702Y-64499500D01*
X130515701Y-64499500D01*
X130148259Y-64499500D01*
X130148244Y-64499498D01*
X130144700Y-64499498D01*
X130137941Y-64499498D01*
X130127719Y-64499499D01*
X130127702Y-64499492D01*
X130079819Y-64499495D01*
X130006502Y-64519146D01*
X129940769Y-64557100D01*
X129915055Y-64582816D01*
X129912695Y-64584886D01*
X129898362Y-64595885D01*
X129892936Y-64599018D01*
X129877718Y-64605322D01*
X129871668Y-64606943D01*
X129856408Y-64608953D01*
X129853823Y-64609294D01*
X129850691Y-64609500D01*
X129788259Y-64609500D01*
X129788244Y-64609498D01*
X129784700Y-64609498D01*
X129777941Y-64609498D01*
X129767719Y-64609499D01*
X129767702Y-64609492D01*
X129719819Y-64609495D01*
X129646502Y-64629146D01*
X129580774Y-64667097D01*
X129580769Y-64667101D01*
X129565193Y-64682679D01*
X129565192Y-64682680D01*
X129542724Y-64705145D01*
X129542724Y-64705146D01*
X129542723Y-64705147D01*
X129542722Y-64705147D01*
X129531118Y-64716753D01*
X129531117Y-64716754D01*
X129511592Y-64736277D01*
X129511593Y-64736278D01*
X129511587Y-64736284D01*
X129511586Y-64736283D01*
X129506462Y-64741408D01*
X129506456Y-64741416D01*
X129482107Y-64783593D01*
X129471602Y-64822793D01*
X129469647Y-64827517D01*
X129469500Y-64828070D01*
X129469500Y-64881930D01*
X129308556Y-64881930D01*
X129295095Y-64849430D01*
X129241828Y-64769703D01*
X129227233Y-64755107D01*
X129220554Y-64748427D01*
X129220549Y-64748421D01*
X129200533Y-64728405D01*
X129188888Y-64716759D01*
X129188887Y-64716758D01*
X129187520Y-64715391D01*
X129187520Y-64715392D01*
X129178103Y-64705975D01*
X129178088Y-64705940D01*
X129152042Y-64679895D01*
X129128406Y-64656259D01*
X129128404Y-64656258D01*
X129128399Y-64656253D01*
X129028066Y-64589215D01*
X128916568Y-64543035D01*
X128798206Y-64519498D01*
X128798201Y-64519497D01*
X128798197Y-64519497D01*
X128737861Y-64519500D01*
X128434330Y-64519500D01*
X128434219Y-64519507D01*
X128409485Y-64519506D01*
X128409484Y-64519506D01*
X128409483Y-64519506D01*
X128327476Y-64541474D01*
X128253956Y-64583916D01*
X128253951Y-64583920D01*
X128242977Y-64594894D01*
X128225045Y-64612825D01*
X128222685Y-64614895D01*
X128201298Y-64631305D01*
X128195871Y-64634438D01*
X128172428Y-64644147D01*
X128166375Y-64645768D01*
X128139568Y-64649294D01*
X128136436Y-64649499D01*
X128116674Y-64649497D01*
X128111158Y-64649497D01*
X128111157Y-64649497D01*
X128107909Y-64649497D01*
X128107887Y-64649500D01*
X128068472Y-64649500D01*
X128068421Y-64649493D01*
X128048208Y-64649497D01*
X128048195Y-64649492D01*
X128016041Y-64649497D01*
X127973127Y-64661004D01*
X127973123Y-64661005D01*
X127945257Y-64677095D01*
X127939477Y-64679491D01*
X127937982Y-64679892D01*
X127937976Y-64679895D01*
X127935252Y-64682619D01*
X127935234Y-64682635D01*
X127918936Y-64698935D01*
X127918936Y-64698936D01*
X127899893Y-64717978D01*
X127899486Y-64719498D01*
X127897089Y-64725281D01*
X127881010Y-64753127D01*
X127869503Y-64796045D01*
X127869503Y-64796046D01*
X127869502Y-64801039D01*
X127869500Y-64801082D01*
X127869500Y-64818266D01*
X127869493Y-64848421D01*
X127869500Y-64848472D01*
X127869500Y-64902875D01*
X127869451Y-64903250D01*
X127869483Y-64923128D01*
X127869475Y-64923149D01*
X127869500Y-64941154D01*
X127869500Y-64948845D01*
X127869845Y-64949910D01*
X127870190Y-64951074D01*
X127877540Y-64978385D01*
X127877664Y-64978682D01*
X127877788Y-64979303D01*
X127877949Y-64979902D01*
X127877909Y-64979912D01*
X127879500Y-64987888D01*
X127879500Y-65043489D01*
X127879493Y-65043545D01*
X127879497Y-65063498D01*
X127879485Y-65063528D01*
X127879492Y-65104662D01*
X127895655Y-65164944D01*
X127895656Y-65164947D01*
X127917374Y-65202557D01*
X127919773Y-65220768D01*
X127908592Y-65235342D01*
X127890380Y-65237741D01*
X127883256Y-65234513D01*
X127827987Y-65197583D01*
X127827985Y-65197582D01*
X127740000Y-65180082D01*
X127652014Y-65197582D01*
X127652012Y-65197583D01*
X127577425Y-65247421D01*
X127577421Y-65247425D01*
X127527583Y-65322012D01*
X127527582Y-65322014D01*
X127510082Y-65410000D01*
X127000500Y-65410000D01*
X127000500Y-65010002D01*
X127235249Y-65010002D01*
X127251960Y-65072373D01*
X127251961Y-65072374D01*
X127251962Y-65072376D01*
X127297624Y-65118038D01*
X127297625Y-65118038D01*
X127297626Y-65118039D01*
X127359998Y-65134751D01*
X127360000Y-65134751D01*
X127360002Y-65134751D01*
X127422373Y-65118039D01*
X127422373Y-65118038D01*
X127422376Y-65118038D01*
X127468038Y-65072376D01*
X127468157Y-65071931D01*
X127484751Y-65010002D01*
X127484751Y-65009999D01*
X127478627Y-64987144D01*
X127468038Y-64947625D01*
X127422376Y-64901962D01*
X127422372Y-64901961D01*
X127360001Y-64885249D01*
X127359999Y-64885249D01*
X127297626Y-64901961D01*
X127251961Y-64947626D01*
X127235249Y-65009999D01*
X127235249Y-65010002D01*
X127000500Y-65010002D01*
X127000500Y-64691892D01*
X127000795Y-64688138D01*
X127004127Y-64667100D01*
X127013586Y-64607379D01*
X127015904Y-64600245D01*
X127052155Y-64529098D01*
X127056563Y-64523030D01*
X127113030Y-64466563D01*
X127119098Y-64462155D01*
X127190245Y-64425904D01*
X127197379Y-64423586D01*
X127268076Y-64412388D01*
X127278138Y-64410795D01*
X127281892Y-64410500D01*
X127286661Y-64410500D01*
X131303339Y-64410500D01*
X131308108Y-64410500D01*
X131311862Y-64410795D01*
G37*
G04 #@! TD.AperFunction*
M02*
